<svg width="1363" height="163" viewBox="0 0 1363 163" fill="none" xmlns="http://www.w3.org/2000/svg">
<path d="M0 15C0 6.71573 6.71573 0 15 0H37V163H15C6.71573 163 0 156.284 0 148V15Z" fill="#424242"/>
<rect width="1097" height="163" transform="translate(37)" fill="#F0F0F0"/>
<path d="M104.414 55.3398H107.918C107.848 56.4883 107.531 57.5078 106.969 58.3984C106.414 59.2891 105.637 59.9844 104.637 60.4844C103.645 60.9844 102.449 61.2344 101.051 61.2344C99.957 61.2344 98.9766 61.0469 98.1094 60.6719C97.2422 60.2891 96.5 59.7422 95.8828 59.0312C95.2734 58.3203 94.8086 57.4609 94.4883 56.4531C94.168 55.4453 94.0078 54.3164 94.0078 53.0664V51.8828C94.0078 50.6328 94.1719 49.5039 94.5 48.4961C94.8359 47.4805 95.3125 46.6172 95.9297 45.9062C96.5547 45.1953 97.3008 44.6484 98.168 44.2656C99.0352 43.8828 100.004 43.6914 101.074 43.6914C102.496 43.6914 103.695 43.9492 104.672 44.4648C105.656 44.9805 106.418 45.6914 106.957 46.5977C107.504 47.5039 107.832 48.5352 107.941 49.6914H104.426C104.387 49.0039 104.25 48.4219 104.016 47.9453C103.781 47.4609 103.426 47.0977 102.949 46.8555C102.48 46.6055 101.855 46.4805 101.074 46.4805C100.488 46.4805 99.9766 46.5898 99.5391 46.8086C99.1016 47.0273 98.7344 47.3594 98.4375 47.8047C98.1406 48.25 97.918 48.8125 97.7695 49.4922C97.6289 50.1641 97.5586 50.9531 97.5586 51.8594V53.0664C97.5586 53.9492 97.625 54.7266 97.7578 55.3984C97.8906 56.0625 98.0938 56.625 98.3672 57.0859C98.6484 57.5391 99.0078 57.8828 99.4453 58.1172C99.8906 58.3438 100.426 58.457 101.051 58.457C101.785 58.457 102.391 58.3398 102.867 58.1055C103.344 57.8711 103.707 57.5234 103.957 57.0625C104.215 56.6016 104.367 56.0273 104.414 55.3398ZM109.477 54.7891V54.543C109.477 53.6133 109.609 52.7578 109.875 51.9766C110.141 51.1875 110.527 50.5039 111.035 49.9258C111.543 49.3477 112.168 48.8984 112.91 48.5781C113.652 48.25 114.504 48.0859 115.465 48.0859C116.426 48.0859 117.281 48.25 118.031 48.5781C118.781 48.8984 119.41 49.3477 119.918 49.9258C120.434 50.5039 120.824 51.1875 121.09 51.9766C121.355 52.7578 121.488 53.6133 121.488 54.543V54.7891C121.488 55.7109 121.355 56.5664 121.09 57.3555C120.824 58.1367 120.434 58.8203 119.918 59.4062C119.41 59.9844 118.785 60.4336 118.043 60.7539C117.301 61.0742 116.449 61.2344 115.488 61.2344C114.527 61.2344 113.672 61.0742 112.922 60.7539C112.18 60.4336 111.551 59.9844 111.035 59.4062C110.527 58.8203 110.141 58.1367 109.875 57.3555C109.609 56.5664 109.477 55.7109 109.477 54.7891ZM112.852 54.543V54.7891C112.852 55.3203 112.898 55.8164 112.992 56.2773C113.086 56.7383 113.234 57.1445 113.438 57.4961C113.648 57.8398 113.922 58.1094 114.258 58.3047C114.594 58.5 115.004 58.5977 115.488 58.5977C115.957 58.5977 116.359 58.5 116.695 58.3047C117.031 58.1094 117.301 57.8398 117.504 57.4961C117.707 57.1445 117.855 56.7383 117.949 56.2773C118.051 55.8164 118.102 55.3203 118.102 54.7891V54.543C118.102 54.0273 118.051 53.543 117.949 53.0898C117.855 52.6289 117.703 52.2227 117.492 51.8711C117.289 51.5117 117.02 51.2305 116.684 51.0273C116.348 50.8242 115.941 50.7227 115.465 50.7227C114.988 50.7227 114.582 50.8242 114.246 51.0273C113.918 51.2305 113.648 51.5117 113.438 51.8711C113.234 52.2227 113.086 52.6289 112.992 53.0898C112.898 53.543 112.852 54.0273 112.852 54.543ZM131.062 57.9648V48.3203H134.438V61H131.262L131.062 57.9648ZM131.438 55.3633L132.434 55.3398C132.434 56.1836 132.336 56.9688 132.141 57.6953C131.945 58.4141 131.652 59.0391 131.262 59.5703C130.871 60.0938 130.379 60.5039 129.785 60.8008C129.191 61.0898 128.492 61.2344 127.688 61.2344C127.07 61.2344 126.5 61.1484 125.977 60.9766C125.461 60.7969 125.016 60.5195 124.641 60.1445C124.273 59.7617 123.984 59.2734 123.773 58.6797C123.57 58.0781 123.469 57.3555 123.469 56.5117V48.3203H126.844V56.5352C126.844 56.9102 126.887 57.2266 126.973 57.4844C127.066 57.7422 127.195 57.9531 127.359 58.1172C127.523 58.2812 127.715 58.3984 127.934 58.4688C128.16 58.5391 128.41 58.5742 128.684 58.5742C129.379 58.5742 129.926 58.4336 130.324 58.1523C130.73 57.8711 131.016 57.4883 131.18 57.0039C131.352 56.5117 131.438 55.9648 131.438 55.3633ZM140.391 51.0859V61H137.016V48.3203H140.191L140.391 51.0859ZM144.211 48.2383L144.152 51.3672C143.988 51.3438 143.789 51.3242 143.555 51.3086C143.328 51.2852 143.121 51.2734 142.934 51.2734C142.457 51.2734 142.043 51.3359 141.691 51.4609C141.348 51.5781 141.059 51.7539 140.824 51.9883C140.598 52.2227 140.426 52.5078 140.309 52.8438C140.199 53.1797 140.137 53.5625 140.121 53.9922L139.441 53.7812C139.441 52.9609 139.523 52.207 139.688 51.5195C139.852 50.8242 140.09 50.2188 140.402 49.7031C140.723 49.1875 141.113 48.7891 141.574 48.5078C142.035 48.2266 142.562 48.0859 143.156 48.0859C143.344 48.0859 143.535 48.1016 143.73 48.1328C143.926 48.1562 144.086 48.1914 144.211 48.2383ZM152.66 57.4961C152.66 57.2539 152.59 57.0352 152.449 56.8398C152.309 56.6445 152.047 56.4648 151.664 56.3008C151.289 56.1289 150.746 55.9727 150.035 55.832C149.395 55.6914 148.797 55.5156 148.242 55.3047C147.695 55.0859 147.219 54.8242 146.812 54.5195C146.414 54.2148 146.102 53.8555 145.875 53.4414C145.648 53.0195 145.535 52.5391 145.535 52C145.535 51.4688 145.648 50.9688 145.875 50.5C146.109 50.0312 146.441 49.6172 146.871 49.2578C147.309 48.8906 147.84 48.6055 148.465 48.4023C149.098 48.1914 149.809 48.0859 150.598 48.0859C151.699 48.0859 152.645 48.2617 153.434 48.6133C154.23 48.9648 154.84 49.4492 155.262 50.0664C155.691 50.6758 155.906 51.3711 155.906 52.1523H152.531C152.531 51.8242 152.461 51.5312 152.32 51.2734C152.188 51.0078 151.977 50.8008 151.688 50.6523C151.406 50.4961 151.039 50.418 150.586 50.418C150.211 50.418 149.887 50.4844 149.613 50.6172C149.34 50.7422 149.129 50.9141 148.98 51.1328C148.84 51.3438 148.77 51.5781 148.77 51.8359C148.77 52.0312 148.809 52.207 148.887 52.3633C148.973 52.5117 149.109 52.6484 149.297 52.7734C149.484 52.8984 149.727 53.0156 150.023 53.125C150.328 53.2266 150.703 53.3203 151.148 53.4062C152.062 53.5938 152.879 53.8398 153.598 54.1445C154.316 54.4414 154.887 54.8477 155.309 55.3633C155.73 55.8711 155.941 56.5391 155.941 57.3672C155.941 57.9297 155.816 58.4453 155.566 58.9141C155.316 59.3828 154.957 59.793 154.488 60.1445C154.02 60.4883 153.457 60.7578 152.801 60.9531C152.152 61.1406 151.422 61.2344 150.609 61.2344C149.43 61.2344 148.43 61.0234 147.609 60.6016C146.797 60.1797 146.18 59.6445 145.758 58.9961C145.344 58.3398 145.137 57.668 145.137 56.9805H148.336C148.352 57.4414 148.469 57.8125 148.688 58.0938C148.914 58.375 149.199 58.5781 149.543 58.7031C149.895 58.8281 150.273 58.8906 150.68 58.8906C151.117 58.8906 151.48 58.832 151.77 58.7148C152.059 58.5898 152.277 58.4258 152.426 58.2227C152.582 58.0117 152.66 57.7695 152.66 57.4961ZM163.969 61.2344C162.984 61.2344 162.102 61.0781 161.32 60.7656C160.539 60.4453 159.875 60.0039 159.328 59.4414C158.789 58.8789 158.375 58.2266 158.086 57.4844C157.797 56.7344 157.652 55.9375 157.652 55.0938V54.625C157.652 53.6641 157.789 52.7852 158.062 51.9883C158.336 51.1914 158.727 50.5 159.234 49.9141C159.75 49.3281 160.375 48.8789 161.109 48.5664C161.844 48.2461 162.672 48.0859 163.594 48.0859C164.492 48.0859 165.289 48.2344 165.984 48.5312C166.68 48.8281 167.262 49.25 167.73 49.7969C168.207 50.3438 168.566 51 168.809 51.7656C169.051 52.5234 169.172 53.3672 169.172 54.2969V55.7031H159.094V53.4531H165.855V53.1953C165.855 52.7266 165.77 52.3086 165.598 51.9414C165.434 51.5664 165.184 51.2695 164.848 51.0508C164.512 50.832 164.082 50.7227 163.559 50.7227C163.113 50.7227 162.73 50.8203 162.41 51.0156C162.09 51.2109 161.828 51.4844 161.625 51.8359C161.43 52.1875 161.281 52.6016 161.18 53.0781C161.086 53.5469 161.039 54.0625 161.039 54.625V55.0938C161.039 55.6016 161.109 56.0703 161.25 56.5C161.398 56.9297 161.605 57.3008 161.871 57.6133C162.145 57.9258 162.473 58.168 162.855 58.3398C163.246 58.5117 163.688 58.5977 164.18 58.5977C164.789 58.5977 165.355 58.4805 165.879 58.2461C166.41 58.0039 166.867 57.6406 167.25 57.1562L168.891 58.9375C168.625 59.3203 168.262 59.6875 167.801 60.0391C167.348 60.3906 166.801 60.6797 166.16 60.9062C165.52 61.125 164.789 61.2344 163.969 61.2344ZM178.887 43.9375H181.863L186.246 56.4648L190.629 43.9375H193.605L187.441 61H185.051L178.887 43.9375ZM177.281 43.9375H180.246L180.785 56.1484V61H177.281V43.9375ZM192.246 43.9375H195.223V61H191.707V56.1484L192.246 43.9375ZM204.938 58.1406V52.4922C204.938 52.0859 204.871 51.7383 204.738 51.4492C204.605 51.1523 204.398 50.9219 204.117 50.7578C203.844 50.5938 203.488 50.5117 203.051 50.5117C202.676 50.5117 202.352 50.5781 202.078 50.7109C201.805 50.8359 201.594 51.0195 201.445 51.2617C201.297 51.4961 201.223 51.7734 201.223 52.0938H197.848C197.848 51.5547 197.973 51.043 198.223 50.5586C198.473 50.0742 198.836 49.6484 199.312 49.2812C199.789 48.9062 200.355 48.6133 201.012 48.4023C201.676 48.1914 202.418 48.0859 203.238 48.0859C204.223 48.0859 205.098 48.25 205.863 48.5781C206.629 48.9062 207.23 49.3984 207.668 50.0547C208.113 50.7109 208.336 51.5312 208.336 52.5156V57.9414C208.336 58.6367 208.379 59.207 208.465 59.6523C208.551 60.0898 208.676 60.4727 208.84 60.8008V61H205.43C205.266 60.6562 205.141 60.2266 205.055 59.7109C204.977 59.1875 204.938 58.6641 204.938 58.1406ZM205.383 53.2773L205.406 55.1875H203.52C203.074 55.1875 202.688 55.2383 202.359 55.3398C202.031 55.4414 201.762 55.5859 201.551 55.7734C201.34 55.9531 201.184 56.1641 201.082 56.4062C200.988 56.6484 200.941 56.9141 200.941 57.2031C200.941 57.4922 201.008 57.7539 201.141 57.9883C201.273 58.2148 201.465 58.3945 201.715 58.5273C201.965 58.6523 202.258 58.7148 202.594 58.7148C203.102 58.7148 203.543 58.6133 203.918 58.4102C204.293 58.207 204.582 57.957 204.785 57.6602C204.996 57.3633 205.105 57.082 205.113 56.8164L206.004 58.2461C205.879 58.5664 205.707 58.8984 205.488 59.2422C205.277 59.5859 205.008 59.9102 204.68 60.2148C204.352 60.5117 203.957 60.7578 203.496 60.9531C203.035 61.1406 202.488 61.2344 201.855 61.2344C201.051 61.2344 200.32 61.0742 199.664 60.7539C199.016 60.4258 198.5 59.9766 198.117 59.4062C197.742 58.8281 197.555 58.1719 197.555 57.4375C197.555 56.7734 197.68 56.1836 197.93 55.668C198.18 55.1523 198.547 54.7188 199.031 54.3672C199.523 54.0078 200.137 53.7383 200.871 53.5586C201.605 53.3711 202.457 53.2773 203.426 53.2773H205.383ZM217.793 57.4961C217.793 57.2539 217.723 57.0352 217.582 56.8398C217.441 56.6445 217.18 56.4648 216.797 56.3008C216.422 56.1289 215.879 55.9727 215.168 55.832C214.527 55.6914 213.93 55.5156 213.375 55.3047C212.828 55.0859 212.352 54.8242 211.945 54.5195C211.547 54.2148 211.234 53.8555 211.008 53.4414C210.781 53.0195 210.668 52.5391 210.668 52C210.668 51.4688 210.781 50.9688 211.008 50.5C211.242 50.0312 211.574 49.6172 212.004 49.2578C212.441 48.8906 212.973 48.6055 213.598 48.4023C214.23 48.1914 214.941 48.0859 215.73 48.0859C216.832 48.0859 217.777 48.2617 218.566 48.6133C219.363 48.9648 219.973 49.4492 220.395 50.0664C220.824 50.6758 221.039 51.3711 221.039 52.1523H217.664C217.664 51.8242 217.594 51.5312 217.453 51.2734C217.32 51.0078 217.109 50.8008 216.82 50.6523C216.539 50.4961 216.172 50.418 215.719 50.418C215.344 50.418 215.02 50.4844 214.746 50.6172C214.473 50.7422 214.262 50.9141 214.113 51.1328C213.973 51.3438 213.902 51.5781 213.902 51.8359C213.902 52.0312 213.941 52.207 214.02 52.3633C214.105 52.5117 214.242 52.6484 214.43 52.7734C214.617 52.8984 214.859 53.0156 215.156 53.125C215.461 53.2266 215.836 53.3203 216.281 53.4062C217.195 53.5938 218.012 53.8398 218.73 54.1445C219.449 54.4414 220.02 54.8477 220.441 55.3633C220.863 55.8711 221.074 56.5391 221.074 57.3672C221.074 57.9297 220.949 58.4453 220.699 58.9141C220.449 59.3828 220.09 59.793 219.621 60.1445C219.152 60.4883 218.59 60.7578 217.934 60.9531C217.285 61.1406 216.555 61.2344 215.742 61.2344C214.562 61.2344 213.562 61.0234 212.742 60.6016C211.93 60.1797 211.312 59.6445 210.891 58.9961C210.477 58.3398 210.27 57.668 210.27 56.9805H213.469C213.484 57.4414 213.602 57.8125 213.82 58.0938C214.047 58.375 214.332 58.5781 214.676 58.7031C215.027 58.8281 215.406 58.8906 215.812 58.8906C216.25 58.8906 216.613 58.832 216.902 58.7148C217.191 58.5898 217.41 58.4258 217.559 58.2227C217.715 58.0117 217.793 57.7695 217.793 57.4961ZM229.477 48.3203V50.7109H222.094V48.3203H229.477ZM223.922 45.1914H227.297V57.1797C227.297 57.5469 227.344 57.8281 227.438 58.0234C227.539 58.2188 227.688 58.3555 227.883 58.4336C228.078 58.5039 228.324 58.5391 228.621 58.5391C228.832 58.5391 229.02 58.5312 229.184 58.5156C229.355 58.4922 229.5 58.4688 229.617 58.4453L229.629 60.9297C229.34 61.0234 229.027 61.0977 228.691 61.1523C228.355 61.207 227.984 61.2344 227.578 61.2344C226.836 61.2344 226.188 61.1133 225.633 60.8711C225.086 60.6211 224.664 60.2227 224.367 59.6758C224.07 59.1289 223.922 58.4102 223.922 57.5195V45.1914ZM237.234 61.2344C236.25 61.2344 235.367 61.0781 234.586 60.7656C233.805 60.4453 233.141 60.0039 232.594 59.4414C232.055 58.8789 231.641 58.2266 231.352 57.4844C231.062 56.7344 230.918 55.9375 230.918 55.0938V54.625C230.918 53.6641 231.055 52.7852 231.328 51.9883C231.602 51.1914 231.992 50.5 232.5 49.9141C233.016 49.3281 233.641 48.8789 234.375 48.5664C235.109 48.2461 235.938 48.0859 236.859 48.0859C237.758 48.0859 238.555 48.2344 239.25 48.5312C239.945 48.8281 240.527 49.25 240.996 49.7969C241.473 50.3438 241.832 51 242.074 51.7656C242.316 52.5234 242.438 53.3672 242.438 54.2969V55.7031H232.359V53.4531H239.121V53.1953C239.121 52.7266 239.035 52.3086 238.863 51.9414C238.699 51.5664 238.449 51.2695 238.113 51.0508C237.777 50.832 237.348 50.7227 236.824 50.7227C236.379 50.7227 235.996 50.8203 235.676 51.0156C235.355 51.2109 235.094 51.4844 234.891 51.8359C234.695 52.1875 234.547 52.6016 234.445 53.0781C234.352 53.5469 234.305 54.0625 234.305 54.625V55.0938C234.305 55.6016 234.375 56.0703 234.516 56.5C234.664 56.9297 234.871 57.3008 235.137 57.6133C235.41 57.9258 235.738 58.168 236.121 58.3398C236.512 58.5117 236.953 58.5977 237.445 58.5977C238.055 58.5977 238.621 58.4805 239.145 58.2461C239.676 58.0039 240.133 57.6406 240.516 57.1562L242.156 58.9375C241.891 59.3203 241.527 59.6875 241.066 60.0391C240.613 60.3906 240.066 60.6797 239.426 60.9062C238.785 61.125 238.055 61.2344 237.234 61.2344ZM247.734 51.0859V61H244.359V48.3203H247.535L247.734 51.0859ZM251.555 48.2383L251.496 51.3672C251.332 51.3438 251.133 51.3242 250.898 51.3086C250.672 51.2852 250.465 51.2734 250.277 51.2734C249.801 51.2734 249.387 51.3359 249.035 51.4609C248.691 51.5781 248.402 51.7539 248.168 51.9883C247.941 52.2227 247.77 52.5078 247.652 52.8438C247.543 53.1797 247.48 53.5625 247.465 53.9922L246.785 53.7812C246.785 52.9609 246.867 52.207 247.031 51.5195C247.195 50.8242 247.434 50.2188 247.746 49.7031C248.066 49.1875 248.457 48.7891 248.918 48.5078C249.379 48.2266 249.906 48.0859 250.5 48.0859C250.688 48.0859 250.879 48.1016 251.074 48.1328C251.27 48.1562 251.43 48.1914 251.555 48.2383Z" fill="#888888"/>
<path d="M113.18 109.93C113.18 109.398 113.102 108.922 112.945 108.5C112.789 108.062 112.5 107.656 112.078 107.281C111.656 106.906 111.047 106.531 110.25 106.156C109.469 105.766 108.438 105.359 107.156 104.938C105.656 104.438 104.211 103.875 102.82 103.25C101.43 102.609 100.188 101.867 99.0938 101.023C98 100.164 97.1328 99.1641 96.4922 98.0234C95.8516 96.8672 95.5312 95.5234 95.5312 93.9922C95.5312 92.5234 95.8594 91.2031 96.5156 90.0312C97.1719 88.8438 98.0859 87.8359 99.2578 87.0078C100.445 86.1641 101.836 85.5234 103.43 85.0859C105.023 84.6328 106.766 84.4062 108.656 84.4062C111.156 84.4062 113.359 84.8438 115.266 85.7188C117.188 86.5781 118.688 87.8047 119.766 89.3984C120.859 90.9766 121.406 92.8438 121.406 95H113.227C113.227 94.1406 113.047 93.3828 112.688 92.7266C112.344 92.0703 111.82 91.5547 111.117 91.1797C110.414 90.8047 109.531 90.6172 108.469 90.6172C107.438 90.6172 106.57 90.7734 105.867 91.0859C105.164 91.3984 104.633 91.8203 104.273 92.3516C103.914 92.8672 103.734 93.4375 103.734 94.0625C103.734 94.5781 103.875 95.0469 104.156 95.4688C104.453 95.875 104.867 96.2578 105.398 96.6172C105.945 96.9766 106.602 97.3203 107.367 97.6484C108.148 97.9766 109.023 98.2969 109.992 98.6094C111.805 99.1875 113.414 99.8359 114.82 100.555C116.242 101.258 117.438 102.062 118.406 102.969C119.391 103.859 120.133 104.875 120.633 106.016C121.148 107.156 121.406 108.445 121.406 109.883C121.406 111.414 121.109 112.773 120.516 113.961C119.922 115.148 119.07 116.156 117.961 116.984C116.852 117.797 115.523 118.414 113.977 118.836C112.43 119.258 110.703 119.469 108.797 119.469C107.047 119.469 105.32 119.25 103.617 118.812C101.93 118.359 100.398 117.672 99.0234 116.75C97.6484 115.812 96.5469 114.617 95.7188 113.164C94.9062 111.695 94.5 109.953 94.5 107.938H102.75C102.75 108.938 102.883 109.781 103.148 110.469C103.414 111.156 103.805 111.711 104.32 112.133C104.836 112.539 105.469 112.836 106.219 113.023C106.969 113.195 107.828 113.281 108.797 113.281C109.844 113.281 110.688 113.133 111.328 112.836C111.969 112.523 112.438 112.117 112.734 111.617C113.031 111.102 113.18 110.539 113.18 109.93ZM133.055 116.023L139.617 93.6406H148.102L137.906 122.773C137.688 123.414 137.398 124.102 137.039 124.836C136.68 125.586 136.188 126.297 135.562 126.969C134.938 127.641 134.133 128.188 133.148 128.609C132.18 129.031 130.977 129.242 129.539 129.242C128.773 129.242 128.211 129.203 127.852 129.125C127.508 129.062 126.977 128.945 126.258 128.773V123.125C126.461 123.125 126.633 123.125 126.773 123.125C126.93 123.125 127.102 123.125 127.289 123.125C128.133 123.125 128.805 123.039 129.305 122.867C129.82 122.695 130.211 122.445 130.477 122.117C130.758 121.789 130.977 121.391 131.133 120.922L133.055 116.023ZM131.391 93.6406L136.383 111.383L137.25 119.75H131.953L122.93 93.6406H131.391ZM163.453 111.875C163.453 111.438 163.305 111.062 163.008 110.75C162.727 110.422 162.227 110.125 161.508 109.859C160.789 109.578 159.781 109.297 158.484 109.016C157.25 108.75 156.086 108.398 154.992 107.961C153.914 107.523 152.969 106.992 152.156 106.367C151.344 105.742 150.703 105 150.234 104.141C149.781 103.281 149.555 102.297 149.555 101.188C149.555 100.109 149.781 99.0938 150.234 98.1406C150.703 97.1719 151.383 96.3203 152.273 95.5859C153.18 94.8359 154.281 94.25 155.578 93.8281C156.875 93.3906 158.352 93.1719 160.008 93.1719C162.289 93.1719 164.258 93.5234 165.914 94.2266C167.57 94.9141 168.844 95.8828 169.734 97.1328C170.641 98.3672 171.094 99.7969 171.094 101.422H163.195C163.195 100.781 163.086 100.234 162.867 99.7812C162.664 99.3281 162.328 98.9844 161.859 98.75C161.391 98.5 160.766 98.375 159.984 98.375C159.438 98.375 158.938 98.4766 158.484 98.6797C158.047 98.8828 157.695 99.1641 157.43 99.5234C157.164 99.8828 157.031 100.305 157.031 100.789C157.031 101.133 157.109 101.445 157.266 101.727C157.438 101.992 157.695 102.242 158.039 102.477C158.383 102.695 158.82 102.898 159.352 103.086C159.883 103.258 160.523 103.414 161.273 103.555C162.977 103.867 164.57 104.312 166.055 104.891C167.539 105.469 168.742 106.289 169.664 107.352C170.602 108.414 171.07 109.844 171.07 111.641C171.07 112.766 170.812 113.805 170.297 114.758C169.781 115.695 169.039 116.523 168.07 117.242C167.102 117.945 165.938 118.492 164.578 118.883C163.219 119.273 161.688 119.469 159.984 119.469C157.562 119.469 155.516 119.039 153.844 118.18C152.172 117.305 150.906 116.211 150.047 114.898C149.203 113.57 148.781 112.227 148.781 110.867H156.141C156.172 111.648 156.359 112.289 156.703 112.789C157.062 113.289 157.539 113.656 158.133 113.891C158.727 114.125 159.414 114.242 160.195 114.242C160.914 114.242 161.508 114.141 161.977 113.938C162.461 113.734 162.828 113.461 163.078 113.117C163.328 112.758 163.453 112.344 163.453 111.875ZM188.133 93.6406V99.125H172.852V93.6406H188.133ZM176.062 87.3359H183.961V110.727C183.961 111.398 184.039 111.922 184.195 112.297C184.352 112.656 184.617 112.914 184.992 113.07C185.383 113.211 185.898 113.281 186.539 113.281C186.992 113.281 187.367 113.273 187.664 113.258C187.961 113.227 188.242 113.188 188.508 113.141V118.789C187.836 119.008 187.133 119.172 186.398 119.281C185.664 119.406 184.883 119.469 184.055 119.469C182.367 119.469 180.922 119.203 179.719 118.672C178.531 118.141 177.625 117.305 177 116.164C176.375 115.023 176.062 113.539 176.062 111.711V87.3359ZM203.555 119.469C201.492 119.469 199.648 119.148 198.023 118.508C196.398 117.852 195.023 116.953 193.898 115.812C192.789 114.672 191.938 113.359 191.344 111.875C190.766 110.391 190.477 108.82 190.477 107.164V106.273C190.477 104.414 190.734 102.695 191.25 101.117C191.766 99.5234 192.531 98.1328 193.547 96.9453C194.562 95.7578 195.836 94.8359 197.367 94.1797C198.898 93.5078 200.68 93.1719 202.711 93.1719C204.508 93.1719 206.117 93.4609 207.539 94.0391C208.961 94.6172 210.164 95.4453 211.148 96.5234C212.148 97.6016 212.906 98.9062 213.422 100.438C213.953 101.969 214.219 103.688 214.219 105.594V108.805H193.5V103.859H206.508V103.25C206.523 102.406 206.375 101.688 206.062 101.094C205.766 100.5 205.328 100.047 204.75 99.7344C204.172 99.4219 203.469 99.2656 202.641 99.2656C201.781 99.2656 201.07 99.4531 200.508 99.8281C199.961 100.203 199.531 100.719 199.219 101.375C198.922 102.016 198.711 102.758 198.586 103.602C198.461 104.445 198.398 105.336 198.398 106.273V107.164C198.398 108.102 198.523 108.953 198.773 109.719C199.039 110.484 199.414 111.141 199.898 111.688C200.398 112.219 200.992 112.633 201.68 112.93C202.383 113.227 203.18 113.375 204.07 113.375C205.148 113.375 206.211 113.172 207.258 112.766C208.305 112.359 209.203 111.688 209.953 110.75L213.539 115.016C213.023 115.75 212.289 116.461 211.336 117.148C210.398 117.836 209.273 118.398 207.961 118.836C206.648 119.258 205.18 119.469 203.555 119.469ZM225.398 99.0078V119H217.5V93.6406H224.906L225.398 99.0078ZM224.438 105.453L222.633 105.5C222.633 103.719 222.844 102.078 223.266 100.578C223.688 99.0781 224.312 97.7734 225.141 96.6641C225.969 95.5547 226.984 94.6953 228.188 94.0859C229.406 93.4766 230.812 93.1719 232.406 93.1719C233.516 93.1719 234.523 93.3438 235.43 93.6875C236.336 94.0156 237.117 94.5391 237.773 95.2578C238.43 95.9609 238.93 96.8828 239.273 98.0234C239.633 99.1484 239.812 100.5 239.812 102.078V119H231.914V103.086C231.914 102.008 231.789 101.195 231.539 100.648C231.305 100.102 230.961 99.7344 230.508 99.5469C230.055 99.3594 229.5 99.2656 228.844 99.2656C228.156 99.2656 227.539 99.4219 226.992 99.7344C226.445 100.047 225.977 100.484 225.586 101.047C225.211 101.594 224.922 102.242 224.719 102.992C224.531 103.742 224.438 104.562 224.438 105.453ZM238.922 105.453L236.719 105.5C236.719 103.719 236.914 102.078 237.305 100.578C237.711 99.0781 238.312 97.7734 239.109 96.6641C239.922 95.5547 240.93 94.6953 242.133 94.0859C243.336 93.4766 244.734 93.1719 246.328 93.1719C247.484 93.1719 248.547 93.3438 249.516 93.6875C250.484 94.0312 251.32 94.5859 252.023 95.3516C252.727 96.1172 253.273 97.1328 253.664 98.3984C254.055 99.6484 254.25 101.195 254.25 103.039V119H246.328V103.039C246.328 101.992 246.203 101.203 245.953 100.672C245.719 100.125 245.375 99.7578 244.922 99.5703C244.469 99.3672 243.93 99.2656 243.305 99.2656C242.555 99.2656 241.906 99.4219 241.359 99.7344C240.812 100.047 240.352 100.484 239.977 101.047C239.617 101.594 239.352 102.242 239.18 102.992C239.008 103.742 238.922 104.562 238.922 105.453ZM282.188 119H274.617L274.664 112.672H282.188C283.75 112.672 285.07 112.297 286.148 111.547C287.242 110.797 288.07 109.68 288.633 108.195C289.211 106.695 289.5 104.852 289.5 102.664V101.188C289.5 99.5469 289.336 98.1094 289.008 96.875C288.695 95.625 288.227 94.5859 287.602 93.7578C286.977 92.9141 286.195 92.2812 285.258 91.8594C284.336 91.4375 283.273 91.2266 282.07 91.2266H274.477V84.875H282.07C284.383 84.875 286.5 85.2734 288.422 86.0703C290.359 86.8516 292.031 87.9766 293.438 89.4453C294.859 90.8984 295.953 92.625 296.719 94.625C297.5 96.6094 297.891 98.8125 297.891 101.234V102.664C297.891 105.07 297.5 107.273 296.719 109.273C295.953 111.273 294.867 113 293.461 114.453C292.055 115.906 290.391 117.031 288.469 117.828C286.562 118.609 284.469 119 282.188 119ZM279.328 84.875V119H271.102V84.875H279.328ZM314.086 119.469C312.023 119.469 310.18 119.148 308.555 118.508C306.93 117.852 305.555 116.953 304.43 115.812C303.32 114.672 302.469 113.359 301.875 111.875C301.297 110.391 301.008 108.82 301.008 107.164V106.273C301.008 104.414 301.266 102.695 301.781 101.117C302.297 99.5234 303.062 98.1328 304.078 96.9453C305.094 95.7578 306.367 94.8359 307.898 94.1797C309.43 93.5078 311.211 93.1719 313.242 93.1719C315.039 93.1719 316.648 93.4609 318.07 94.0391C319.492 94.6172 320.695 95.4453 321.68 96.5234C322.68 97.6016 323.438 98.9062 323.953 100.438C324.484 101.969 324.75 103.688 324.75 105.594V108.805H304.031V103.859H317.039V103.25C317.055 102.406 316.906 101.688 316.594 101.094C316.297 100.5 315.859 100.047 315.281 99.7344C314.703 99.4219 314 99.2656 313.172 99.2656C312.312 99.2656 311.602 99.4531 311.039 99.8281C310.492 100.203 310.062 100.719 309.75 101.375C309.453 102.016 309.242 102.758 309.117 103.602C308.992 104.445 308.93 105.336 308.93 106.273V107.164C308.93 108.102 309.055 108.953 309.305 109.719C309.57 110.484 309.945 111.141 310.43 111.688C310.93 112.219 311.523 112.633 312.211 112.93C312.914 113.227 313.711 113.375 314.602 113.375C315.68 113.375 316.742 113.172 317.789 112.766C318.836 112.359 319.734 111.688 320.484 110.75L324.07 115.016C323.555 115.75 322.82 116.461 321.867 117.148C320.93 117.836 319.805 118.398 318.492 118.836C317.18 119.258 315.711 119.469 314.086 119.469ZM341.25 111.875C341.25 111.438 341.102 111.062 340.805 110.75C340.523 110.422 340.023 110.125 339.305 109.859C338.586 109.578 337.578 109.297 336.281 109.016C335.047 108.75 333.883 108.398 332.789 107.961C331.711 107.523 330.766 106.992 329.953 106.367C329.141 105.742 328.5 105 328.031 104.141C327.578 103.281 327.352 102.297 327.352 101.188C327.352 100.109 327.578 99.0938 328.031 98.1406C328.5 97.1719 329.18 96.3203 330.07 95.5859C330.977 94.8359 332.078 94.25 333.375 93.8281C334.672 93.3906 336.148 93.1719 337.805 93.1719C340.086 93.1719 342.055 93.5234 343.711 94.2266C345.367 94.9141 346.641 95.8828 347.531 97.1328C348.438 98.3672 348.891 99.7969 348.891 101.422H340.992C340.992 100.781 340.883 100.234 340.664 99.7812C340.461 99.3281 340.125 98.9844 339.656 98.75C339.188 98.5 338.562 98.375 337.781 98.375C337.234 98.375 336.734 98.4766 336.281 98.6797C335.844 98.8828 335.492 99.1641 335.227 99.5234C334.961 99.8828 334.828 100.305 334.828 100.789C334.828 101.133 334.906 101.445 335.062 101.727C335.234 101.992 335.492 102.242 335.836 102.477C336.18 102.695 336.617 102.898 337.148 103.086C337.68 103.258 338.32 103.414 339.07 103.555C340.773 103.867 342.367 104.312 343.852 104.891C345.336 105.469 346.539 106.289 347.461 107.352C348.398 108.414 348.867 109.844 348.867 111.641C348.867 112.766 348.609 113.805 348.094 114.758C347.578 115.695 346.836 116.523 345.867 117.242C344.898 117.945 343.734 118.492 342.375 118.883C341.016 119.273 339.484 119.469 337.781 119.469C335.359 119.469 333.312 119.039 331.641 118.18C329.969 117.305 328.703 116.211 327.844 114.898C327 113.57 326.578 112.227 326.578 110.867H333.938C333.969 111.648 334.156 112.289 334.5 112.789C334.859 113.289 335.336 113.656 335.93 113.891C336.523 114.125 337.211 114.242 337.992 114.242C338.711 114.242 339.305 114.141 339.773 113.938C340.258 113.734 340.625 113.461 340.875 113.117C341.125 112.758 341.25 112.344 341.25 111.875ZM360.914 93.6406V119H352.992V93.6406H360.914ZM352.523 87.1016C352.523 85.9766 352.93 85.0547 353.742 84.3359C354.555 83.6172 355.609 83.2578 356.906 83.2578C358.203 83.2578 359.258 83.6172 360.07 84.3359C360.883 85.0547 361.289 85.9766 361.289 87.1016C361.289 88.2266 360.883 89.1484 360.07 89.8672C359.258 90.5859 358.203 90.9453 356.906 90.9453C355.609 90.9453 354.555 90.5859 353.742 89.8672C352.93 89.1484 352.523 88.2266 352.523 87.1016ZM381.727 93.6406H388.898V118.016C388.898 120.359 388.359 122.344 387.281 123.969C386.203 125.609 384.695 126.852 382.758 127.695C380.836 128.555 378.586 128.984 376.008 128.984C374.867 128.984 373.703 128.836 372.516 128.539C371.328 128.258 370.219 127.836 369.188 127.273C368.156 126.711 367.289 126.016 366.586 125.188L369.891 120.547C370.531 121.266 371.336 121.875 372.305 122.375C373.273 122.891 374.414 123.148 375.727 123.148C376.867 123.148 377.82 122.945 378.586 122.539C379.367 122.133 379.961 121.539 380.367 120.758C380.773 119.992 380.977 119.062 380.977 117.969V99.6406L381.727 93.6406ZM364.875 106.625V106.133C364.875 104.211 365.109 102.461 365.578 100.883C366.062 99.2891 366.75 97.9219 367.641 96.7812C368.547 95.625 369.641 94.7344 370.922 94.1094C372.203 93.4844 373.648 93.1719 375.258 93.1719C376.992 93.1719 378.414 93.5078 379.523 94.1797C380.648 94.8359 381.547 95.7578 382.219 96.9453C382.906 98.1328 383.438 99.5234 383.812 101.117C384.203 102.695 384.531 104.398 384.797 106.227V106.812C384.531 108.531 384.164 110.156 383.695 111.688C383.242 113.203 382.648 114.547 381.914 115.719C381.18 116.891 380.258 117.812 379.148 118.484C378.055 119.141 376.742 119.469 375.211 119.469C373.617 119.469 372.18 119.148 370.898 118.508C369.633 117.867 368.547 116.969 367.641 115.812C366.75 114.656 366.062 113.297 365.578 111.734C365.109 110.172 364.875 108.469 364.875 106.625ZM372.773 106.133V106.625C372.773 107.578 372.859 108.461 373.031 109.273C373.219 110.086 373.5 110.805 373.875 111.43C374.25 112.039 374.711 112.516 375.258 112.859C375.82 113.203 376.477 113.375 377.227 113.375C378.367 113.375 379.289 113.133 379.992 112.648C380.695 112.164 381.203 111.477 381.516 110.586C381.828 109.695 381.961 108.648 381.914 107.445V105.594C381.945 104.562 381.875 103.656 381.703 102.875C381.531 102.078 381.258 101.414 380.883 100.883C380.523 100.352 380.039 99.9531 379.43 99.6875C378.836 99.4062 378.117 99.2656 377.273 99.2656C376.539 99.2656 375.891 99.4375 375.328 99.7812C374.766 100.125 374.297 100.609 373.922 101.234C373.547 101.844 373.258 102.57 373.055 103.414C372.867 104.242 372.773 105.148 372.773 106.133ZM401.203 99.0547V119H393.305V93.6406H400.711L401.203 99.0547ZM400.266 105.453L398.414 105.5C398.414 103.562 398.648 101.836 399.117 100.32C399.586 98.7891 400.25 97.4922 401.109 96.4297C401.969 95.3672 402.992 94.5625 404.18 94.0156C405.383 93.4531 406.719 93.1719 408.188 93.1719C409.359 93.1719 410.43 93.3438 411.398 93.6875C412.383 94.0312 413.227 94.5859 413.93 95.3516C414.648 96.1172 415.195 97.1328 415.57 98.3984C415.961 99.6484 416.156 101.195 416.156 103.039V119H408.211V103.016C408.211 102 408.07 101.227 407.789 100.695C407.508 100.148 407.102 99.7734 406.57 99.5703C406.039 99.3672 405.391 99.2656 404.625 99.2656C403.812 99.2656 403.125 99.4219 402.562 99.7344C402 100.047 401.547 100.484 401.203 101.047C400.875 101.594 400.633 102.242 400.477 102.992C400.336 103.742 400.266 104.562 400.266 105.453Z" fill="black"/>
<path d="M1134 0H1348C1356.28 0 1363 6.71573 1363 15V148C1363 156.284 1356.28 163 1348 163H1134V0Z" fill="#6C5CE7"/>
<path d="M1248.5 51.6667C1257.07 51.6667 1264.74 52.9907 1270.29 55.1784C1273.06 56.2717 1275.33 57.5902 1276.91 59.0895C1278.49 60.591 1279.42 62.3052 1279.42 64.1667C1279.42 66.0281 1278.49 67.7423 1276.91 69.2438C1275.33 70.7432 1273.06 72.0616 1270.29 73.1549C1264.74 75.3426 1257.07 76.6666 1248.5 76.6667C1239.93 76.6667 1232.26 75.3427 1226.71 73.1549C1223.94 72.0616 1221.67 70.7432 1220.09 69.2438C1218.51 67.7423 1217.58 66.0281 1217.58 64.1667C1217.58 62.3052 1218.51 60.591 1220.09 59.0895C1221.67 57.5901 1223.94 56.2717 1226.71 55.1784C1232.26 52.9906 1239.93 51.6667 1248.5 51.6667ZM1248.5 55.3337C1242.07 55.3337 1235.28 56.2867 1230.11 57.9147C1227.52 58.7295 1225.37 59.7039 1223.88 60.7917C1222.37 61.8873 1221.63 63.0283 1221.63 64.1667C1221.63 65.305 1222.37 66.446 1223.88 67.5417C1225.37 68.6295 1227.52 69.6039 1230.11 70.4186C1235.28 72.0466 1242.07 72.9997 1248.5 72.9997C1254.93 72.9996 1261.72 72.0466 1266.89 70.4186C1269.48 69.6038 1271.63 68.6296 1273.12 67.5417C1274.63 66.446 1275.38 65.305 1275.38 64.1667C1275.38 63.0283 1274.63 61.8873 1273.12 60.7917C1271.63 59.7037 1269.48 58.7296 1266.89 57.9147C1261.72 56.2868 1254.93 55.3337 1248.5 55.3337Z" fill="white" stroke="white"/>
<path d="M1277.4 62.3333C1277.91 62.3333 1278.42 62.5126 1278.8 62.848L1278.94 62.9808C1279.24 63.304 1279.42 63.7211 1279.42 64.1663V74.8333C1279.42 76.6948 1278.49 78.409 1276.91 79.9105C1275.33 81.4099 1273.06 82.7283 1270.29 83.8216C1264.74 86.0093 1257.07 87.3333 1248.5 87.3333C1239.93 87.3333 1232.26 86.0094 1226.71 83.8216C1223.94 82.7283 1221.67 81.4099 1220.09 79.9105C1218.51 78.409 1217.58 76.6948 1217.58 74.8333V64.1663C1217.58 63.6574 1217.81 63.1851 1218.2 62.848L1218.35 62.7298C1218.71 62.4708 1219.15 62.3334 1219.6 62.3333C1220.12 62.3333 1220.63 62.5126 1221.01 62.848C1221.39 63.1851 1221.63 63.6574 1221.63 64.1663V74.8333C1221.63 75.9717 1222.37 77.1127 1223.88 78.2083C1225.37 79.2961 1227.52 80.2705 1230.11 81.0853C1235.28 82.7133 1242.07 83.6663 1248.5 83.6663C1254.93 83.6663 1261.72 82.7132 1266.89 81.0853C1269.48 80.2704 1271.63 79.2963 1273.12 78.2083C1274.63 77.1127 1275.38 75.9717 1275.38 74.8333V64.1663C1275.38 63.6575 1275.61 63.1851 1275.99 62.848L1276.14 62.7298C1276.5 62.4708 1276.94 62.3333 1277.4 62.3333Z" fill="white" stroke="white"/>
<path d="M1277.4 73C1277.91 73 1278.42 73.1793 1278.8 73.5146L1278.94 73.6475C1279.24 73.9707 1279.42 74.3878 1279.42 74.833V86.833C1279.42 88.6945 1278.49 90.4086 1276.91 91.9102C1275.33 93.4096 1273.06 94.7289 1270.29 95.8223C1264.74 98.0099 1257.07 99.333 1248.5 99.333C1239.93 99.333 1232.26 98.01 1226.71 95.8223C1223.94 94.7289 1221.67 93.4096 1220.09 91.9102C1218.51 90.4087 1217.58 88.6944 1217.58 86.833V74.833L1217.59 74.6445C1217.64 74.2084 1217.86 73.8097 1218.2 73.5146L1218.35 73.3965C1218.71 73.1375 1219.15 73.0001 1219.6 73C1220.12 73 1220.63 73.1793 1221.01 73.5146L1221.15 73.6475C1221.45 73.9707 1221.63 74.3877 1221.63 74.833V86.833C1221.63 87.9713 1222.37 89.1123 1223.88 90.208C1225.37 91.2959 1227.52 92.2711 1230.11 93.0859C1235.28 94.7139 1242.07 95.667 1248.5 95.667C1254.93 95.667 1261.72 94.7139 1266.89 93.0859C1269.48 92.2711 1271.63 91.296 1273.12 90.208C1274.63 89.1124 1275.38 87.9713 1275.38 86.833V74.833C1275.38 74.3242 1275.61 73.8518 1275.99 73.5146L1276.14 73.3965C1276.5 73.1375 1276.94 73 1277.4 73Z" fill="white" stroke="white"/>
<path d="M1277.4 85C1277.91 85 1278.42 85.1793 1278.8 85.5146L1278.94 85.6475C1279.24 85.9707 1279.42 86.3878 1279.42 86.833V98.833C1279.42 100.694 1278.49 102.409 1276.91 103.91C1275.33 105.41 1273.06 106.729 1270.29 107.822C1264.74 110.01 1257.07 111.333 1248.5 111.333C1239.93 111.333 1232.26 110.01 1226.71 107.822C1223.94 106.729 1221.67 105.41 1220.09 103.91C1218.51 102.409 1217.58 100.694 1217.58 98.833V86.833L1217.59 86.6445C1217.64 86.2084 1217.86 85.8097 1218.2 85.5146L1218.35 85.3965C1218.71 85.1375 1219.15 85.0001 1219.6 85C1220.12 85 1220.63 85.1793 1221.01 85.5146L1221.15 85.6475C1221.45 85.9707 1221.63 86.3877 1221.63 86.833V98.833C1221.63 99.9713 1222.37 101.112 1223.88 102.208C1225.37 103.296 1227.52 104.271 1230.11 105.086C1235.28 106.714 1242.07 107.667 1248.5 107.667C1254.93 107.667 1261.72 106.714 1266.89 105.086C1269.48 104.271 1271.63 103.296 1273.12 102.208C1274.63 101.112 1275.38 99.9713 1275.38 98.833V86.833C1275.38 86.3242 1275.61 85.8518 1275.99 85.5146L1276.14 85.3965C1276.5 85.1375 1276.94 85 1277.4 85Z" fill="white" stroke="white"/>
</svg>
