<svg width="1363" height="297" viewBox="0 0 1363 297" fill="none" xmlns="http://www.w3.org/2000/svg">
<path d="M0 15C0 6.71573 6.71573 0 15 0H37V297H15C6.71573 297 0 290.284 0 282V15Z" fill="#6C5CE7"/>
<path d="M37 0H1066V297H37V0Z" fill="#F0F0F0"/>
<path d="M112.354 59.8301V63.9434H98.9941V59.8301H112.354ZM100.559 49.4062V75H95.2852V49.4062H100.559ZM116.115 49.4062V75H110.859V49.4062H116.115ZM130.652 70.7109V62.2383C130.652 61.6289 130.553 61.1074 130.354 60.6738C130.154 60.2285 129.844 59.8828 129.422 59.6367C129.012 59.3906 128.479 59.2676 127.822 59.2676C127.26 59.2676 126.773 59.3672 126.363 59.5664C125.953 59.7539 125.637 60.0293 125.414 60.3926C125.191 60.7441 125.08 61.1602 125.08 61.6406H120.018C120.018 60.832 120.205 60.0645 120.58 59.3379C120.955 58.6113 121.5 57.9727 122.215 57.4219C122.93 56.8594 123.779 56.4199 124.764 56.1035C125.76 55.7871 126.873 55.6289 128.104 55.6289C129.58 55.6289 130.893 55.875 132.041 56.3672C133.189 56.8594 134.092 57.5977 134.748 58.582C135.416 59.5664 135.75 60.7969 135.75 62.2734V70.4121C135.75 71.4551 135.814 72.3105 135.943 72.9785C136.072 73.6348 136.26 74.209 136.506 74.7012V75H131.391C131.145 74.4844 130.957 73.8398 130.828 73.0664C130.711 72.2812 130.652 71.4961 130.652 70.7109ZM131.32 63.416L131.355 66.2812H128.525C127.857 66.2812 127.277 66.3574 126.785 66.5098C126.293 66.6621 125.889 66.8789 125.572 67.1602C125.256 67.4297 125.021 67.7461 124.869 68.1094C124.729 68.4727 124.658 68.8711 124.658 69.3047C124.658 69.7383 124.758 70.1309 124.957 70.4824C125.156 70.8223 125.443 71.0918 125.818 71.291C126.193 71.4785 126.633 71.5723 127.137 71.5723C127.898 71.5723 128.561 71.4199 129.123 71.1152C129.686 70.8105 130.119 70.4355 130.424 69.9902C130.74 69.5449 130.904 69.123 130.916 68.7246L132.252 70.8691C132.064 71.3496 131.807 71.8477 131.479 72.3633C131.162 72.8789 130.758 73.3652 130.266 73.8223C129.773 74.2676 129.182 74.6367 128.49 74.9297C127.799 75.2109 126.979 75.3516 126.029 75.3516C124.822 75.3516 123.727 75.1113 122.742 74.6309C121.77 74.1387 120.996 73.4648 120.422 72.6094C119.859 71.7422 119.578 70.7578 119.578 69.6562C119.578 68.6602 119.766 67.7754 120.141 67.002C120.516 66.2285 121.066 65.5781 121.793 65.0508C122.531 64.5117 123.451 64.1074 124.553 63.8379C125.654 63.5566 126.932 63.416 128.385 63.416H131.32ZM144.996 48V75H139.916V48H144.996ZM154.523 55.9805V75H149.443V55.9805H154.523ZM149.127 51.0234C149.127 50.2852 149.385 49.6758 149.9 49.1953C150.416 48.7148 151.107 48.4746 151.975 48.4746C152.83 48.4746 153.516 48.7148 154.031 49.1953C154.559 49.6758 154.822 50.2852 154.822 51.0234C154.822 51.7617 154.559 52.3711 154.031 52.8516C153.516 53.332 152.83 53.5723 151.975 53.5723C151.107 53.5723 150.416 53.332 149.9 52.8516C149.385 52.3711 149.127 51.7617 149.127 51.0234ZM163.77 59.918V75H158.689V55.9805H163.453L163.77 59.918ZM163.066 64.8223H161.66C161.66 63.498 161.818 62.2793 162.135 61.166C162.463 60.041 162.938 59.0684 163.559 58.248C164.191 57.416 164.971 56.7715 165.896 56.3145C166.822 55.8574 167.895 55.6289 169.113 55.6289C169.957 55.6289 170.73 55.7578 171.434 56.0156C172.137 56.2617 172.74 56.6543 173.244 57.1934C173.76 57.7207 174.158 58.4121 174.439 59.2676C174.721 60.1113 174.861 61.125 174.861 62.3086V75H169.799V62.8711C169.799 62.0039 169.682 61.3359 169.447 60.8672C169.213 60.3984 168.879 60.0703 168.445 59.8828C168.023 59.6953 167.514 59.6016 166.916 59.6016C166.26 59.6016 165.686 59.7363 165.193 60.0059C164.713 60.2754 164.314 60.6504 163.998 61.1309C163.682 61.5996 163.447 62.1504 163.295 62.7832C163.143 63.416 163.066 64.0957 163.066 64.8223ZM174.387 64.2422L172.576 64.4707C172.576 63.2285 172.729 62.0742 173.033 61.0078C173.35 59.9414 173.812 59.0039 174.422 58.1953C175.043 57.3867 175.811 56.7598 176.725 56.3145C177.639 55.8574 178.693 55.6289 179.889 55.6289C180.803 55.6289 181.635 55.7637 182.385 56.0332C183.135 56.291 183.773 56.707 184.301 57.2812C184.84 57.8438 185.25 58.582 185.531 59.4961C185.824 60.4102 185.971 61.5293 185.971 62.8535V75H180.891V62.8535C180.891 61.9746 180.773 61.3066 180.539 60.8496C180.316 60.3809 179.988 60.0586 179.555 59.8828C179.133 59.6953 178.629 59.6016 178.043 59.6016C177.434 59.6016 176.9 59.7246 176.443 59.9707C175.986 60.2051 175.605 60.5332 175.301 60.9551C174.996 61.377 174.768 61.8691 174.615 62.4316C174.463 62.9824 174.387 63.5859 174.387 64.2422ZM220.002 49.4062V75H214.729L204.445 57.8438V75H199.172V49.4062H204.445L214.746 66.5801V49.4062H220.002ZM224.555 55.9805H229.635V76.1426C229.635 77.5488 229.377 78.7383 228.861 79.7109C228.346 80.6836 227.602 81.4219 226.629 81.9258C225.656 82.4297 224.479 82.6816 223.096 82.6816C222.662 82.6816 222.24 82.6582 221.83 82.6113C221.408 82.5645 220.975 82.4883 220.529 82.3828L220.547 78.498C220.828 78.5449 221.104 78.5801 221.373 78.6035C221.631 78.6387 221.895 78.6562 222.164 78.6562C222.691 78.6562 223.131 78.5684 223.482 78.3926C223.834 78.2168 224.098 77.9414 224.273 77.5664C224.461 77.2031 224.555 76.7285 224.555 76.1426V55.9805ZM224.15 51.0234C224.15 50.2852 224.408 49.6758 224.924 49.1953C225.451 48.7148 226.143 48.4746 226.998 48.4746C227.865 48.4746 228.557 48.7148 229.072 49.1953C229.588 49.6758 229.846 50.2852 229.846 51.0234C229.846 51.7617 229.588 52.3711 229.072 52.8516C228.557 53.332 227.865 53.5723 226.998 53.5723C226.143 53.5723 225.451 53.332 224.924 52.8516C224.408 52.3711 224.15 51.7617 224.15 51.0234ZM242.414 75.3516C240.938 75.3516 239.613 75.1172 238.441 74.6484C237.27 74.168 236.273 73.5059 235.453 72.6621C234.645 71.8184 234.023 70.8398 233.59 69.7266C233.156 68.6016 232.939 67.4062 232.939 66.1406V65.4375C232.939 63.9961 233.145 62.6777 233.555 61.4824C233.965 60.2871 234.551 59.25 235.312 58.3711C236.086 57.4922 237.023 56.8184 238.125 56.3496C239.227 55.8691 240.469 55.6289 241.852 55.6289C243.199 55.6289 244.395 55.8516 245.438 56.2969C246.48 56.7422 247.354 57.375 248.057 58.1953C248.771 59.0156 249.311 60 249.674 61.1484C250.037 62.2852 250.219 63.5508 250.219 64.9453V67.0547H235.102V63.6797H245.244V63.293C245.244 62.5898 245.115 61.9629 244.857 61.4121C244.611 60.8496 244.236 60.4043 243.732 60.0762C243.229 59.748 242.584 59.584 241.799 59.584C241.131 59.584 240.557 59.7305 240.076 60.0234C239.596 60.3164 239.203 60.7266 238.898 61.2539C238.605 61.7812 238.383 62.4023 238.23 63.1172C238.09 63.8203 238.02 64.5938 238.02 65.4375V66.1406C238.02 66.9023 238.125 67.6055 238.336 68.25C238.559 68.8945 238.869 69.4512 239.268 69.9199C239.678 70.3887 240.17 70.752 240.744 71.0098C241.33 71.2676 241.992 71.3965 242.73 71.3965C243.645 71.3965 244.494 71.2207 245.279 70.8691C246.076 70.5059 246.762 69.9609 247.336 69.2344L249.797 71.9062C249.398 72.4805 248.854 73.0312 248.162 73.5586C247.482 74.0859 246.662 74.5195 245.701 74.8594C244.74 75.1875 243.645 75.3516 242.414 75.3516ZM258.445 55.9805V75H253.365V55.9805H258.445ZM253.049 51.0234C253.049 50.2852 253.307 49.6758 253.822 49.1953C254.338 48.7148 255.029 48.4746 255.896 48.4746C256.752 48.4746 257.438 48.7148 257.953 49.1953C258.48 49.6758 258.744 50.2852 258.744 51.0234C258.744 51.7617 258.48 52.3711 257.953 52.8516C257.438 53.332 256.752 53.5723 255.896 53.5723C255.029 53.5723 254.338 53.332 253.822 52.8516C253.307 52.3711 253.049 51.7617 253.049 51.0234ZM267.691 59.918V75H262.611V55.9805H267.375L267.691 59.918ZM266.988 64.8223H265.582C265.582 63.498 265.74 62.2793 266.057 61.166C266.385 60.041 266.859 59.0684 267.48 58.248C268.113 57.416 268.893 56.7715 269.818 56.3145C270.744 55.8574 271.816 55.6289 273.035 55.6289C273.879 55.6289 274.652 55.7578 275.355 56.0156C276.059 56.2617 276.662 56.6543 277.166 57.1934C277.682 57.7207 278.08 58.4121 278.361 59.2676C278.643 60.1113 278.783 61.125 278.783 62.3086V75H273.721V62.8711C273.721 62.0039 273.604 61.3359 273.369 60.8672C273.135 60.3984 272.801 60.0703 272.367 59.8828C271.945 59.6953 271.436 59.6016 270.838 59.6016C270.182 59.6016 269.607 59.7363 269.115 60.0059C268.635 60.2754 268.236 60.6504 267.92 61.1309C267.604 61.5996 267.369 62.1504 267.217 62.7832C267.064 63.416 266.988 64.0957 266.988 64.8223ZM278.309 64.2422L276.498 64.4707C276.498 63.2285 276.65 62.0742 276.955 61.0078C277.271 59.9414 277.734 59.0039 278.344 58.1953C278.965 57.3867 279.732 56.7598 280.646 56.3145C281.561 55.8574 282.615 55.6289 283.811 55.6289C284.725 55.6289 285.557 55.7637 286.307 56.0332C287.057 56.291 287.695 56.707 288.223 57.2812C288.762 57.8438 289.172 58.582 289.453 59.4961C289.746 60.4102 289.893 61.5293 289.893 62.8535V75H284.812V62.8535C284.812 61.9746 284.695 61.3066 284.461 60.8496C284.238 60.3809 283.91 60.0586 283.477 59.8828C283.055 59.6953 282.551 59.6016 281.965 59.6016C281.355 59.6016 280.822 59.7246 280.365 59.9707C279.908 60.2051 279.527 60.5332 279.223 60.9551C278.918 61.377 278.689 61.8691 278.537 62.4316C278.385 62.9824 278.309 63.5859 278.309 64.2422Z" fill="#888888"/>
<path d="M118.676 126.52H128.246C128.118 129.29 127.371 131.733 126.004 133.848C124.637 135.962 122.741 137.612 120.316 138.797C117.91 139.964 115.066 140.547 111.785 140.547C109.124 140.547 106.745 140.1 104.648 139.207C102.57 138.314 100.802 137.029 99.3438 135.352C97.9036 133.674 96.8008 131.642 96.0352 129.254C95.2878 126.866 94.9141 124.177 94.9141 121.188V119.027C94.9141 116.038 95.306 113.349 96.0898 110.961C96.8919 108.555 98.0221 106.513 99.4805 104.836C100.957 103.141 102.725 101.846 104.785 100.953C106.845 100.06 109.133 99.6133 111.648 99.6133C115.112 99.6133 118.038 100.233 120.426 101.473C122.814 102.712 124.664 104.417 125.977 106.586C127.289 108.737 128.064 111.189 128.301 113.941H118.73C118.694 112.447 118.439 111.198 117.965 110.195C117.491 109.174 116.743 108.409 115.723 107.898C114.702 107.388 113.344 107.133 111.648 107.133C110.464 107.133 109.434 107.352 108.559 107.789C107.684 108.227 106.954 108.919 106.371 109.867C105.788 110.815 105.35 112.046 105.059 113.559C104.785 115.053 104.648 116.858 104.648 118.973V121.188C104.648 123.302 104.776 125.107 105.031 126.602C105.286 128.096 105.697 129.318 106.262 130.266C106.827 131.214 107.556 131.915 108.449 132.371C109.361 132.809 110.473 133.027 111.785 133.027C113.243 133.027 114.474 132.799 115.477 132.344C116.479 131.87 117.254 131.159 117.801 130.211C118.348 129.245 118.639 128.014 118.676 126.52ZM131.199 125.508V124.934C131.199 122.764 131.509 120.768 132.129 118.945C132.749 117.104 133.66 115.509 134.863 114.16C136.066 112.811 137.552 111.763 139.32 111.016C141.089 110.25 143.13 109.867 145.445 109.867C147.779 109.867 149.829 110.25 151.598 111.016C153.384 111.763 154.879 112.811 156.082 114.16C157.285 115.509 158.197 117.104 158.816 118.945C159.436 120.768 159.746 122.764 159.746 124.934V125.508C159.746 127.659 159.436 129.655 158.816 131.496C158.197 133.319 157.285 134.914 156.082 136.281C154.879 137.63 153.393 138.678 151.625 139.426C149.857 140.173 147.815 140.547 145.5 140.547C143.185 140.547 141.134 140.173 139.348 139.426C137.561 138.678 136.066 137.63 134.863 136.281C133.66 134.914 132.749 133.319 132.129 131.496C131.509 129.655 131.199 127.659 131.199 125.508ZM140.414 124.934V125.508C140.414 126.62 140.496 127.659 140.66 128.625C140.824 129.591 141.098 130.439 141.48 131.168C141.863 131.879 142.383 132.435 143.039 132.836C143.695 133.237 144.516 133.438 145.5 133.438C146.466 133.438 147.268 133.237 147.906 132.836C148.562 132.435 149.082 131.879 149.465 131.168C149.848 130.439 150.121 129.591 150.285 128.625C150.449 127.659 150.531 126.62 150.531 125.508V124.934C150.531 123.858 150.449 122.846 150.285 121.898C150.121 120.932 149.848 120.085 149.465 119.355C149.082 118.608 148.562 118.025 147.906 117.605C147.25 117.186 146.43 116.977 145.445 116.977C144.479 116.977 143.668 117.186 143.012 117.605C142.374 118.025 141.863 118.608 141.48 119.355C141.098 120.085 140.824 120.932 140.66 121.898C140.496 122.846 140.414 123.858 140.414 124.934ZM181.129 132.809V110.414H190.371V140H181.73L181.129 132.809ZM182.004 126.793L184.41 126.738C184.41 128.725 184.173 130.566 183.699 132.262C183.225 133.939 182.523 135.397 181.594 136.637C180.682 137.876 179.552 138.842 178.203 139.535C176.872 140.21 175.332 140.547 173.582 140.547C172.124 140.547 170.784 140.346 169.562 139.945C168.359 139.526 167.32 138.879 166.445 138.004C165.57 137.111 164.887 135.971 164.395 134.586C163.921 133.182 163.684 131.505 163.684 129.555V110.414H172.898V129.609C172.898 130.266 172.98 130.831 173.145 131.305C173.309 131.779 173.546 132.18 173.855 132.508C174.165 132.818 174.548 133.055 175.004 133.219C175.478 133.365 176.016 133.438 176.617 133.438C178.003 133.438 179.087 133.146 179.871 132.562C180.655 131.979 181.202 131.186 181.512 130.184C181.84 129.181 182.004 128.051 182.004 126.793ZM204.754 117.742V140H195.539V110.414H204.152L204.754 117.742ZM213.504 110.195L213.34 118.754C212.975 118.717 212.483 118.672 211.863 118.617C211.243 118.562 210.724 118.535 210.305 118.535C209.229 118.535 208.299 118.663 207.516 118.918C206.75 119.155 206.112 119.52 205.602 120.012C205.109 120.486 204.745 121.087 204.508 121.816C204.289 122.546 204.189 123.393 204.207 124.359L202.539 123.266C202.539 121.279 202.73 119.474 203.113 117.852C203.514 116.211 204.079 114.798 204.809 113.613C205.538 112.41 206.422 111.49 207.461 110.852C208.5 110.195 209.667 109.867 210.961 109.867C211.417 109.867 211.863 109.895 212.301 109.949C212.757 110.004 213.158 110.086 213.504 110.195ZM232.18 131.688C232.18 131.177 232.007 130.74 231.66 130.375C231.332 129.992 230.749 129.646 229.91 129.336C229.072 129.008 227.896 128.68 226.383 128.352C224.943 128.042 223.585 127.632 222.309 127.121C221.051 126.611 219.948 125.991 219 125.262C218.052 124.533 217.305 123.667 216.758 122.664C216.229 121.661 215.965 120.513 215.965 119.219C215.965 117.961 216.229 116.776 216.758 115.664C217.305 114.534 218.098 113.54 219.137 112.684C220.194 111.809 221.479 111.125 222.992 110.633C224.505 110.122 226.228 109.867 228.16 109.867C230.822 109.867 233.118 110.277 235.051 111.098C236.983 111.9 238.469 113.03 239.508 114.488C240.565 115.928 241.094 117.596 241.094 119.492H231.879C231.879 118.745 231.751 118.107 231.496 117.578C231.259 117.049 230.867 116.648 230.32 116.375C229.773 116.083 229.044 115.938 228.133 115.938C227.495 115.938 226.911 116.056 226.383 116.293C225.872 116.53 225.462 116.858 225.152 117.277C224.842 117.697 224.688 118.189 224.688 118.754C224.688 119.155 224.779 119.52 224.961 119.848C225.161 120.158 225.462 120.449 225.863 120.723C226.264 120.978 226.775 121.215 227.395 121.434C228.014 121.634 228.762 121.816 229.637 121.98C231.624 122.345 233.483 122.865 235.215 123.539C236.947 124.214 238.35 125.171 239.426 126.41C240.52 127.65 241.066 129.318 241.066 131.414C241.066 132.727 240.766 133.939 240.164 135.051C239.562 136.145 238.697 137.111 237.566 137.949C236.436 138.77 235.078 139.408 233.492 139.863C231.906 140.319 230.12 140.547 228.133 140.547C225.307 140.547 222.919 140.046 220.969 139.043C219.018 138.022 217.542 136.746 216.539 135.215C215.555 133.665 215.062 132.098 215.062 130.512H223.648C223.685 131.423 223.904 132.171 224.305 132.754C224.724 133.337 225.28 133.766 225.973 134.039C226.665 134.312 227.467 134.449 228.379 134.449C229.217 134.449 229.91 134.331 230.457 134.094C231.022 133.857 231.451 133.538 231.742 133.137C232.034 132.717 232.18 132.234 232.18 131.688ZM259.715 140.547C257.309 140.547 255.158 140.173 253.262 139.426C251.366 138.66 249.762 137.612 248.449 136.281C247.155 134.951 246.161 133.419 245.469 131.688C244.794 129.956 244.457 128.124 244.457 126.191V125.152C244.457 122.983 244.758 120.978 245.359 119.137C245.961 117.277 246.854 115.655 248.039 114.27C249.224 112.884 250.71 111.809 252.496 111.043C254.283 110.259 256.361 109.867 258.73 109.867C260.827 109.867 262.704 110.204 264.363 110.879C266.022 111.553 267.426 112.52 268.574 113.777C269.741 115.035 270.625 116.557 271.227 118.344C271.846 120.13 272.156 122.135 272.156 124.359V128.105H247.984V122.336H263.16V121.625C263.178 120.641 263.005 119.802 262.641 119.109C262.294 118.417 261.784 117.888 261.109 117.523C260.435 117.159 259.615 116.977 258.648 116.977C257.646 116.977 256.816 117.195 256.16 117.633C255.522 118.07 255.021 118.672 254.656 119.438C254.31 120.185 254.064 121.051 253.918 122.035C253.772 123.02 253.699 124.059 253.699 125.152V126.191C253.699 127.285 253.845 128.279 254.137 129.172C254.447 130.065 254.884 130.831 255.449 131.469C256.033 132.089 256.725 132.572 257.527 132.918C258.348 133.264 259.277 133.438 260.316 133.438C261.574 133.438 262.814 133.201 264.035 132.727C265.257 132.253 266.305 131.469 267.18 130.375L271.363 135.352C270.762 136.208 269.905 137.038 268.793 137.84C267.699 138.642 266.387 139.298 264.855 139.809C263.324 140.301 261.611 140.547 259.715 140.547ZM295.043 100.188H302.863L311.75 127.887L320.637 100.188H328.457L314.922 140H308.578L295.043 100.188ZM290.285 100.188H298.379L299.883 130.703V140H290.285V100.188ZM325.121 100.188H333.242V140H323.617V130.703L325.121 100.188ZM354.324 132.562V120.367C354.324 119.529 354.206 118.809 353.969 118.207C353.732 117.605 353.358 117.141 352.848 116.812C352.337 116.466 351.654 116.293 350.797 116.293C350.104 116.293 349.512 116.411 349.02 116.648C348.527 116.885 348.154 117.241 347.898 117.715C347.643 118.189 347.516 118.79 347.516 119.52H338.301C338.301 118.152 338.602 116.885 339.203 115.719C339.823 114.534 340.698 113.504 341.828 112.629C342.977 111.754 344.344 111.079 345.93 110.605C347.534 110.113 349.32 109.867 351.289 109.867C353.641 109.867 355.737 110.259 357.578 111.043C359.438 111.827 360.905 113.003 361.98 114.57C363.056 116.12 363.594 118.07 363.594 120.422V132.535C363.594 134.467 363.703 135.935 363.922 136.938C364.141 137.922 364.451 138.788 364.852 139.535V140H355.609C355.172 139.089 354.844 137.977 354.625 136.664C354.424 135.333 354.324 133.966 354.324 132.562ZM355.445 121.926L355.5 126.848H351.426C350.569 126.848 349.84 126.966 349.238 127.203C348.655 127.44 348.181 127.768 347.816 128.188C347.47 128.589 347.215 129.044 347.051 129.555C346.905 130.065 346.832 130.603 346.832 131.168C346.832 131.715 346.96 132.207 347.215 132.645C347.488 133.064 347.853 133.392 348.309 133.629C348.764 133.866 349.275 133.984 349.84 133.984C350.861 133.984 351.727 133.793 352.438 133.41C353.167 133.009 353.723 132.526 354.105 131.961C354.488 131.396 354.68 130.867 354.68 130.375L356.703 134.148C356.339 134.878 355.919 135.616 355.445 136.363C354.99 137.111 354.415 137.803 353.723 138.441C353.048 139.061 352.219 139.572 351.234 139.973C350.25 140.355 349.056 140.547 347.652 140.547C345.829 140.547 344.152 140.173 342.621 139.426C341.108 138.678 339.896 137.639 338.984 136.309C338.073 134.96 337.617 133.41 337.617 131.66C337.617 130.129 337.891 128.762 338.438 127.559C339.003 126.355 339.85 125.335 340.98 124.496C342.111 123.658 343.551 123.02 345.301 122.582C347.051 122.145 349.111 121.926 351.48 121.926H355.445ZM384.211 131.688C384.211 131.177 384.038 130.74 383.691 130.375C383.363 129.992 382.78 129.646 381.941 129.336C381.103 129.008 379.927 128.68 378.414 128.352C376.974 128.042 375.616 127.632 374.34 127.121C373.082 126.611 371.979 125.991 371.031 125.262C370.083 124.533 369.336 123.667 368.789 122.664C368.26 121.661 367.996 120.513 367.996 119.219C367.996 117.961 368.26 116.776 368.789 115.664C369.336 114.534 370.129 113.54 371.168 112.684C372.225 111.809 373.51 111.125 375.023 110.633C376.536 110.122 378.259 109.867 380.191 109.867C382.853 109.867 385.15 110.277 387.082 111.098C389.014 111.9 390.5 113.03 391.539 114.488C392.596 115.928 393.125 117.596 393.125 119.492H383.91C383.91 118.745 383.783 118.107 383.527 117.578C383.29 117.049 382.898 116.648 382.352 116.375C381.805 116.083 381.076 115.938 380.164 115.938C379.526 115.938 378.943 116.056 378.414 116.293C377.904 116.53 377.493 116.858 377.184 117.277C376.874 117.697 376.719 118.189 376.719 118.754C376.719 119.155 376.81 119.52 376.992 119.848C377.193 120.158 377.493 120.449 377.895 120.723C378.296 120.978 378.806 121.215 379.426 121.434C380.046 121.634 380.793 121.816 381.668 121.98C383.655 122.345 385.514 122.865 387.246 123.539C388.978 124.214 390.382 125.171 391.457 126.41C392.551 127.65 393.098 129.318 393.098 131.414C393.098 132.727 392.797 133.939 392.195 135.051C391.594 136.145 390.728 137.111 389.598 137.949C388.467 138.77 387.109 139.408 385.523 139.863C383.938 140.319 382.151 140.547 380.164 140.547C377.339 140.547 374.951 140.046 373 139.043C371.049 138.022 369.573 136.746 368.57 135.215C367.586 133.665 367.094 132.098 367.094 130.512H375.68C375.716 131.423 375.935 132.171 376.336 132.754C376.755 133.337 377.311 133.766 378.004 134.039C378.697 134.312 379.499 134.449 380.41 134.449C381.249 134.449 381.941 134.331 382.488 134.094C383.053 133.857 383.482 133.538 383.773 133.137C384.065 132.717 384.211 132.234 384.211 131.688ZM413.004 110.414V116.812H395.176V110.414H413.004ZM398.922 103.059H408.137V130.348C408.137 131.132 408.228 131.742 408.41 132.18C408.592 132.599 408.902 132.9 409.34 133.082C409.796 133.246 410.397 133.328 411.145 133.328C411.673 133.328 412.111 133.319 412.457 133.301C412.803 133.264 413.132 133.219 413.441 133.164V139.754C412.658 140.009 411.837 140.201 410.98 140.328C410.124 140.474 409.212 140.547 408.246 140.547C406.277 140.547 404.591 140.237 403.188 139.617C401.802 138.997 400.745 138.022 400.016 136.691C399.286 135.361 398.922 133.629 398.922 131.496V103.059ZM430.996 140.547C428.59 140.547 426.439 140.173 424.543 139.426C422.647 138.66 421.043 137.612 419.73 136.281C418.436 134.951 417.443 133.419 416.75 131.688C416.076 129.956 415.738 128.124 415.738 126.191V125.152C415.738 122.983 416.039 120.978 416.641 119.137C417.242 117.277 418.135 115.655 419.32 114.27C420.505 112.884 421.991 111.809 423.777 111.043C425.564 110.259 427.642 109.867 430.012 109.867C432.108 109.867 433.986 110.204 435.645 110.879C437.303 111.553 438.707 112.52 439.855 113.777C441.022 115.035 441.906 116.557 442.508 118.344C443.128 120.13 443.438 122.135 443.438 124.359V128.105H419.266V122.336H434.441V121.625C434.46 120.641 434.286 119.802 433.922 119.109C433.576 118.417 433.065 117.888 432.391 117.523C431.716 117.159 430.896 116.977 429.93 116.977C428.927 116.977 428.098 117.195 427.441 117.633C426.803 118.07 426.302 118.672 425.938 119.438C425.591 120.185 425.345 121.051 425.199 122.035C425.053 123.02 424.98 124.059 424.98 125.152V126.191C424.98 127.285 425.126 128.279 425.418 129.172C425.728 130.065 426.165 130.831 426.73 131.469C427.314 132.089 428.007 132.572 428.809 132.918C429.629 133.264 430.559 133.438 431.598 133.438C432.855 133.438 434.095 133.201 435.316 132.727C436.538 132.253 437.586 131.469 438.461 130.375L442.645 135.352C442.043 136.208 441.186 137.038 440.074 137.84C438.98 138.642 437.668 139.298 436.137 139.809C434.605 140.301 432.892 140.547 430.996 140.547ZM456.48 117.742V140H447.266V110.414H455.879L456.48 117.742ZM465.23 110.195L465.066 118.754C464.702 118.717 464.21 118.672 463.59 118.617C462.97 118.562 462.451 118.535 462.031 118.535C460.956 118.535 460.026 118.663 459.242 118.918C458.477 119.155 457.839 119.52 457.328 120.012C456.836 120.486 456.471 121.087 456.234 121.816C456.016 122.546 455.915 123.393 455.934 124.359L454.266 123.266C454.266 121.279 454.457 119.474 454.84 117.852C455.241 116.211 455.806 114.798 456.535 113.613C457.264 112.41 458.148 111.49 459.188 110.852C460.227 110.195 461.393 109.867 462.688 109.867C463.143 109.867 463.59 109.895 464.027 109.949C464.483 110.004 464.884 110.086 465.23 110.195Z" fill="black"/>
<rect x="93" y="178" width="917" height="77" rx="10" fill="#D3D3D3"/>
<rect x="111" y="196" width="117" height="41" rx="3" fill="#424242"/>
<rect x="111" y="196" width="117" height="41" rx="3" stroke="#424242" stroke-width="4"/>
<path d="M134.203 210.203H139.239C140.224 210.203 141.079 210.35 141.806 210.643C142.532 210.936 143.092 211.369 143.484 211.943C143.883 212.518 144.082 213.227 144.082 214.07C144.082 214.803 143.968 215.415 143.739 215.907C143.511 216.399 143.191 216.807 142.781 217.129C142.377 217.445 141.905 217.706 141.366 217.911L140.355 218.482H136.128L136.11 216.101H139.239C139.632 216.101 139.957 216.03 140.215 215.89C140.473 215.749 140.666 215.55 140.795 215.292C140.93 215.028 140.997 214.715 140.997 214.352C140.997 213.982 140.93 213.666 140.795 213.402C140.66 213.139 140.461 212.937 140.197 212.796C139.939 212.655 139.62 212.585 139.239 212.585H137.288V223H134.203V210.203ZM141.208 223L138.378 217.34L141.647 217.322L144.513 222.868V223H141.208ZM150.41 223.176C149.637 223.176 148.945 223.056 148.336 222.815C147.727 222.569 147.211 222.232 146.789 221.805C146.373 221.377 146.054 220.885 145.831 220.328C145.614 219.771 145.506 219.183 145.506 218.562V218.228C145.506 217.53 145.603 216.886 145.796 216.294C145.989 215.696 146.276 215.175 146.657 214.729C147.038 214.284 147.516 213.938 148.09 213.692C148.664 213.44 149.332 213.314 150.094 213.314C150.768 213.314 151.371 213.423 151.904 213.64C152.438 213.856 152.889 214.167 153.258 214.571C153.633 214.976 153.917 215.465 154.11 216.039C154.31 216.613 154.409 217.258 154.409 217.973V219.177H146.64V217.322H151.518V217.094C151.523 216.777 151.468 216.508 151.351 216.285C151.239 216.062 151.075 215.893 150.858 215.775C150.642 215.658 150.378 215.6 150.067 215.6C149.745 215.6 149.479 215.67 149.268 215.811C149.062 215.951 148.901 216.145 148.784 216.391C148.673 216.631 148.594 216.909 148.547 217.226C148.5 217.542 148.477 217.876 148.477 218.228V218.562C148.477 218.913 148.523 219.232 148.617 219.52C148.717 219.807 148.857 220.053 149.039 220.258C149.227 220.457 149.449 220.612 149.707 220.724C149.971 220.835 150.27 220.891 150.604 220.891C151.008 220.891 151.406 220.814 151.799 220.662C152.191 220.51 152.528 220.258 152.81 219.906L154.154 221.506C153.961 221.781 153.686 222.048 153.328 222.306C152.977 222.563 152.555 222.774 152.062 222.938C151.57 223.097 151.02 223.176 150.41 223.176ZM160.553 220.609V216.689C160.553 216.42 160.515 216.188 160.438 215.995C160.362 215.802 160.242 215.652 160.078 215.547C159.914 215.436 159.694 215.38 159.419 215.38C159.196 215.38 159.006 215.418 158.848 215.494C158.689 215.57 158.569 215.685 158.487 215.837C158.405 215.989 158.364 216.183 158.364 216.417H155.402C155.402 215.978 155.499 215.57 155.692 215.195C155.892 214.814 156.173 214.483 156.536 214.202C156.905 213.921 157.345 213.704 157.854 213.552C158.37 213.394 158.944 213.314 159.577 213.314C160.333 213.314 161.007 213.44 161.599 213.692C162.196 213.944 162.668 214.322 163.014 214.826C163.359 215.324 163.532 215.951 163.532 216.707V220.601C163.532 221.222 163.567 221.693 163.638 222.016C163.708 222.332 163.808 222.61 163.937 222.851V223H160.966C160.825 222.707 160.72 222.35 160.649 221.928C160.585 221.5 160.553 221.061 160.553 220.609ZM160.913 217.19L160.931 218.772H159.621C159.346 218.772 159.111 218.811 158.918 218.887C158.73 218.963 158.578 219.068 158.461 219.203C158.35 219.332 158.268 219.479 158.215 219.643C158.168 219.807 158.145 219.979 158.145 220.161C158.145 220.337 158.186 220.495 158.268 220.636C158.355 220.771 158.473 220.876 158.619 220.952C158.766 221.028 158.93 221.066 159.111 221.066C159.439 221.066 159.718 221.005 159.946 220.882C160.181 220.753 160.359 220.598 160.482 220.416C160.605 220.234 160.667 220.064 160.667 219.906L161.317 221.119C161.2 221.354 161.065 221.591 160.913 221.831C160.767 222.071 160.582 222.294 160.359 222.499C160.143 222.698 159.876 222.862 159.56 222.991C159.243 223.114 158.859 223.176 158.408 223.176C157.822 223.176 157.283 223.056 156.791 222.815C156.305 222.575 155.915 222.241 155.622 221.813C155.329 221.38 155.183 220.882 155.183 220.319C155.183 219.827 155.271 219.388 155.446 219.001C155.628 218.614 155.9 218.286 156.264 218.017C156.627 217.747 157.09 217.542 157.652 217.401C158.215 217.261 158.877 217.19 159.639 217.19H160.913ZM169.192 220.891C169.468 220.891 169.702 220.841 169.896 220.741C170.095 220.636 170.244 220.489 170.344 220.302C170.449 220.108 170.499 219.877 170.493 219.607H173.279C173.285 220.322 173.109 220.949 172.752 221.488C172.4 222.021 171.92 222.438 171.311 222.736C170.707 223.029 170.024 223.176 169.263 223.176C168.519 223.176 167.868 223.056 167.312 222.815C166.755 222.569 166.289 222.229 165.914 221.796C165.545 221.356 165.267 220.844 165.079 220.258C164.897 219.672 164.807 219.036 164.807 218.351V218.148C164.807 217.463 164.897 216.827 165.079 216.241C165.267 215.649 165.545 215.137 165.914 214.703C166.289 214.264 166.752 213.924 167.303 213.684C167.859 213.438 168.507 213.314 169.245 213.314C170.036 213.314 170.733 213.464 171.337 213.763C171.946 214.062 172.424 214.495 172.77 215.063C173.115 215.632 173.285 216.32 173.279 217.129H170.493C170.499 216.842 170.455 216.584 170.361 216.355C170.268 216.127 170.121 215.945 169.922 215.811C169.729 215.67 169.479 215.6 169.175 215.6C168.87 215.6 168.624 215.667 168.437 215.802C168.249 215.937 168.105 216.124 168.006 216.364C167.912 216.599 167.848 216.868 167.812 217.173C167.783 217.478 167.769 217.803 167.769 218.148V218.351C167.769 218.702 167.783 219.033 167.812 219.344C167.848 219.648 167.915 219.918 168.015 220.152C168.114 220.381 168.258 220.562 168.445 220.697C168.633 220.826 168.882 220.891 169.192 220.891ZM179.555 213.49V215.547H173.824V213.49H179.555ZM175.028 211.126H177.99V219.897C177.99 220.149 178.02 220.346 178.078 220.486C178.137 220.621 178.236 220.718 178.377 220.776C178.523 220.829 178.717 220.855 178.957 220.855C179.127 220.855 179.268 220.853 179.379 220.847C179.49 220.835 179.596 220.82 179.695 220.803V222.921C179.443 223.003 179.18 223.064 178.904 223.105C178.629 223.152 178.336 223.176 178.025 223.176C177.393 223.176 176.851 223.076 176.399 222.877C175.954 222.678 175.614 222.364 175.38 221.937C175.146 221.509 175.028 220.952 175.028 220.267V211.126ZM190.444 218.983V210.203H193.521V218.983C193.521 219.839 193.324 220.58 192.932 221.207C192.545 221.834 192.018 222.32 191.35 222.666C190.688 223.006 189.943 223.176 189.117 223.176C188.262 223.176 187.5 223.032 186.832 222.745C186.17 222.458 185.648 222.016 185.268 221.418C184.893 220.82 184.705 220.059 184.705 219.133H187.799C187.799 219.566 187.849 219.906 187.948 220.152C188.048 220.393 188.194 220.562 188.388 220.662C188.587 220.756 188.83 220.803 189.117 220.803C189.398 220.803 189.636 220.732 189.829 220.592C190.028 220.445 190.181 220.237 190.286 219.968C190.392 219.692 190.444 219.364 190.444 218.983ZM202.072 219.599C202.072 219.399 202.043 219.221 201.984 219.062C201.926 218.898 201.817 218.746 201.659 218.605C201.501 218.465 201.272 218.324 200.974 218.184C200.681 218.037 200.294 217.885 199.813 217.727C199.251 217.539 198.709 217.328 198.188 217.094C197.666 216.854 197.2 216.575 196.79 216.259C196.38 215.937 196.055 215.562 195.814 215.134C195.574 214.7 195.454 214.196 195.454 213.622C195.454 213.071 195.577 212.576 195.823 212.137C196.069 211.691 196.412 211.313 196.852 211.003C197.297 210.687 197.818 210.446 198.416 210.282C199.014 210.112 199.667 210.027 200.376 210.027C201.313 210.027 202.14 210.191 202.854 210.52C203.575 210.842 204.138 211.302 204.542 211.899C204.952 212.491 205.157 213.191 205.157 214H202.09C202.09 213.678 202.022 213.394 201.888 213.147C201.759 212.901 201.562 212.708 201.299 212.567C201.035 212.427 200.704 212.356 200.306 212.356C199.919 212.356 199.594 212.415 199.33 212.532C199.066 212.649 198.867 212.808 198.732 213.007C198.598 213.2 198.53 213.414 198.53 213.648C198.53 213.842 198.583 214.018 198.688 214.176C198.8 214.328 198.955 214.472 199.154 214.606C199.359 214.741 199.605 214.87 199.893 214.993C200.186 215.116 200.514 215.236 200.877 215.354C201.557 215.57 202.16 215.813 202.688 216.083C203.221 216.347 203.669 216.648 204.032 216.988C204.401 217.322 204.68 217.703 204.867 218.131C205.061 218.559 205.157 219.042 205.157 219.581C205.157 220.155 205.046 220.665 204.823 221.11C204.601 221.556 204.281 221.934 203.865 222.244C203.449 222.549 202.951 222.78 202.371 222.938C201.791 223.097 201.144 223.176 200.429 223.176C199.772 223.176 199.125 223.094 198.486 222.93C197.854 222.76 197.279 222.502 196.764 222.156C196.248 221.805 195.835 221.356 195.524 220.812C195.22 220.261 195.067 219.607 195.067 218.852H198.161C198.161 219.227 198.211 219.543 198.311 219.801C198.41 220.059 198.557 220.267 198.75 220.425C198.943 220.577 199.181 220.688 199.462 220.759C199.743 220.823 200.065 220.855 200.429 220.855C200.821 220.855 201.138 220.8 201.378 220.688C201.618 220.571 201.794 220.419 201.905 220.231C202.017 220.038 202.072 219.827 202.072 219.599Z" fill="white"/>
<rect x="248" y="196" width="104" height="41" rx="3" fill="#424242"/>
<rect x="248" y="196" width="104" height="41" rx="3" stroke="#424242" stroke-width="4"/>
<path d="M279.812 220.627V223H273.343V220.627H279.812ZM274.441 210.203V223H271.356V210.203H274.441ZM285.911 220.609V216.689C285.911 216.42 285.873 216.188 285.797 215.995C285.721 215.802 285.601 215.652 285.437 215.547C285.272 215.436 285.053 215.38 284.777 215.38C284.555 215.38 284.364 215.418 284.206 215.494C284.048 215.57 283.928 215.685 283.846 215.837C283.764 215.989 283.723 216.183 283.723 216.417H280.761C280.761 215.978 280.857 215.57 281.051 215.195C281.25 214.814 281.531 214.483 281.895 214.202C282.264 213.921 282.703 213.704 283.213 213.552C283.729 213.394 284.303 213.314 284.936 213.314C285.691 213.314 286.365 213.44 286.957 213.692C287.555 213.944 288.026 214.322 288.372 214.826C288.718 215.324 288.891 215.951 288.891 216.707V220.601C288.891 221.222 288.926 221.693 288.996 222.016C289.066 222.332 289.166 222.61 289.295 222.851V223H286.324C286.184 222.707 286.078 222.35 286.008 221.928C285.943 221.5 285.911 221.061 285.911 220.609ZM286.271 217.19L286.289 218.772H284.979C284.704 218.772 284.47 218.811 284.276 218.887C284.089 218.963 283.937 219.068 283.819 219.203C283.708 219.332 283.626 219.479 283.573 219.643C283.526 219.807 283.503 219.979 283.503 220.161C283.503 220.337 283.544 220.495 283.626 220.636C283.714 220.771 283.831 220.876 283.978 220.952C284.124 221.028 284.288 221.066 284.47 221.066C284.798 221.066 285.076 221.005 285.305 220.882C285.539 220.753 285.718 220.598 285.841 220.416C285.964 220.234 286.025 220.064 286.025 219.906L286.676 221.119C286.559 221.354 286.424 221.591 286.271 221.831C286.125 222.071 285.94 222.294 285.718 222.499C285.501 222.698 285.234 222.862 284.918 222.991C284.602 223.114 284.218 223.176 283.767 223.176C283.181 223.176 282.642 223.056 282.149 222.815C281.663 222.575 281.273 222.241 280.98 221.813C280.688 221.38 280.541 220.882 280.541 220.319C280.541 219.827 280.629 219.388 280.805 219.001C280.986 218.614 281.259 218.286 281.622 218.017C281.985 217.747 282.448 217.542 283.011 217.401C283.573 217.261 284.235 217.19 284.997 217.19H286.271ZM293.522 215.846V223H290.561V213.49H293.329L293.522 215.846ZM296.335 213.42L296.282 216.171C296.165 216.159 296.007 216.145 295.808 216.127C295.608 216.109 295.441 216.101 295.307 216.101C294.961 216.101 294.662 216.142 294.41 216.224C294.164 216.3 293.959 216.417 293.795 216.575C293.637 216.728 293.52 216.921 293.443 217.155C293.373 217.39 293.341 217.662 293.347 217.973L292.811 217.621C292.811 216.982 292.872 216.402 292.995 215.881C293.124 215.354 293.306 214.899 293.54 214.519C293.774 214.132 294.059 213.836 294.393 213.631C294.727 213.42 295.102 213.314 295.518 213.314C295.664 213.314 295.808 213.323 295.948 213.341C296.095 213.358 296.224 213.385 296.335 213.42ZM302.03 220.609V216.689C302.03 216.42 301.992 216.188 301.916 215.995C301.84 215.802 301.72 215.652 301.556 215.547C301.392 215.436 301.172 215.38 300.896 215.38C300.674 215.38 300.483 215.418 300.325 215.494C300.167 215.57 300.047 215.685 299.965 215.837C299.883 215.989 299.842 216.183 299.842 216.417H296.88C296.88 215.978 296.977 215.57 297.17 215.195C297.369 214.814 297.65 214.483 298.014 214.202C298.383 213.921 298.822 213.704 299.332 213.552C299.848 213.394 300.422 213.314 301.055 213.314C301.811 213.314 302.484 213.44 303.076 213.692C303.674 213.944 304.146 214.322 304.491 214.826C304.837 215.324 305.01 215.951 305.01 216.707V220.601C305.01 221.222 305.045 221.693 305.115 222.016C305.186 222.332 305.285 222.61 305.414 222.851V223H302.443C302.303 222.707 302.197 222.35 302.127 221.928C302.062 221.5 302.03 221.061 302.03 220.609ZM302.391 217.19L302.408 218.772H301.099C300.823 218.772 300.589 218.811 300.396 218.887C300.208 218.963 300.056 219.068 299.938 219.203C299.827 219.332 299.745 219.479 299.692 219.643C299.646 219.807 299.622 219.979 299.622 220.161C299.622 220.337 299.663 220.495 299.745 220.636C299.833 220.771 299.95 220.876 300.097 220.952C300.243 221.028 300.407 221.066 300.589 221.066C300.917 221.066 301.195 221.005 301.424 220.882C301.658 220.753 301.837 220.598 301.96 220.416C302.083 220.234 302.145 220.064 302.145 219.906L302.795 221.119C302.678 221.354 302.543 221.591 302.391 221.831C302.244 222.071 302.06 222.294 301.837 222.499C301.62 222.698 301.354 222.862 301.037 222.991C300.721 223.114 300.337 223.176 299.886 223.176C299.3 223.176 298.761 223.056 298.269 222.815C297.782 222.575 297.393 222.241 297.1 221.813C296.807 221.38 296.66 220.882 296.66 220.319C296.66 219.827 296.748 219.388 296.924 219.001C297.105 218.614 297.378 218.286 297.741 218.017C298.104 217.747 298.567 217.542 299.13 217.401C299.692 217.261 300.354 217.19 301.116 217.19H302.391ZM309.94 220.97L311.812 213.49H314.933L311.821 223H309.976L309.94 220.97ZM308.833 213.49L310.679 220.97L310.661 223H308.807L305.704 213.49H308.833ZM320.294 223.176C319.521 223.176 318.829 223.056 318.22 222.815C317.61 222.569 317.095 222.232 316.673 221.805C316.257 221.377 315.938 220.885 315.715 220.328C315.498 219.771 315.39 219.183 315.39 218.562V218.228C315.39 217.53 315.486 216.886 315.68 216.294C315.873 215.696 316.16 215.175 316.541 214.729C316.922 214.284 317.399 213.938 317.974 213.692C318.548 213.44 319.216 213.314 319.978 213.314C320.651 213.314 321.255 213.423 321.788 213.64C322.321 213.856 322.772 214.167 323.142 214.571C323.517 214.976 323.801 215.465 323.994 216.039C324.193 216.613 324.293 217.258 324.293 217.973V219.177H316.523V217.322H321.401V217.094C321.407 216.777 321.352 216.508 321.234 216.285C321.123 216.062 320.959 215.893 320.742 215.775C320.525 215.658 320.262 215.6 319.951 215.6C319.629 215.6 319.362 215.67 319.151 215.811C318.946 215.951 318.785 216.145 318.668 216.391C318.557 216.631 318.478 216.909 318.431 217.226C318.384 217.542 318.36 217.876 318.36 218.228V218.562C318.36 218.913 318.407 219.232 318.501 219.52C318.601 219.807 318.741 220.053 318.923 220.258C319.11 220.457 319.333 220.612 319.591 220.724C319.854 220.835 320.153 220.891 320.487 220.891C320.892 220.891 321.29 220.814 321.683 220.662C322.075 220.51 322.412 220.258 322.693 219.906L324.038 221.506C323.845 221.781 323.569 222.048 323.212 222.306C322.86 222.563 322.438 222.774 321.946 222.938C321.454 223.097 320.903 223.176 320.294 223.176ZM328.626 209.5V223H325.655V209.5H328.626Z" fill="white"/>
<rect x="372" y="196" width="113" height="41" rx="3" fill="#424242"/>
<rect x="372" y="196" width="113" height="41" rx="3" stroke="#424242" stroke-width="4"/>
<path d="M405.877 210.203V223H402.801L398.274 215.037V223H395.189V210.203H398.274L402.801 218.166V210.203H405.877ZM407.318 218.342V218.157C407.318 217.46 407.418 216.818 407.617 216.232C407.816 215.641 408.109 215.128 408.496 214.694C408.883 214.261 409.36 213.924 409.929 213.684C410.497 213.438 411.153 213.314 411.897 213.314C412.647 213.314 413.307 213.438 413.875 213.684C414.449 213.924 414.93 214.261 415.316 214.694C415.703 215.128 415.996 215.641 416.195 216.232C416.395 216.818 416.494 217.46 416.494 218.157V218.342C416.494 219.033 416.395 219.675 416.195 220.267C415.996 220.853 415.703 221.365 415.316 221.805C414.93 222.238 414.452 222.575 413.884 222.815C413.315 223.056 412.659 223.176 411.915 223.176C411.171 223.176 410.512 223.056 409.938 222.815C409.363 222.575 408.883 222.238 408.496 221.805C408.109 221.365 407.816 220.853 407.617 220.267C407.418 219.675 407.318 219.033 407.318 218.342ZM410.28 218.157V218.342C410.28 218.699 410.307 219.033 410.359 219.344C410.412 219.654 410.5 219.927 410.623 220.161C410.746 220.39 410.913 220.568 411.124 220.697C411.335 220.826 411.599 220.891 411.915 220.891C412.226 220.891 412.483 220.826 412.688 220.697C412.899 220.568 413.066 220.39 413.189 220.161C413.312 219.927 413.4 219.654 413.453 219.344C413.506 219.033 413.532 218.699 413.532 218.342V218.157C413.532 217.812 413.506 217.486 413.453 217.182C413.4 216.871 413.312 216.599 413.189 216.364C413.066 216.124 412.899 215.937 412.688 215.802C412.478 215.667 412.214 215.6 411.897 215.6C411.587 215.6 411.326 215.667 411.115 215.802C410.91 215.937 410.746 216.124 410.623 216.364C410.5 216.599 410.412 216.871 410.359 217.182C410.307 217.486 410.28 217.812 410.28 218.157ZM423.279 220.82V209.5H426.259V223H423.587L423.279 220.82ZM417.443 218.359V218.175C417.443 217.454 417.522 216.798 417.681 216.206C417.839 215.608 418.073 215.096 418.384 214.668C418.694 214.234 419.081 213.9 419.544 213.666C420.007 213.432 420.54 213.314 421.144 213.314C421.683 213.314 422.154 213.44 422.559 213.692C422.963 213.938 423.309 214.284 423.596 214.729C423.883 215.175 424.117 215.696 424.299 216.294C424.48 216.886 424.618 217.524 424.712 218.21V218.43C424.618 219.074 424.48 219.684 424.299 220.258C424.117 220.826 423.883 221.33 423.596 221.77C423.309 222.209 422.96 222.555 422.55 222.807C422.146 223.053 421.671 223.176 421.126 223.176C420.522 223.176 419.989 223.056 419.526 222.815C419.069 222.575 418.686 222.238 418.375 221.805C418.07 221.371 417.839 220.861 417.681 220.275C417.522 219.689 417.443 219.051 417.443 218.359ZM420.405 218.175V218.359C420.405 218.717 420.429 219.048 420.476 219.353C420.522 219.657 420.602 219.927 420.713 220.161C420.83 220.39 420.982 220.568 421.17 220.697C421.363 220.826 421.601 220.891 421.882 220.891C422.263 220.891 422.576 220.8 422.822 220.618C423.074 220.437 423.259 220.179 423.376 219.845C423.499 219.511 423.552 219.118 423.534 218.667V217.973C423.546 217.586 423.52 217.246 423.455 216.953C423.391 216.654 423.288 216.405 423.147 216.206C423.013 216.007 422.84 215.857 422.629 215.758C422.424 215.652 422.181 215.6 421.899 215.6C421.624 215.6 421.39 215.664 421.196 215.793C421.009 215.922 420.856 216.104 420.739 216.338C420.622 216.566 420.537 216.839 420.484 217.155C420.432 217.466 420.405 217.806 420.405 218.175ZM432.543 223.176C431.77 223.176 431.078 223.056 430.469 222.815C429.859 222.569 429.344 222.232 428.922 221.805C428.506 221.377 428.187 220.885 427.964 220.328C427.747 219.771 427.639 219.183 427.639 218.562V218.228C427.639 217.53 427.735 216.886 427.929 216.294C428.122 215.696 428.409 215.175 428.79 214.729C429.171 214.284 429.648 213.938 430.223 213.692C430.797 213.44 431.465 213.314 432.227 213.314C432.9 213.314 433.504 213.423 434.037 213.64C434.57 213.856 435.021 214.167 435.391 214.571C435.766 214.976 436.05 215.465 436.243 216.039C436.442 216.613 436.542 217.258 436.542 217.973V219.177H428.772V217.322H433.65V217.094C433.656 216.777 433.601 216.508 433.483 216.285C433.372 216.062 433.208 215.893 432.991 215.775C432.774 215.658 432.511 215.6 432.2 215.6C431.878 215.6 431.611 215.67 431.4 215.811C431.195 215.951 431.034 216.145 430.917 216.391C430.806 216.631 430.727 216.909 430.68 217.226C430.633 217.542 430.609 217.876 430.609 218.228V218.562C430.609 218.913 430.656 219.232 430.75 219.52C430.85 219.807 430.99 220.053 431.172 220.258C431.359 220.457 431.582 220.612 431.84 220.724C432.104 220.835 432.402 220.891 432.736 220.891C433.141 220.891 433.539 220.814 433.932 220.662C434.324 220.51 434.661 220.258 434.942 219.906L436.287 221.506C436.094 221.781 435.818 222.048 435.461 222.306C435.109 222.563 434.688 222.774 434.195 222.938C433.703 223.097 433.152 223.176 432.543 223.176ZM447.458 218.983V210.203H450.534V218.983C450.534 219.839 450.338 220.58 449.945 221.207C449.559 221.834 449.031 222.32 448.363 222.666C447.701 223.006 446.957 223.176 446.131 223.176C445.275 223.176 444.514 223.032 443.846 222.745C443.184 222.458 442.662 222.016 442.281 221.418C441.906 220.82 441.719 220.059 441.719 219.133H444.812C444.812 219.566 444.862 219.906 444.962 220.152C445.062 220.393 445.208 220.562 445.401 220.662C445.601 220.756 445.844 220.803 446.131 220.803C446.412 220.803 446.649 220.732 446.843 220.592C447.042 220.445 447.194 220.237 447.3 219.968C447.405 219.692 447.458 219.364 447.458 218.983ZM459.086 219.599C459.086 219.399 459.057 219.221 458.998 219.062C458.939 218.898 458.831 218.746 458.673 218.605C458.515 218.465 458.286 218.324 457.987 218.184C457.694 218.037 457.308 217.885 456.827 217.727C456.265 217.539 455.723 217.328 455.201 217.094C454.68 216.854 454.214 216.575 453.804 216.259C453.394 215.937 453.068 215.562 452.828 215.134C452.588 214.7 452.468 214.196 452.468 213.622C452.468 213.071 452.591 212.576 452.837 212.137C453.083 211.691 453.426 211.313 453.865 211.003C454.311 210.687 454.832 210.446 455.43 210.282C456.027 210.112 456.681 210.027 457.39 210.027C458.327 210.027 459.153 210.191 459.868 210.52C460.589 210.842 461.151 211.302 461.556 211.899C461.966 212.491 462.171 213.191 462.171 214H459.104C459.104 213.678 459.036 213.394 458.901 213.147C458.772 212.901 458.576 212.708 458.312 212.567C458.049 212.427 457.718 212.356 457.319 212.356C456.933 212.356 456.607 212.415 456.344 212.532C456.08 212.649 455.881 212.808 455.746 213.007C455.611 213.2 455.544 213.414 455.544 213.648C455.544 213.842 455.597 214.018 455.702 214.176C455.813 214.328 455.969 214.472 456.168 214.606C456.373 214.741 456.619 214.87 456.906 214.993C457.199 215.116 457.527 215.236 457.891 215.354C458.57 215.57 459.174 215.813 459.701 216.083C460.234 216.347 460.683 216.648 461.046 216.988C461.415 217.322 461.693 217.703 461.881 218.131C462.074 218.559 462.171 219.042 462.171 219.581C462.171 220.155 462.06 220.665 461.837 221.11C461.614 221.556 461.295 221.934 460.879 222.244C460.463 222.549 459.965 222.78 459.385 222.938C458.805 223.097 458.157 223.176 457.442 223.176C456.786 223.176 456.139 223.094 455.5 222.93C454.867 222.76 454.293 222.502 453.777 222.156C453.262 221.805 452.849 221.356 452.538 220.812C452.233 220.261 452.081 219.607 452.081 218.852H455.175C455.175 219.227 455.225 219.543 455.324 219.801C455.424 220.059 455.57 220.267 455.764 220.425C455.957 220.577 456.194 220.688 456.476 220.759C456.757 220.823 457.079 220.855 457.442 220.855C457.835 220.855 458.151 220.8 458.392 220.688C458.632 220.571 458.808 220.419 458.919 220.231C459.03 220.038 459.086 219.827 459.086 219.599Z" fill="white"/>
<rect x="505" y="196" width="81" height="41" rx="3" fill="#424242"/>
<rect x="505" y="196" width="81" height="41" rx="3" stroke="#424242" stroke-width="4"/>
<path d="M533.529 218.658H530.348V216.276H533.529C533.963 216.276 534.314 216.203 534.584 216.057C534.854 215.91 535.05 215.708 535.173 215.45C535.302 215.187 535.366 214.891 535.366 214.562C535.366 214.211 535.302 213.886 535.173 213.587C535.05 213.288 534.854 213.048 534.584 212.866C534.314 212.679 533.963 212.585 533.529 212.585H531.508V223H528.423V210.203H533.529C534.555 210.203 535.437 210.391 536.175 210.766C536.919 211.141 537.49 211.656 537.889 212.312C538.287 212.963 538.486 213.707 538.486 214.545C538.486 215.371 538.287 216.092 537.889 216.707C537.49 217.322 536.919 217.803 536.175 218.148C535.437 218.488 534.555 218.658 533.529 218.658ZM548.77 215.283V217.656H542.204V215.283H548.77ZM543.232 210.203V223H540.147V210.203H543.232ZM550.844 210.203V223H547.768V210.203H550.844ZM557.91 218.658H554.729V216.276H557.91C558.344 216.276 558.695 216.203 558.965 216.057C559.234 215.91 559.431 215.708 559.554 215.45C559.683 215.187 559.747 214.891 559.747 214.562C559.747 214.211 559.683 213.886 559.554 213.587C559.431 213.288 559.234 213.048 558.965 212.866C558.695 212.679 558.344 212.585 557.91 212.585H555.889V223H552.804V210.203H557.91C558.936 210.203 559.817 210.391 560.556 210.766C561.3 211.141 561.871 211.656 562.27 212.312C562.668 212.963 562.867 213.707 562.867 214.545C562.867 215.371 562.668 216.092 562.27 216.707C561.871 217.322 561.3 217.803 560.556 218.148C559.817 218.488 558.936 218.658 557.91 218.658Z" fill="white"/>
<rect x="606" y="196" width="131" height="41" rx="3" fill="#424242"/>
<rect x="606" y="196" width="131" height="41" rx="3" stroke="#424242" stroke-width="4"/>
<path d="M635.359 210.203V223H632.274V210.203H635.359ZM639.209 210.203V212.585H628.513V210.203H639.209ZM642.575 221.884L645.036 213.49H648.218L644.395 224.415C644.312 224.655 644.204 224.913 644.069 225.188C643.935 225.47 643.75 225.736 643.516 225.988C643.281 226.24 642.979 226.445 642.61 226.604C642.247 226.762 641.796 226.841 641.257 226.841C640.97 226.841 640.759 226.826 640.624 226.797C640.495 226.773 640.296 226.729 640.026 226.665V224.547C640.103 224.547 640.167 224.547 640.22 224.547C640.278 224.547 640.343 224.547 640.413 224.547C640.729 224.547 640.981 224.515 641.169 224.45C641.362 224.386 641.509 224.292 641.608 224.169C641.714 224.046 641.796 223.896 641.854 223.721L642.575 221.884ZM641.951 213.49L643.823 220.144L644.148 223.281H642.162L638.778 213.49H641.951ZM651.979 215.318V226.656H649.018V213.49H651.777L651.979 215.318ZM657.815 218.131V218.315C657.815 219.007 657.736 219.648 657.578 220.24C657.42 220.832 657.186 221.348 656.875 221.787C656.564 222.227 656.178 222.569 655.715 222.815C655.258 223.056 654.728 223.176 654.124 223.176C653.556 223.176 653.066 223.05 652.656 222.798C652.246 222.546 651.903 222.197 651.628 221.752C651.353 221.307 651.13 220.797 650.96 220.223C650.79 219.648 650.655 219.042 650.556 218.403V218.166C650.655 217.48 650.79 216.845 650.96 216.259C651.13 215.667 651.353 215.151 651.628 214.712C651.903 214.272 652.243 213.93 652.647 213.684C653.058 213.438 653.547 213.314 654.115 213.314C654.719 213.314 655.249 213.429 655.706 213.657C656.169 213.886 656.556 214.214 656.866 214.642C657.183 215.063 657.42 215.57 657.578 216.162C657.736 216.754 657.815 217.41 657.815 218.131ZM654.854 218.315V218.131C654.854 217.762 654.827 217.425 654.774 217.12C654.722 216.81 654.637 216.54 654.52 216.312C654.408 216.083 654.259 215.907 654.071 215.784C653.884 215.661 653.652 215.6 653.377 215.6C653.061 215.6 652.794 215.649 652.577 215.749C652.366 215.843 652.196 215.989 652.067 216.188C651.944 216.382 651.856 216.625 651.804 216.918C651.757 217.205 651.736 217.542 651.742 217.929V218.649C651.73 219.095 651.774 219.487 651.874 219.827C651.974 220.161 652.146 220.422 652.393 220.609C652.639 220.797 652.973 220.891 653.395 220.891C653.676 220.891 653.91 220.826 654.098 220.697C654.285 220.562 654.435 220.378 654.546 220.144C654.657 219.903 654.736 219.628 654.783 219.317C654.83 219.007 654.854 218.673 654.854 218.315ZM663.739 223.176C662.966 223.176 662.274 223.056 661.665 222.815C661.056 222.569 660.54 222.232 660.118 221.805C659.702 221.377 659.383 220.885 659.16 220.328C658.943 219.771 658.835 219.183 658.835 218.562V218.228C658.835 217.53 658.932 216.886 659.125 216.294C659.318 215.696 659.605 215.175 659.986 214.729C660.367 214.284 660.845 213.938 661.419 213.692C661.993 213.44 662.661 213.314 663.423 213.314C664.097 213.314 664.7 213.423 665.233 213.64C665.767 213.856 666.218 214.167 666.587 214.571C666.962 214.976 667.246 215.465 667.439 216.039C667.639 216.613 667.738 217.258 667.738 217.973V219.177H659.969V217.322H664.847V217.094C664.853 216.777 664.797 216.508 664.68 216.285C664.568 216.062 664.404 215.893 664.188 215.775C663.971 215.658 663.707 215.6 663.396 215.6C663.074 215.6 662.808 215.67 662.597 215.811C662.392 215.951 662.23 216.145 662.113 216.391C662.002 216.631 661.923 216.909 661.876 217.226C661.829 217.542 661.806 217.876 661.806 218.228V218.562C661.806 218.913 661.853 219.232 661.946 219.52C662.046 219.807 662.187 220.053 662.368 220.258C662.556 220.457 662.778 220.612 663.036 220.724C663.3 220.835 663.599 220.891 663.933 220.891C664.337 220.891 664.735 220.814 665.128 220.662C665.521 220.51 665.857 220.258 666.139 219.906L667.483 221.506C667.29 221.781 667.015 222.048 666.657 222.306C666.306 222.563 665.884 222.774 665.392 222.938C664.899 223.097 664.349 223.176 663.739 223.176ZM673.926 220.328C673.926 220.164 673.87 220.023 673.759 219.906C673.653 219.783 673.466 219.672 673.196 219.572C672.927 219.467 672.549 219.361 672.062 219.256C671.6 219.156 671.163 219.024 670.753 218.86C670.349 218.696 669.994 218.497 669.689 218.263C669.385 218.028 669.145 217.75 668.969 217.428C668.799 217.105 668.714 216.736 668.714 216.32C668.714 215.916 668.799 215.535 668.969 215.178C669.145 214.814 669.399 214.495 669.733 214.22C670.073 213.938 670.486 213.719 670.973 213.561C671.459 213.396 672.013 213.314 672.634 213.314C673.489 213.314 674.228 213.446 674.849 213.71C675.47 213.968 675.947 214.331 676.281 214.8C676.621 215.263 676.791 215.799 676.791 216.408H673.829C673.829 216.168 673.788 215.963 673.706 215.793C673.63 215.623 673.504 215.494 673.328 215.406C673.152 215.312 672.918 215.266 672.625 215.266C672.42 215.266 672.232 215.304 672.062 215.38C671.898 215.456 671.767 215.562 671.667 215.696C671.567 215.831 671.518 215.989 671.518 216.171C671.518 216.3 671.547 216.417 671.605 216.522C671.67 216.622 671.767 216.716 671.896 216.804C672.024 216.886 672.188 216.962 672.388 217.032C672.587 217.097 672.827 217.155 673.108 217.208C673.747 217.325 674.345 217.492 674.901 217.709C675.458 217.926 675.909 218.233 676.255 218.632C676.606 219.03 676.782 219.566 676.782 220.24C676.782 220.662 676.686 221.052 676.492 221.409C676.299 221.761 676.021 222.071 675.657 222.341C675.294 222.604 674.857 222.81 674.348 222.956C673.838 223.103 673.264 223.176 672.625 223.176C671.717 223.176 670.949 223.015 670.322 222.692C669.695 222.364 669.221 221.954 668.898 221.462C668.582 220.964 668.424 220.46 668.424 219.95H671.184C671.195 220.243 671.266 220.483 671.395 220.671C671.529 220.858 671.708 220.996 671.931 221.084C672.153 221.172 672.411 221.216 672.704 221.216C672.974 221.216 673.196 221.178 673.372 221.102C673.554 221.025 673.691 220.923 673.785 220.794C673.879 220.659 673.926 220.504 673.926 220.328ZM682.188 220.891C682.463 220.891 682.697 220.841 682.891 220.741C683.09 220.636 683.239 220.489 683.339 220.302C683.444 220.108 683.494 219.877 683.488 219.607H686.274C686.28 220.322 686.104 220.949 685.747 221.488C685.396 222.021 684.915 222.438 684.306 222.736C683.702 223.029 683.02 223.176 682.258 223.176C681.514 223.176 680.863 223.056 680.307 222.815C679.75 222.569 679.284 222.229 678.909 221.796C678.54 221.356 678.262 220.844 678.074 220.258C677.893 219.672 677.802 219.036 677.802 218.351V218.148C677.802 217.463 677.893 216.827 678.074 216.241C678.262 215.649 678.54 215.137 678.909 214.703C679.284 214.264 679.747 213.924 680.298 213.684C680.854 213.438 681.502 213.314 682.24 213.314C683.031 213.314 683.729 213.464 684.332 213.763C684.941 214.062 685.419 214.495 685.765 215.063C686.11 215.632 686.28 216.32 686.274 217.129H683.488C683.494 216.842 683.45 216.584 683.356 216.355C683.263 216.127 683.116 215.945 682.917 215.811C682.724 215.67 682.475 215.6 682.17 215.6C681.865 215.6 681.619 215.667 681.432 215.802C681.244 215.937 681.101 216.124 681.001 216.364C680.907 216.599 680.843 216.868 680.808 217.173C680.778 217.478 680.764 217.803 680.764 218.148V218.351C680.764 218.702 680.778 219.033 680.808 219.344C680.843 219.648 680.91 219.918 681.01 220.152C681.109 220.381 681.253 220.562 681.44 220.697C681.628 220.826 681.877 220.891 682.188 220.891ZM690.528 215.846V223H687.566V213.49H690.335L690.528 215.846ZM693.341 213.42L693.288 216.171C693.171 216.159 693.013 216.145 692.813 216.127C692.614 216.109 692.447 216.101 692.312 216.101C691.967 216.101 691.668 216.142 691.416 216.224C691.17 216.3 690.965 216.417 690.801 216.575C690.643 216.728 690.525 216.921 690.449 217.155C690.379 217.39 690.347 217.662 690.353 217.973L689.816 217.621C689.816 216.982 689.878 216.402 690.001 215.881C690.13 215.354 690.312 214.899 690.546 214.519C690.78 214.132 691.064 213.836 691.398 213.631C691.732 213.42 692.107 213.314 692.523 213.314C692.67 213.314 692.813 213.323 692.954 213.341C693.101 213.358 693.229 213.385 693.341 213.42ZM697.489 213.49V223H694.519V213.49H697.489ZM694.343 211.038C694.343 210.616 694.495 210.271 694.8 210.001C695.104 209.731 695.5 209.597 695.986 209.597C696.473 209.597 696.868 209.731 697.173 210.001C697.478 210.271 697.63 210.616 697.63 211.038C697.63 211.46 697.478 211.806 697.173 212.075C696.868 212.345 696.473 212.479 695.986 212.479C695.5 212.479 695.104 212.345 694.8 212.075C694.495 211.806 694.343 211.46 694.343 211.038ZM702.306 215.318V226.656H699.344V213.49H702.104L702.306 215.318ZM708.142 218.131V218.315C708.142 219.007 708.062 219.648 707.904 220.24C707.746 220.832 707.512 221.348 707.201 221.787C706.891 222.227 706.504 222.569 706.041 222.815C705.584 223.056 705.054 223.176 704.45 223.176C703.882 223.176 703.393 223.05 702.982 222.798C702.572 222.546 702.229 222.197 701.954 221.752C701.679 221.307 701.456 220.797 701.286 220.223C701.116 219.648 700.981 219.042 700.882 218.403V218.166C700.981 217.48 701.116 216.845 701.286 216.259C701.456 215.667 701.679 215.151 701.954 214.712C702.229 214.272 702.569 213.93 702.974 213.684C703.384 213.438 703.873 213.314 704.441 213.314C705.045 213.314 705.575 213.429 706.032 213.657C706.495 213.886 706.882 214.214 707.192 214.642C707.509 215.063 707.746 215.57 707.904 216.162C708.062 216.754 708.142 217.41 708.142 218.131ZM705.18 218.315V218.131C705.18 217.762 705.153 217.425 705.101 217.12C705.048 216.81 704.963 216.54 704.846 216.312C704.734 216.083 704.585 215.907 704.397 215.784C704.21 215.661 703.979 215.6 703.703 215.6C703.387 215.6 703.12 215.649 702.903 215.749C702.692 215.843 702.522 215.989 702.394 216.188C702.271 216.382 702.183 216.625 702.13 216.918C702.083 217.205 702.062 217.542 702.068 217.929V218.649C702.057 219.095 702.101 219.487 702.2 219.827C702.3 220.161 702.473 220.422 702.719 220.609C702.965 220.797 703.299 220.891 703.721 220.891C704.002 220.891 704.236 220.826 704.424 220.697C704.611 220.562 704.761 220.378 704.872 220.144C704.983 219.903 705.062 219.628 705.109 219.317C705.156 219.007 705.18 218.673 705.18 218.315ZM714.47 213.49V215.547H708.739V213.49H714.47ZM709.943 211.126H712.905V219.897C712.905 220.149 712.935 220.346 712.993 220.486C713.052 220.621 713.151 220.718 713.292 220.776C713.438 220.829 713.632 220.855 713.872 220.855C714.042 220.855 714.183 220.853 714.294 220.847C714.405 220.835 714.511 220.82 714.61 220.803V222.921C714.358 223.003 714.095 223.064 713.819 223.105C713.544 223.152 713.251 223.176 712.94 223.176C712.308 223.176 711.766 223.076 711.314 222.877C710.869 222.678 710.529 222.364 710.295 221.937C710.061 221.509 709.943 220.952 709.943 220.267V211.126Z" fill="white"/>
<path d="M1066 0H1348C1356.28 0 1363 6.71573 1363 15V282C1363 290.284 1356.28 297 1348 297H1066V0Z" fill="white"/>
<g clip-path="url(#clip0_3_61)">
<path d="M1089.12 145.336L1215.06 85.9445L1341 147.283L1215.06 206.187L1089.12 145.336Z" fill="#1D1B27"/>
<path d="M1119.71 145.822L1197.52 107.364L1183.13 137.546H1238.45V153.611H1183.13L1198.87 184.28L1119.71 145.822Z" fill="#FE6B35"/>
<path d="M1216.86 190.122L1205.62 167.242H1251.49V124.403H1205.17L1216.86 101.036L1308.17 145.822L1216.86 190.122Z" fill="#6D5DE4"/>
<path d="M1134.55 166.268V212.029L1214.61 250L1295.12 212.029V167.729L1215.96 205.7L1134.55 166.268Z" fill="#1B1B2E"/>
<path d="M1147.15 174.057V202.292L1214.16 234.422L1282.08 203.266V173.571L1215.06 206.187L1147.15 174.057Z" fill="#6D5CE7"/>
<path d="M1096.77 146.796V221.765L1088 231.258L1104.42 249.026L1119.93 232.231L1110.26 221.765V152.638L1096.77 146.796Z" fill="#1B1B2D"/>
<path d="M1147.15 66.4725H1129.15V47H1147.15V66.4725Z" fill="#1D1B2C"/>
<path d="M1174.36 78.8861H1160.41V63.7949H1174.36V78.8861Z" fill="#1D1B2C"/>
<path d="M1152.54 91.2998H1144V82.0504H1152.54V91.2998Z" fill="#1D1B2C"/>
</g>
<defs>
<clipPath id="clip0_3_61">
<rect width="253" height="203" fill="white" transform="translate(1088 47)"/>
</clipPath>
</defs>
</svg>
