<svg width="1363" height="297" viewBox="0 0 1363 297" fill="none" xmlns="http://www.w3.org/2000/svg">
<path d="M0 15C0 6.71573 6.71573 0 15 0H37V297H15C6.71573 297 0 290.284 0 282V15Z" fill="#6C5CE7"/>
<path d="M37 0H1066V297H37V0Z" fill="#F0F0F0"/>
<path d="M112.354 59.8301V63.9434H98.9941V59.8301H112.354ZM100.559 49.4062V75H95.2852V49.4062H100.559ZM116.115 49.4062V75H110.859V49.4062H116.115ZM130.652 70.7109V62.2383C130.652 61.6289 130.553 61.1074 130.354 60.6738C130.154 60.2285 129.844 59.8828 129.422 59.6367C129.012 59.3906 128.479 59.2676 127.822 59.2676C127.26 59.2676 126.773 59.3672 126.363 59.5664C125.953 59.7539 125.637 60.0293 125.414 60.3926C125.191 60.7441 125.08 61.1602 125.08 61.6406H120.018C120.018 60.832 120.205 60.0645 120.58 59.3379C120.955 58.6113 121.5 57.9727 122.215 57.4219C122.93 56.8594 123.779 56.4199 124.764 56.1035C125.76 55.7871 126.873 55.6289 128.104 55.6289C129.58 55.6289 130.893 55.875 132.041 56.3672C133.189 56.8594 134.092 57.5977 134.748 58.582C135.416 59.5664 135.75 60.7969 135.75 62.2734V70.4121C135.75 71.4551 135.814 72.3105 135.943 72.9785C136.072 73.6348 136.26 74.209 136.506 74.7012V75H131.391C131.145 74.4844 130.957 73.8398 130.828 73.0664C130.711 72.2812 130.652 71.4961 130.652 70.7109ZM131.32 63.416L131.355 66.2812H128.525C127.857 66.2812 127.277 66.3574 126.785 66.5098C126.293 66.6621 125.889 66.8789 125.572 67.1602C125.256 67.4297 125.021 67.7461 124.869 68.1094C124.729 68.4727 124.658 68.8711 124.658 69.3047C124.658 69.7383 124.758 70.1309 124.957 70.4824C125.156 70.8223 125.443 71.0918 125.818 71.291C126.193 71.4785 126.633 71.5723 127.137 71.5723C127.898 71.5723 128.561 71.4199 129.123 71.1152C129.686 70.8105 130.119 70.4355 130.424 69.9902C130.74 69.5449 130.904 69.123 130.916 68.7246L132.252 70.8691C132.064 71.3496 131.807 71.8477 131.479 72.3633C131.162 72.8789 130.758 73.3652 130.266 73.8223C129.773 74.2676 129.182 74.6367 128.49 74.9297C127.799 75.2109 126.979 75.3516 126.029 75.3516C124.822 75.3516 123.727 75.1113 122.742 74.6309C121.77 74.1387 120.996 73.4648 120.422 72.6094C119.859 71.7422 119.578 70.7578 119.578 69.6562C119.578 68.6602 119.766 67.7754 120.141 67.002C120.516 66.2285 121.066 65.5781 121.793 65.0508C122.531 64.5117 123.451 64.1074 124.553 63.8379C125.654 63.5566 126.932 63.416 128.385 63.416H131.32ZM144.996 48V75H139.916V48H144.996ZM154.523 55.9805V75H149.443V55.9805H154.523ZM149.127 51.0234C149.127 50.2852 149.385 49.6758 149.9 49.1953C150.416 48.7148 151.107 48.4746 151.975 48.4746C152.83 48.4746 153.516 48.7148 154.031 49.1953C154.559 49.6758 154.822 50.2852 154.822 51.0234C154.822 51.7617 154.559 52.3711 154.031 52.8516C153.516 53.332 152.83 53.5723 151.975 53.5723C151.107 53.5723 150.416 53.332 149.9 52.8516C149.385 52.3711 149.127 51.7617 149.127 51.0234ZM163.77 59.918V75H158.689V55.9805H163.453L163.77 59.918ZM163.066 64.8223H161.66C161.66 63.498 161.818 62.2793 162.135 61.166C162.463 60.041 162.938 59.0684 163.559 58.248C164.191 57.416 164.971 56.7715 165.896 56.3145C166.822 55.8574 167.895 55.6289 169.113 55.6289C169.957 55.6289 170.73 55.7578 171.434 56.0156C172.137 56.2617 172.74 56.6543 173.244 57.1934C173.76 57.7207 174.158 58.4121 174.439 59.2676C174.721 60.1113 174.861 61.125 174.861 62.3086V75H169.799V62.8711C169.799 62.0039 169.682 61.3359 169.447 60.8672C169.213 60.3984 168.879 60.0703 168.445 59.8828C168.023 59.6953 167.514 59.6016 166.916 59.6016C166.26 59.6016 165.686 59.7363 165.193 60.0059C164.713 60.2754 164.314 60.6504 163.998 61.1309C163.682 61.5996 163.447 62.1504 163.295 62.7832C163.143 63.416 163.066 64.0957 163.066 64.8223ZM174.387 64.2422L172.576 64.4707C172.576 63.2285 172.729 62.0742 173.033 61.0078C173.35 59.9414 173.812 59.0039 174.422 58.1953C175.043 57.3867 175.811 56.7598 176.725 56.3145C177.639 55.8574 178.693 55.6289 179.889 55.6289C180.803 55.6289 181.635 55.7637 182.385 56.0332C183.135 56.291 183.773 56.707 184.301 57.2812C184.84 57.8438 185.25 58.582 185.531 59.4961C185.824 60.4102 185.971 61.5293 185.971 62.8535V75H180.891V62.8535C180.891 61.9746 180.773 61.3066 180.539 60.8496C180.316 60.3809 179.988 60.0586 179.555 59.8828C179.133 59.6953 178.629 59.6016 178.043 59.6016C177.434 59.6016 176.9 59.7246 176.443 59.9707C175.986 60.2051 175.605 60.5332 175.301 60.9551C174.996 61.377 174.768 61.8691 174.615 62.4316C174.463 62.9824 174.387 63.5859 174.387 64.2422ZM220.002 49.4062V75H214.729L204.445 57.8438V75H199.172V49.4062H204.445L214.746 66.5801V49.4062H220.002ZM224.555 55.9805H229.635V76.1426C229.635 77.5488 229.377 78.7383 228.861 79.7109C228.346 80.6836 227.602 81.4219 226.629 81.9258C225.656 82.4297 224.479 82.6816 223.096 82.6816C222.662 82.6816 222.24 82.6582 221.83 82.6113C221.408 82.5645 220.975 82.4883 220.529 82.3828L220.547 78.498C220.828 78.5449 221.104 78.5801 221.373 78.6035C221.631 78.6387 221.895 78.6562 222.164 78.6562C222.691 78.6562 223.131 78.5684 223.482 78.3926C223.834 78.2168 224.098 77.9414 224.273 77.5664C224.461 77.2031 224.555 76.7285 224.555 76.1426V55.9805ZM224.15 51.0234C224.15 50.2852 224.408 49.6758 224.924 49.1953C225.451 48.7148 226.143 48.4746 226.998 48.4746C227.865 48.4746 228.557 48.7148 229.072 49.1953C229.588 49.6758 229.846 50.2852 229.846 51.0234C229.846 51.7617 229.588 52.3711 229.072 52.8516C228.557 53.332 227.865 53.5723 226.998 53.5723C226.143 53.5723 225.451 53.332 224.924 52.8516C224.408 52.3711 224.15 51.7617 224.15 51.0234ZM242.414 75.3516C240.938 75.3516 239.613 75.1172 238.441 74.6484C237.27 74.168 236.273 73.5059 235.453 72.6621C234.645 71.8184 234.023 70.8398 233.59 69.7266C233.156 68.6016 232.939 67.4062 232.939 66.1406V65.4375C232.939 63.9961 233.145 62.6777 233.555 61.4824C233.965 60.2871 234.551 59.25 235.312 58.3711C236.086 57.4922 237.023 56.8184 238.125 56.3496C239.227 55.8691 240.469 55.6289 241.852 55.6289C243.199 55.6289 244.395 55.8516 245.438 56.2969C246.48 56.7422 247.354 57.375 248.057 58.1953C248.771 59.0156 249.311 60 249.674 61.1484C250.037 62.2852 250.219 63.5508 250.219 64.9453V67.0547H235.102V63.6797H245.244V63.293C245.244 62.5898 245.115 61.9629 244.857 61.4121C244.611 60.8496 244.236 60.4043 243.732 60.0762C243.229 59.748 242.584 59.584 241.799 59.584C241.131 59.584 240.557 59.7305 240.076 60.0234C239.596 60.3164 239.203 60.7266 238.898 61.2539C238.605 61.7812 238.383 62.4023 238.23 63.1172C238.09 63.8203 238.02 64.5938 238.02 65.4375V66.1406C238.02 66.9023 238.125 67.6055 238.336 68.25C238.559 68.8945 238.869 69.4512 239.268 69.9199C239.678 70.3887 240.17 70.752 240.744 71.0098C241.33 71.2676 241.992 71.3965 242.73 71.3965C243.645 71.3965 244.494 71.2207 245.279 70.8691C246.076 70.5059 246.762 69.9609 247.336 69.2344L249.797 71.9062C249.398 72.4805 248.854 73.0312 248.162 73.5586C247.482 74.0859 246.662 74.5195 245.701 74.8594C244.74 75.1875 243.645 75.3516 242.414 75.3516ZM258.445 55.9805V75H253.365V55.9805H258.445ZM253.049 51.0234C253.049 50.2852 253.307 49.6758 253.822 49.1953C254.338 48.7148 255.029 48.4746 255.896 48.4746C256.752 48.4746 257.438 48.7148 257.953 49.1953C258.48 49.6758 258.744 50.2852 258.744 51.0234C258.744 51.7617 258.48 52.3711 257.953 52.8516C257.438 53.332 256.752 53.5723 255.896 53.5723C255.029 53.5723 254.338 53.332 253.822 52.8516C253.307 52.3711 253.049 51.7617 253.049 51.0234ZM267.691 59.918V75H262.611V55.9805H267.375L267.691 59.918ZM266.988 64.8223H265.582C265.582 63.498 265.74 62.2793 266.057 61.166C266.385 60.041 266.859 59.0684 267.48 58.248C268.113 57.416 268.893 56.7715 269.818 56.3145C270.744 55.8574 271.816 55.6289 273.035 55.6289C273.879 55.6289 274.652 55.7578 275.355 56.0156C276.059 56.2617 276.662 56.6543 277.166 57.1934C277.682 57.7207 278.08 58.4121 278.361 59.2676C278.643 60.1113 278.783 61.125 278.783 62.3086V75H273.721V62.8711C273.721 62.0039 273.604 61.3359 273.369 60.8672C273.135 60.3984 272.801 60.0703 272.367 59.8828C271.945 59.6953 271.436 59.6016 270.838 59.6016C270.182 59.6016 269.607 59.7363 269.115 60.0059C268.635 60.2754 268.236 60.6504 267.92 61.1309C267.604 61.5996 267.369 62.1504 267.217 62.7832C267.064 63.416 266.988 64.0957 266.988 64.8223ZM278.309 64.2422L276.498 64.4707C276.498 63.2285 276.65 62.0742 276.955 61.0078C277.271 59.9414 277.734 59.0039 278.344 58.1953C278.965 57.3867 279.732 56.7598 280.646 56.3145C281.561 55.8574 282.615 55.6289 283.811 55.6289C284.725 55.6289 285.557 55.7637 286.307 56.0332C287.057 56.291 287.695 56.707 288.223 57.2812C288.762 57.8438 289.172 58.582 289.453 59.4961C289.746 60.4102 289.893 61.5293 289.893 62.8535V75H284.812V62.8535C284.812 61.9746 284.695 61.3066 284.461 60.8496C284.238 60.3809 283.91 60.0586 283.477 59.8828C283.055 59.6953 282.551 59.6016 281.965 59.6016C281.355 59.6016 280.822 59.7246 280.365 59.9707C279.908 60.2051 279.527 60.5332 279.223 60.9551C278.918 61.377 278.689 61.8691 278.537 62.4316C278.385 62.9824 278.309 63.5859 278.309 64.2422Z" fill="#888888"/>
<path d="M118.676 126.52H128.246C128.118 129.29 127.371 131.733 126.004 133.848C124.637 135.962 122.741 137.612 120.316 138.797C117.91 139.964 115.066 140.547 111.785 140.547C109.124 140.547 106.745 140.1 104.648 139.207C102.57 138.314 100.802 137.029 99.3438 135.352C97.9036 133.674 96.8008 131.642 96.0352 129.254C95.2878 126.866 94.9141 124.177 94.9141 121.188V119.027C94.9141 116.038 95.306 113.349 96.0898 110.961C96.8919 108.555 98.0221 106.513 99.4805 104.836C100.957 103.141 102.725 101.846 104.785 100.953C106.845 100.06 109.133 99.6133 111.648 99.6133C115.112 99.6133 118.038 100.233 120.426 101.473C122.814 102.712 124.664 104.417 125.977 106.586C127.289 108.737 128.064 111.189 128.301 113.941H118.73C118.694 112.447 118.439 111.198 117.965 110.195C117.491 109.174 116.743 108.409 115.723 107.898C114.702 107.388 113.344 107.133 111.648 107.133C110.464 107.133 109.434 107.352 108.559 107.789C107.684 108.227 106.954 108.919 106.371 109.867C105.788 110.815 105.35 112.046 105.059 113.559C104.785 115.053 104.648 116.858 104.648 118.973V121.188C104.648 123.302 104.776 125.107 105.031 126.602C105.286 128.096 105.697 129.318 106.262 130.266C106.827 131.214 107.556 131.915 108.449 132.371C109.361 132.809 110.473 133.027 111.785 133.027C113.243 133.027 114.474 132.799 115.477 132.344C116.479 131.87 117.254 131.159 117.801 130.211C118.348 129.245 118.639 128.014 118.676 126.52ZM131.199 125.508V124.934C131.199 122.764 131.509 120.768 132.129 118.945C132.749 117.104 133.66 115.509 134.863 114.16C136.066 112.811 137.552 111.763 139.32 111.016C141.089 110.25 143.13 109.867 145.445 109.867C147.779 109.867 149.829 110.25 151.598 111.016C153.384 111.763 154.879 112.811 156.082 114.16C157.285 115.509 158.197 117.104 158.816 118.945C159.436 120.768 159.746 122.764 159.746 124.934V125.508C159.746 127.659 159.436 129.655 158.816 131.496C158.197 133.319 157.285 134.914 156.082 136.281C154.879 137.63 153.393 138.678 151.625 139.426C149.857 140.173 147.815 140.547 145.5 140.547C143.185 140.547 141.134 140.173 139.348 139.426C137.561 138.678 136.066 137.63 134.863 136.281C133.66 134.914 132.749 133.319 132.129 131.496C131.509 129.655 131.199 127.659 131.199 125.508ZM140.414 124.934V125.508C140.414 126.62 140.496 127.659 140.66 128.625C140.824 129.591 141.098 130.439 141.48 131.168C141.863 131.879 142.383 132.435 143.039 132.836C143.695 133.237 144.516 133.438 145.5 133.438C146.466 133.438 147.268 133.237 147.906 132.836C148.562 132.435 149.082 131.879 149.465 131.168C149.848 130.439 150.121 129.591 150.285 128.625C150.449 127.659 150.531 126.62 150.531 125.508V124.934C150.531 123.858 150.449 122.846 150.285 121.898C150.121 120.932 149.848 120.085 149.465 119.355C149.082 118.608 148.562 118.025 147.906 117.605C147.25 117.186 146.43 116.977 145.445 116.977C144.479 116.977 143.668 117.186 143.012 117.605C142.374 118.025 141.863 118.608 141.48 119.355C141.098 120.085 140.824 120.932 140.66 121.898C140.496 122.846 140.414 123.858 140.414 124.934ZM181.129 132.809V110.414H190.371V140H181.73L181.129 132.809ZM182.004 126.793L184.41 126.738C184.41 128.725 184.173 130.566 183.699 132.262C183.225 133.939 182.523 135.397 181.594 136.637C180.682 137.876 179.552 138.842 178.203 139.535C176.872 140.21 175.332 140.547 173.582 140.547C172.124 140.547 170.784 140.346 169.562 139.945C168.359 139.526 167.32 138.879 166.445 138.004C165.57 137.111 164.887 135.971 164.395 134.586C163.921 133.182 163.684 131.505 163.684 129.555V110.414H172.898V129.609C172.898 130.266 172.98 130.831 173.145 131.305C173.309 131.779 173.546 132.18 173.855 132.508C174.165 132.818 174.548 133.055 175.004 133.219C175.478 133.365 176.016 133.438 176.617 133.438C178.003 133.438 179.087 133.146 179.871 132.562C180.655 131.979 181.202 131.186 181.512 130.184C181.84 129.181 182.004 128.051 182.004 126.793ZM204.754 117.742V140H195.539V110.414H204.152L204.754 117.742ZM213.504 110.195L213.34 118.754C212.975 118.717 212.483 118.672 211.863 118.617C211.243 118.562 210.724 118.535 210.305 118.535C209.229 118.535 208.299 118.663 207.516 118.918C206.75 119.155 206.112 119.52 205.602 120.012C205.109 120.486 204.745 121.087 204.508 121.816C204.289 122.546 204.189 123.393 204.207 124.359L202.539 123.266C202.539 121.279 202.73 119.474 203.113 117.852C203.514 116.211 204.079 114.798 204.809 113.613C205.538 112.41 206.422 111.49 207.461 110.852C208.5 110.195 209.667 109.867 210.961 109.867C211.417 109.867 211.863 109.895 212.301 109.949C212.757 110.004 213.158 110.086 213.504 110.195ZM232.18 131.688C232.18 131.177 232.007 130.74 231.66 130.375C231.332 129.992 230.749 129.646 229.91 129.336C229.072 129.008 227.896 128.68 226.383 128.352C224.943 128.042 223.585 127.632 222.309 127.121C221.051 126.611 219.948 125.991 219 125.262C218.052 124.533 217.305 123.667 216.758 122.664C216.229 121.661 215.965 120.513 215.965 119.219C215.965 117.961 216.229 116.776 216.758 115.664C217.305 114.534 218.098 113.54 219.137 112.684C220.194 111.809 221.479 111.125 222.992 110.633C224.505 110.122 226.228 109.867 228.16 109.867C230.822 109.867 233.118 110.277 235.051 111.098C236.983 111.9 238.469 113.03 239.508 114.488C240.565 115.928 241.094 117.596 241.094 119.492H231.879C231.879 118.745 231.751 118.107 231.496 117.578C231.259 117.049 230.867 116.648 230.32 116.375C229.773 116.083 229.044 115.938 228.133 115.938C227.495 115.938 226.911 116.056 226.383 116.293C225.872 116.53 225.462 116.858 225.152 117.277C224.842 117.697 224.688 118.189 224.688 118.754C224.688 119.155 224.779 119.52 224.961 119.848C225.161 120.158 225.462 120.449 225.863 120.723C226.264 120.978 226.775 121.215 227.395 121.434C228.014 121.634 228.762 121.816 229.637 121.98C231.624 122.345 233.483 122.865 235.215 123.539C236.947 124.214 238.35 125.171 239.426 126.41C240.52 127.65 241.066 129.318 241.066 131.414C241.066 132.727 240.766 133.939 240.164 135.051C239.562 136.145 238.697 137.111 237.566 137.949C236.436 138.77 235.078 139.408 233.492 139.863C231.906 140.319 230.12 140.547 228.133 140.547C225.307 140.547 222.919 140.046 220.969 139.043C219.018 138.022 217.542 136.746 216.539 135.215C215.555 133.665 215.062 132.098 215.062 130.512H223.648C223.685 131.423 223.904 132.171 224.305 132.754C224.724 133.337 225.28 133.766 225.973 134.039C226.665 134.312 227.467 134.449 228.379 134.449C229.217 134.449 229.91 134.331 230.457 134.094C231.022 133.857 231.451 133.538 231.742 133.137C232.034 132.717 232.18 132.234 232.18 131.688ZM259.715 140.547C257.309 140.547 255.158 140.173 253.262 139.426C251.366 138.66 249.762 137.612 248.449 136.281C247.155 134.951 246.161 133.419 245.469 131.688C244.794 129.956 244.457 128.124 244.457 126.191V125.152C244.457 122.983 244.758 120.978 245.359 119.137C245.961 117.277 246.854 115.655 248.039 114.27C249.224 112.884 250.71 111.809 252.496 111.043C254.283 110.259 256.361 109.867 258.73 109.867C260.827 109.867 262.704 110.204 264.363 110.879C266.022 111.553 267.426 112.52 268.574 113.777C269.741 115.035 270.625 116.557 271.227 118.344C271.846 120.13 272.156 122.135 272.156 124.359V128.105H247.984V122.336H263.16V121.625C263.178 120.641 263.005 119.802 262.641 119.109C262.294 118.417 261.784 117.888 261.109 117.523C260.435 117.159 259.615 116.977 258.648 116.977C257.646 116.977 256.816 117.195 256.16 117.633C255.522 118.07 255.021 118.672 254.656 119.438C254.31 120.185 254.064 121.051 253.918 122.035C253.772 123.02 253.699 124.059 253.699 125.152V126.191C253.699 127.285 253.845 128.279 254.137 129.172C254.447 130.065 254.884 130.831 255.449 131.469C256.033 132.089 256.725 132.572 257.527 132.918C258.348 133.264 259.277 133.438 260.316 133.438C261.574 133.438 262.814 133.201 264.035 132.727C265.257 132.253 266.305 131.469 267.18 130.375L271.363 135.352C270.762 136.208 269.905 137.038 268.793 137.84C267.699 138.642 266.387 139.298 264.855 139.809C263.324 140.301 261.611 140.547 259.715 140.547ZM295.043 100.188H302.863L311.75 127.887L320.637 100.188H328.457L314.922 140H308.578L295.043 100.188ZM290.285 100.188H298.379L299.883 130.703V140H290.285V100.188ZM325.121 100.188H333.242V140H323.617V130.703L325.121 100.188ZM354.324 132.562V120.367C354.324 119.529 354.206 118.809 353.969 118.207C353.732 117.605 353.358 117.141 352.848 116.812C352.337 116.466 351.654 116.293 350.797 116.293C350.104 116.293 349.512 116.411 349.02 116.648C348.527 116.885 348.154 117.241 347.898 117.715C347.643 118.189 347.516 118.79 347.516 119.52H338.301C338.301 118.152 338.602 116.885 339.203 115.719C339.823 114.534 340.698 113.504 341.828 112.629C342.977 111.754 344.344 111.079 345.93 110.605C347.534 110.113 349.32 109.867 351.289 109.867C353.641 109.867 355.737 110.259 357.578 111.043C359.438 111.827 360.905 113.003 361.98 114.57C363.056 116.12 363.594 118.07 363.594 120.422V132.535C363.594 134.467 363.703 135.935 363.922 136.938C364.141 137.922 364.451 138.788 364.852 139.535V140H355.609C355.172 139.089 354.844 137.977 354.625 136.664C354.424 135.333 354.324 133.966 354.324 132.562ZM355.445 121.926L355.5 126.848H351.426C350.569 126.848 349.84 126.966 349.238 127.203C348.655 127.44 348.181 127.768 347.816 128.188C347.47 128.589 347.215 129.044 347.051 129.555C346.905 130.065 346.832 130.603 346.832 131.168C346.832 131.715 346.96 132.207 347.215 132.645C347.488 133.064 347.853 133.392 348.309 133.629C348.764 133.866 349.275 133.984 349.84 133.984C350.861 133.984 351.727 133.793 352.438 133.41C353.167 133.009 353.723 132.526 354.105 131.961C354.488 131.396 354.68 130.867 354.68 130.375L356.703 134.148C356.339 134.878 355.919 135.616 355.445 136.363C354.99 137.111 354.415 137.803 353.723 138.441C353.048 139.061 352.219 139.572 351.234 139.973C350.25 140.355 349.056 140.547 347.652 140.547C345.829 140.547 344.152 140.173 342.621 139.426C341.108 138.678 339.896 137.639 338.984 136.309C338.073 134.96 337.617 133.41 337.617 131.66C337.617 130.129 337.891 128.762 338.438 127.559C339.003 126.355 339.85 125.335 340.98 124.496C342.111 123.658 343.551 123.02 345.301 122.582C347.051 122.145 349.111 121.926 351.48 121.926H355.445ZM384.211 131.688C384.211 131.177 384.038 130.74 383.691 130.375C383.363 129.992 382.78 129.646 381.941 129.336C381.103 129.008 379.927 128.68 378.414 128.352C376.974 128.042 375.616 127.632 374.34 127.121C373.082 126.611 371.979 125.991 371.031 125.262C370.083 124.533 369.336 123.667 368.789 122.664C368.26 121.661 367.996 120.513 367.996 119.219C367.996 117.961 368.26 116.776 368.789 115.664C369.336 114.534 370.129 113.54 371.168 112.684C372.225 111.809 373.51 111.125 375.023 110.633C376.536 110.122 378.259 109.867 380.191 109.867C382.853 109.867 385.15 110.277 387.082 111.098C389.014 111.9 390.5 113.03 391.539 114.488C392.596 115.928 393.125 117.596 393.125 119.492H383.91C383.91 118.745 383.783 118.107 383.527 117.578C383.29 117.049 382.898 116.648 382.352 116.375C381.805 116.083 381.076 115.938 380.164 115.938C379.526 115.938 378.943 116.056 378.414 116.293C377.904 116.53 377.493 116.858 377.184 117.277C376.874 117.697 376.719 118.189 376.719 118.754C376.719 119.155 376.81 119.52 376.992 119.848C377.193 120.158 377.493 120.449 377.895 120.723C378.296 120.978 378.806 121.215 379.426 121.434C380.046 121.634 380.793 121.816 381.668 121.98C383.655 122.345 385.514 122.865 387.246 123.539C388.978 124.214 390.382 125.171 391.457 126.41C392.551 127.65 393.098 129.318 393.098 131.414C393.098 132.727 392.797 133.939 392.195 135.051C391.594 136.145 390.728 137.111 389.598 137.949C388.467 138.77 387.109 139.408 385.523 139.863C383.938 140.319 382.151 140.547 380.164 140.547C377.339 140.547 374.951 140.046 373 139.043C371.049 138.022 369.573 136.746 368.57 135.215C367.586 133.665 367.094 132.098 367.094 130.512H375.68C375.716 131.423 375.935 132.171 376.336 132.754C376.755 133.337 377.311 133.766 378.004 134.039C378.697 134.312 379.499 134.449 380.41 134.449C381.249 134.449 381.941 134.331 382.488 134.094C383.053 133.857 383.482 133.538 383.773 133.137C384.065 132.717 384.211 132.234 384.211 131.688ZM413.004 110.414V116.812H395.176V110.414H413.004ZM398.922 103.059H408.137V130.348C408.137 131.132 408.228 131.742 408.41 132.18C408.592 132.599 408.902 132.9 409.34 133.082C409.796 133.246 410.397 133.328 411.145 133.328C411.673 133.328 412.111 133.319 412.457 133.301C412.803 133.264 413.132 133.219 413.441 133.164V139.754C412.658 140.009 411.837 140.201 410.98 140.328C410.124 140.474 409.212 140.547 408.246 140.547C406.277 140.547 404.591 140.237 403.188 139.617C401.802 138.997 400.745 138.022 400.016 136.691C399.286 135.361 398.922 133.629 398.922 131.496V103.059ZM430.996 140.547C428.59 140.547 426.439 140.173 424.543 139.426C422.647 138.66 421.043 137.612 419.73 136.281C418.436 134.951 417.443 133.419 416.75 131.688C416.076 129.956 415.738 128.124 415.738 126.191V125.152C415.738 122.983 416.039 120.978 416.641 119.137C417.242 117.277 418.135 115.655 419.32 114.27C420.505 112.884 421.991 111.809 423.777 111.043C425.564 110.259 427.642 109.867 430.012 109.867C432.108 109.867 433.986 110.204 435.645 110.879C437.303 111.553 438.707 112.52 439.855 113.777C441.022 115.035 441.906 116.557 442.508 118.344C443.128 120.13 443.438 122.135 443.438 124.359V128.105H419.266V122.336H434.441V121.625C434.46 120.641 434.286 119.802 433.922 119.109C433.576 118.417 433.065 117.888 432.391 117.523C431.716 117.159 430.896 116.977 429.93 116.977C428.927 116.977 428.098 117.195 427.441 117.633C426.803 118.07 426.302 118.672 425.938 119.438C425.591 120.185 425.345 121.051 425.199 122.035C425.053 123.02 424.98 124.059 424.98 125.152V126.191C424.98 127.285 425.126 128.279 425.418 129.172C425.728 130.065 426.165 130.831 426.73 131.469C427.314 132.089 428.007 132.572 428.809 132.918C429.629 133.264 430.559 133.438 431.598 133.438C432.855 133.438 434.095 133.201 435.316 132.727C436.538 132.253 437.586 131.469 438.461 130.375L442.645 135.352C442.043 136.208 441.186 137.038 440.074 137.84C438.98 138.642 437.668 139.298 436.137 139.809C434.605 140.301 432.892 140.547 430.996 140.547ZM456.48 117.742V140H447.266V110.414H455.879L456.48 117.742ZM465.23 110.195L465.066 118.754C464.702 118.717 464.21 118.672 463.59 118.617C462.97 118.562 462.451 118.535 462.031 118.535C460.956 118.535 460.026 118.663 459.242 118.918C458.477 119.155 457.839 119.52 457.328 120.012C456.836 120.486 456.471 121.087 456.234 121.816C456.016 122.546 455.915 123.393 455.934 124.359L454.266 123.266C454.266 121.279 454.457 119.474 454.84 117.852C455.241 116.211 455.806 114.798 456.535 113.613C457.264 112.41 458.148 111.49 459.188 110.852C460.227 110.195 461.393 109.867 462.688 109.867C463.143 109.867 463.59 109.895 464.027 109.949C464.483 110.004 464.884 110.086 465.23 110.195Z" fill="black"/>
<rect x="93" y="178" width="917" height="77" rx="10" fill="#D3D3D3"/>
<rect x="111" y="196" width="91" height="41" rx="3" fill="#424242"/>
<rect x="111" y="196" width="91" height="41" rx="3" stroke="#424242" stroke-width="4"/>
<path d="M134.141 210.203H139.177C140.161 210.203 141.017 210.35 141.743 210.643C142.47 210.936 143.029 211.369 143.422 211.943C143.82 212.518 144.02 213.227 144.02 214.07C144.02 214.803 143.905 215.415 143.677 215.907C143.448 216.399 143.129 216.807 142.719 217.129C142.314 217.445 141.843 217.706 141.304 217.911L140.293 218.482H136.065L136.048 216.101H139.177C139.569 216.101 139.895 216.03 140.152 215.89C140.41 215.749 140.604 215.55 140.732 215.292C140.867 215.028 140.935 214.715 140.935 214.352C140.935 213.982 140.867 213.666 140.732 213.402C140.598 213.139 140.398 212.937 140.135 212.796C139.877 212.655 139.558 212.585 139.177 212.585H137.226V223H134.141V210.203ZM141.146 223L138.315 217.34L141.585 217.322L144.45 222.868V223H141.146ZM150.348 223.176C149.574 223.176 148.883 223.056 148.273 222.815C147.664 222.569 147.148 222.232 146.727 221.805C146.311 221.377 145.991 220.885 145.769 220.328C145.552 219.771 145.443 219.183 145.443 218.562V218.228C145.443 217.53 145.54 216.886 145.733 216.294C145.927 215.696 146.214 215.175 146.595 214.729C146.976 214.284 147.453 213.938 148.027 213.692C148.602 213.44 149.27 213.314 150.031 213.314C150.705 213.314 151.309 213.423 151.842 213.64C152.375 213.856 152.826 214.167 153.195 214.571C153.57 214.976 153.854 215.465 154.048 216.039C154.247 216.613 154.347 217.258 154.347 217.973V219.177H146.577V217.322H151.455V217.094C151.461 216.777 151.405 216.508 151.288 216.285C151.177 216.062 151.013 215.893 150.796 215.775C150.579 215.658 150.315 215.6 150.005 215.6C149.683 215.6 149.416 215.67 149.205 215.811C149 215.951 148.839 216.145 148.722 216.391C148.61 216.631 148.531 216.909 148.484 217.226C148.438 217.542 148.414 217.876 148.414 218.228V218.562C148.414 218.913 148.461 219.232 148.555 219.52C148.654 219.807 148.795 220.053 148.977 220.258C149.164 220.457 149.387 220.612 149.645 220.724C149.908 220.835 150.207 220.891 150.541 220.891C150.945 220.891 151.344 220.814 151.736 220.662C152.129 220.51 152.466 220.258 152.747 219.906L154.092 221.506C153.898 221.781 153.623 222.048 153.266 222.306C152.914 222.563 152.492 222.774 152 222.938C151.508 223.097 150.957 223.176 150.348 223.176ZM160.49 220.609V216.689C160.49 216.42 160.452 216.188 160.376 215.995C160.3 215.802 160.18 215.652 160.016 215.547C159.852 215.436 159.632 215.38 159.356 215.38C159.134 215.38 158.943 215.418 158.785 215.494C158.627 215.57 158.507 215.685 158.425 215.837C158.343 215.989 158.302 216.183 158.302 216.417H155.34C155.34 215.978 155.437 215.57 155.63 215.195C155.829 214.814 156.11 214.483 156.474 214.202C156.843 213.921 157.282 213.704 157.792 213.552C158.308 213.394 158.882 213.314 159.515 213.314C160.271 213.314 160.944 213.44 161.536 213.692C162.134 213.944 162.605 214.322 162.951 214.826C163.297 215.324 163.47 215.951 163.47 216.707V220.601C163.47 221.222 163.505 221.693 163.575 222.016C163.646 222.332 163.745 222.61 163.874 222.851V223H160.903C160.763 222.707 160.657 222.35 160.587 221.928C160.522 221.5 160.49 221.061 160.49 220.609ZM160.851 217.19L160.868 218.772H159.559C159.283 218.772 159.049 218.811 158.855 218.887C158.668 218.963 158.516 219.068 158.398 219.203C158.287 219.332 158.205 219.479 158.152 219.643C158.105 219.807 158.082 219.979 158.082 220.161C158.082 220.337 158.123 220.495 158.205 220.636C158.293 220.771 158.41 220.876 158.557 220.952C158.703 221.028 158.867 221.066 159.049 221.066C159.377 221.066 159.655 221.005 159.884 220.882C160.118 220.753 160.297 220.598 160.42 220.416C160.543 220.234 160.604 220.064 160.604 219.906L161.255 221.119C161.138 221.354 161.003 221.591 160.851 221.831C160.704 222.071 160.52 222.294 160.297 222.499C160.08 222.698 159.813 222.862 159.497 222.991C159.181 223.114 158.797 223.176 158.346 223.176C157.76 223.176 157.221 223.056 156.729 222.815C156.242 222.575 155.853 222.241 155.56 221.813C155.267 221.38 155.12 220.882 155.12 220.319C155.12 219.827 155.208 219.388 155.384 219.001C155.565 218.614 155.838 218.286 156.201 218.017C156.564 217.747 157.027 217.542 157.59 217.401C158.152 217.261 158.814 217.19 159.576 217.19H160.851ZM169.13 220.891C169.405 220.891 169.64 220.841 169.833 220.741C170.032 220.636 170.182 220.489 170.281 220.302C170.387 220.108 170.437 219.877 170.431 219.607H173.217C173.223 220.322 173.047 220.949 172.689 221.488C172.338 222.021 171.857 222.438 171.248 222.736C170.645 223.029 169.962 223.176 169.2 223.176C168.456 223.176 167.806 223.056 167.249 222.815C166.692 222.569 166.227 222.229 165.852 221.796C165.482 221.356 165.204 220.844 165.017 220.258C164.835 219.672 164.744 219.036 164.744 218.351V218.148C164.744 217.463 164.835 216.827 165.017 216.241C165.204 215.649 165.482 215.137 165.852 214.703C166.227 214.264 166.689 213.924 167.24 213.684C167.797 213.438 168.444 213.314 169.183 213.314C169.974 213.314 170.671 213.464 171.274 213.763C171.884 214.062 172.361 214.495 172.707 215.063C173.053 215.632 173.223 216.32 173.217 217.129H170.431C170.437 216.842 170.393 216.584 170.299 216.355C170.205 216.127 170.059 215.945 169.859 215.811C169.666 215.67 169.417 215.6 169.112 215.6C168.808 215.6 168.562 215.667 168.374 215.802C168.187 215.937 168.043 216.124 167.943 216.364C167.85 216.599 167.785 216.868 167.75 217.173C167.721 217.478 167.706 217.803 167.706 218.148V218.351C167.706 218.702 167.721 219.033 167.75 219.344C167.785 219.648 167.853 219.918 167.952 220.152C168.052 220.381 168.195 220.562 168.383 220.697C168.57 220.826 168.819 220.891 169.13 220.891ZM179.492 213.49V215.547H173.762V213.49H179.492ZM174.966 211.126H177.928V219.897C177.928 220.149 177.957 220.346 178.016 220.486C178.074 220.621 178.174 220.718 178.314 220.776C178.461 220.829 178.654 220.855 178.895 220.855C179.064 220.855 179.205 220.853 179.316 220.847C179.428 220.835 179.533 220.82 179.633 220.803V222.921C179.381 223.003 179.117 223.064 178.842 223.105C178.566 223.152 178.273 223.176 177.963 223.176C177.33 223.176 176.788 223.076 176.337 222.877C175.892 222.678 175.552 222.364 175.317 221.937C175.083 221.509 174.966 220.952 174.966 220.267V211.126Z" fill="white"/>
<rect x="222" y="196" width="130" height="41" rx="3" fill="#424242"/>
<rect x="222" y="196" width="130" height="41" rx="3" stroke="#424242" stroke-width="4"/>
<path d="M253.883 220.627V223H247.062V220.627H253.883ZM248.161 210.203V223H245.076V210.203H248.161ZM253.004 215.283V217.577H247.062V215.283H253.004ZM253.909 210.203V212.585H247.062V210.203H253.909ZM257.521 213.49L258.857 216.109L260.237 213.49H263.313L260.817 218.122L263.445 223H260.343L258.857 220.188L257.381 223H254.278L256.906 218.122L254.419 213.49H257.521ZM267.277 215.318V226.656H264.315V213.49H267.075L267.277 215.318ZM273.113 218.131V218.315C273.113 219.007 273.034 219.648 272.876 220.24C272.718 220.832 272.483 221.348 272.173 221.787C271.862 222.227 271.476 222.569 271.013 222.815C270.556 223.056 270.025 223.176 269.422 223.176C268.854 223.176 268.364 223.05 267.954 222.798C267.544 222.546 267.201 222.197 266.926 221.752C266.65 221.307 266.428 220.797 266.258 220.223C266.088 219.648 265.953 219.042 265.854 218.403V218.166C265.953 217.48 266.088 216.845 266.258 216.259C266.428 215.667 266.65 215.151 266.926 214.712C267.201 214.272 267.541 213.93 267.945 213.684C268.355 213.438 268.845 213.314 269.413 213.314C270.017 213.314 270.547 213.429 271.004 213.657C271.467 213.886 271.854 214.214 272.164 214.642C272.48 215.063 272.718 215.57 272.876 216.162C273.034 216.754 273.113 217.41 273.113 218.131ZM270.151 218.315V218.131C270.151 217.762 270.125 217.425 270.072 217.12C270.02 216.81 269.935 216.54 269.817 216.312C269.706 216.083 269.557 215.907 269.369 215.784C269.182 215.661 268.95 215.6 268.675 215.6C268.358 215.6 268.092 215.649 267.875 215.749C267.664 215.843 267.494 215.989 267.365 216.188C267.242 216.382 267.154 216.625 267.102 216.918C267.055 217.205 267.034 217.542 267.04 217.929V218.649C267.028 219.095 267.072 219.487 267.172 219.827C267.271 220.161 267.444 220.422 267.69 220.609C267.937 220.797 268.271 220.891 268.692 220.891C268.974 220.891 269.208 220.826 269.396 220.697C269.583 220.562 269.732 220.378 269.844 220.144C269.955 219.903 270.034 219.628 270.081 219.317C270.128 219.007 270.151 218.673 270.151 218.315ZM277.42 215.846V223H274.458V213.49H277.227L277.42 215.846ZM280.232 213.42L280.18 216.171C280.062 216.159 279.904 216.145 279.705 216.127C279.506 216.109 279.339 216.101 279.204 216.101C278.858 216.101 278.56 216.142 278.308 216.224C278.062 216.3 277.856 216.417 277.692 216.575C277.534 216.728 277.417 216.921 277.341 217.155C277.271 217.39 277.238 217.662 277.244 217.973L276.708 217.621C276.708 216.982 276.77 216.402 276.893 215.881C277.021 215.354 277.203 214.899 277.438 214.519C277.672 214.132 277.956 213.836 278.29 213.631C278.624 213.42 278.999 213.314 279.415 213.314C279.562 213.314 279.705 213.323 279.846 213.341C279.992 213.358 280.121 213.385 280.232 213.42ZM285.682 223.176C284.908 223.176 284.217 223.056 283.607 222.815C282.998 222.569 282.482 222.232 282.061 221.805C281.645 221.377 281.325 220.885 281.103 220.328C280.886 219.771 280.777 219.183 280.777 218.562V218.228C280.777 217.53 280.874 216.886 281.067 216.294C281.261 215.696 281.548 215.175 281.929 214.729C282.31 214.284 282.787 213.938 283.361 213.692C283.936 213.44 284.604 213.314 285.365 213.314C286.039 213.314 286.643 213.423 287.176 213.64C287.709 213.856 288.16 214.167 288.529 214.571C288.904 214.976 289.188 215.465 289.382 216.039C289.581 216.613 289.681 217.258 289.681 217.973V219.177H281.911V217.322H286.789V217.094C286.795 216.777 286.739 216.508 286.622 216.285C286.511 216.062 286.347 215.893 286.13 215.775C285.913 215.658 285.649 215.6 285.339 215.6C285.017 215.6 284.75 215.67 284.539 215.811C284.334 215.951 284.173 216.145 284.056 216.391C283.944 216.631 283.865 216.909 283.818 217.226C283.771 217.542 283.748 217.876 283.748 218.228V218.562C283.748 218.913 283.795 219.232 283.889 219.52C283.988 219.807 284.129 220.053 284.311 220.258C284.498 220.457 284.721 220.612 284.979 220.724C285.242 220.835 285.541 220.891 285.875 220.891C286.279 220.891 286.678 220.814 287.07 220.662C287.463 220.51 287.8 220.258 288.081 219.906L289.426 221.506C289.232 221.781 288.957 222.048 288.6 222.306C288.248 222.563 287.826 222.774 287.334 222.938C286.842 223.097 286.291 223.176 285.682 223.176ZM295.868 220.328C295.868 220.164 295.812 220.023 295.701 219.906C295.596 219.783 295.408 219.672 295.139 219.572C294.869 219.467 294.491 219.361 294.005 219.256C293.542 219.156 293.105 219.024 292.695 218.86C292.291 218.696 291.937 218.497 291.632 218.263C291.327 218.028 291.087 217.75 290.911 217.428C290.741 217.105 290.656 216.736 290.656 216.32C290.656 215.916 290.741 215.535 290.911 215.178C291.087 214.814 291.342 214.495 291.676 214.22C292.016 213.938 292.429 213.719 292.915 213.561C293.401 213.396 293.955 213.314 294.576 213.314C295.432 213.314 296.17 213.446 296.791 213.71C297.412 213.968 297.89 214.331 298.224 214.8C298.563 215.263 298.733 215.799 298.733 216.408H295.771C295.771 216.168 295.73 215.963 295.648 215.793C295.572 215.623 295.446 215.494 295.271 215.406C295.095 215.312 294.86 215.266 294.567 215.266C294.362 215.266 294.175 215.304 294.005 215.38C293.841 215.456 293.709 215.562 293.609 215.696C293.51 215.831 293.46 215.989 293.46 216.171C293.46 216.3 293.489 216.417 293.548 216.522C293.612 216.622 293.709 216.716 293.838 216.804C293.967 216.886 294.131 216.962 294.33 217.032C294.529 217.097 294.77 217.155 295.051 217.208C295.689 217.325 296.287 217.492 296.844 217.709C297.4 217.926 297.852 218.233 298.197 218.632C298.549 219.03 298.725 219.566 298.725 220.24C298.725 220.662 298.628 221.052 298.435 221.409C298.241 221.761 297.963 222.071 297.6 222.341C297.236 222.604 296.8 222.81 296.29 222.956C295.78 223.103 295.206 223.176 294.567 223.176C293.659 223.176 292.892 223.015 292.265 222.692C291.638 222.364 291.163 221.954 290.841 221.462C290.524 220.964 290.366 220.46 290.366 219.95H293.126C293.138 220.243 293.208 220.483 293.337 220.671C293.472 220.858 293.65 220.996 293.873 221.084C294.096 221.172 294.354 221.216 294.646 221.216C294.916 221.216 295.139 221.178 295.314 221.102C295.496 221.025 295.634 220.923 295.728 220.794C295.821 220.659 295.868 220.504 295.868 220.328ZM305.097 220.328C305.097 220.164 305.041 220.023 304.93 219.906C304.824 219.783 304.637 219.672 304.367 219.572C304.098 219.467 303.72 219.361 303.233 219.256C302.771 219.156 302.334 219.024 301.924 218.86C301.52 218.696 301.165 218.497 300.86 218.263C300.556 218.028 300.315 217.75 300.14 217.428C299.97 217.105 299.885 216.736 299.885 216.32C299.885 215.916 299.97 215.535 300.14 215.178C300.315 214.814 300.57 214.495 300.904 214.22C301.244 213.938 301.657 213.719 302.144 213.561C302.63 213.396 303.184 213.314 303.805 213.314C304.66 213.314 305.398 213.446 306.02 213.71C306.641 213.968 307.118 214.331 307.452 214.8C307.792 215.263 307.962 215.799 307.962 216.408H305C305 216.168 304.959 215.963 304.877 215.793C304.801 215.623 304.675 215.494 304.499 215.406C304.323 215.312 304.089 215.266 303.796 215.266C303.591 215.266 303.403 215.304 303.233 215.38C303.069 215.456 302.938 215.562 302.838 215.696C302.738 215.831 302.688 215.989 302.688 216.171C302.688 216.3 302.718 216.417 302.776 216.522C302.841 216.622 302.938 216.716 303.066 216.804C303.195 216.886 303.359 216.962 303.559 217.032C303.758 217.097 303.998 217.155 304.279 217.208C304.918 217.325 305.516 217.492 306.072 217.709C306.629 217.926 307.08 218.233 307.426 218.632C307.777 219.03 307.953 219.566 307.953 220.24C307.953 220.662 307.856 221.052 307.663 221.409C307.47 221.761 307.191 222.071 306.828 222.341C306.465 222.604 306.028 222.81 305.519 222.956C305.009 223.103 304.435 223.176 303.796 223.176C302.888 223.176 302.12 223.015 301.493 222.692C300.866 222.364 300.392 221.954 300.069 221.462C299.753 220.964 299.595 220.46 299.595 219.95H302.354C302.366 220.243 302.437 220.483 302.565 220.671C302.7 220.858 302.879 220.996 303.102 221.084C303.324 221.172 303.582 221.216 303.875 221.216C304.145 221.216 304.367 221.178 304.543 221.102C304.725 221.025 304.862 220.923 304.956 220.794C305.05 220.659 305.097 220.504 305.097 220.328ZM314.571 218.983V210.203H317.647V218.983C317.647 219.839 317.451 220.58 317.059 221.207C316.672 221.834 316.145 222.32 315.477 222.666C314.814 223.006 314.07 223.176 313.244 223.176C312.389 223.176 311.627 223.032 310.959 222.745C310.297 222.458 309.775 222.016 309.395 221.418C309.02 220.82 308.832 220.059 308.832 219.133H311.926C311.926 219.566 311.976 219.906 312.075 220.152C312.175 220.393 312.321 220.562 312.515 220.662C312.714 220.756 312.957 220.803 313.244 220.803C313.525 220.803 313.763 220.732 313.956 220.592C314.155 220.445 314.308 220.237 314.413 219.968C314.519 219.692 314.571 219.364 314.571 218.983ZM326.199 219.599C326.199 219.399 326.17 219.221 326.111 219.062C326.053 218.898 325.944 218.746 325.786 218.605C325.628 218.465 325.399 218.324 325.101 218.184C324.808 218.037 324.421 217.885 323.94 217.727C323.378 217.539 322.836 217.328 322.314 217.094C321.793 216.854 321.327 216.575 320.917 216.259C320.507 215.937 320.182 215.562 319.941 215.134C319.701 214.7 319.581 214.196 319.581 213.622C319.581 213.071 319.704 212.576 319.95 212.137C320.196 211.691 320.539 211.313 320.979 211.003C321.424 210.687 321.945 210.446 322.543 210.282C323.141 210.112 323.794 210.027 324.503 210.027C325.44 210.027 326.267 210.191 326.981 210.52C327.702 210.842 328.265 211.302 328.669 211.899C329.079 212.491 329.284 213.191 329.284 214H326.217C326.217 213.678 326.149 213.394 326.015 213.147C325.886 212.901 325.689 212.708 325.426 212.567C325.162 212.427 324.831 212.356 324.433 212.356C324.046 212.356 323.721 212.415 323.457 212.532C323.193 212.649 322.994 212.808 322.859 213.007C322.725 213.2 322.657 213.414 322.657 213.648C322.657 213.842 322.71 214.018 322.815 214.176C322.927 214.328 323.082 214.472 323.281 214.606C323.486 214.741 323.732 214.87 324.02 214.993C324.312 215.116 324.641 215.236 325.004 215.354C325.684 215.57 326.287 215.813 326.814 216.083C327.348 216.347 327.796 216.648 328.159 216.988C328.528 217.322 328.807 217.703 328.994 218.131C329.188 218.559 329.284 219.042 329.284 219.581C329.284 220.155 329.173 220.665 328.95 221.11C328.728 221.556 328.408 221.934 327.992 222.244C327.576 222.549 327.078 222.78 326.498 222.938C325.918 223.097 325.271 223.176 324.556 223.176C323.899 223.176 323.252 223.094 322.613 222.93C321.98 222.76 321.406 222.502 320.891 222.156C320.375 221.805 319.962 221.356 319.651 220.812C319.347 220.261 319.194 219.607 319.194 218.852H322.288C322.288 219.227 322.338 219.543 322.438 219.801C322.537 220.059 322.684 220.267 322.877 220.425C323.07 220.577 323.308 220.688 323.589 220.759C323.87 220.823 324.192 220.855 324.556 220.855C324.948 220.855 325.265 220.8 325.505 220.688C325.745 220.571 325.921 220.419 326.032 220.231C326.144 220.038 326.199 219.827 326.199 219.599Z" fill="white"/>
<rect x="372" y="196" width="109" height="41" rx="3" fill="#424242"/>
<rect x="372" y="196" width="109" height="41" rx="3" stroke="#424242" stroke-width="4"/>
<path d="M406.118 210.203V223H403.042L398.516 215.037V223H395.431V210.203H398.516L403.042 218.166V210.203H406.118ZM407.56 218.342V218.157C407.56 217.46 407.659 216.818 407.858 216.232C408.058 215.641 408.351 215.128 408.737 214.694C409.124 214.261 409.602 213.924 410.17 213.684C410.738 213.438 411.395 213.314 412.139 213.314C412.889 213.314 413.548 213.438 414.116 213.684C414.69 213.924 415.171 214.261 415.558 214.694C415.944 215.128 416.237 215.641 416.437 216.232C416.636 216.818 416.735 217.46 416.735 218.157V218.342C416.735 219.033 416.636 219.675 416.437 220.267C416.237 220.853 415.944 221.365 415.558 221.805C415.171 222.238 414.693 222.575 414.125 222.815C413.557 223.056 412.9 223.176 412.156 223.176C411.412 223.176 410.753 223.056 410.179 222.815C409.604 222.575 409.124 222.238 408.737 221.805C408.351 221.365 408.058 220.853 407.858 220.267C407.659 219.675 407.56 219.033 407.56 218.342ZM410.521 218.157V218.342C410.521 218.699 410.548 219.033 410.601 219.344C410.653 219.654 410.741 219.927 410.864 220.161C410.987 220.39 411.154 220.568 411.365 220.697C411.576 220.826 411.84 220.891 412.156 220.891C412.467 220.891 412.725 220.826 412.93 220.697C413.141 220.568 413.308 220.39 413.431 220.161C413.554 219.927 413.642 219.654 413.694 219.344C413.747 219.033 413.773 218.699 413.773 218.342V218.157C413.773 217.812 413.747 217.486 413.694 217.182C413.642 216.871 413.554 216.599 413.431 216.364C413.308 216.124 413.141 215.937 412.93 215.802C412.719 215.667 412.455 215.6 412.139 215.6C411.828 215.6 411.567 215.667 411.356 215.802C411.151 215.937 410.987 216.124 410.864 216.364C410.741 216.599 410.653 216.871 410.601 217.182C410.548 217.486 410.521 217.812 410.521 218.157ZM423.521 220.82V209.5H426.5V223H423.828L423.521 220.82ZM417.685 218.359V218.175C417.685 217.454 417.764 216.798 417.922 216.206C418.08 215.608 418.314 215.096 418.625 214.668C418.936 214.234 419.322 213.9 419.785 213.666C420.248 213.432 420.781 213.314 421.385 213.314C421.924 213.314 422.396 213.44 422.8 213.692C423.204 213.938 423.55 214.284 423.837 214.729C424.124 215.175 424.358 215.696 424.54 216.294C424.722 216.886 424.859 217.524 424.953 218.21V218.43C424.859 219.074 424.722 219.684 424.54 220.258C424.358 220.826 424.124 221.33 423.837 221.77C423.55 222.209 423.201 222.555 422.791 222.807C422.387 223.053 421.912 223.176 421.367 223.176C420.764 223.176 420.23 223.056 419.768 222.815C419.311 222.575 418.927 222.238 418.616 221.805C418.312 221.371 418.08 220.861 417.922 220.275C417.764 219.689 417.685 219.051 417.685 218.359ZM420.646 218.175V218.359C420.646 218.717 420.67 219.048 420.717 219.353C420.764 219.657 420.843 219.927 420.954 220.161C421.071 220.39 421.224 220.568 421.411 220.697C421.604 220.826 421.842 220.891 422.123 220.891C422.504 220.891 422.817 220.8 423.063 220.618C423.315 220.437 423.5 220.179 423.617 219.845C423.74 219.511 423.793 219.118 423.775 218.667V217.973C423.787 217.586 423.761 217.246 423.696 216.953C423.632 216.654 423.529 216.405 423.389 216.206C423.254 216.007 423.081 215.857 422.87 215.758C422.665 215.652 422.422 215.6 422.141 215.6C421.865 215.6 421.631 215.664 421.438 215.793C421.25 215.922 421.098 216.104 420.98 216.338C420.863 216.566 420.778 216.839 420.726 217.155C420.673 217.466 420.646 217.806 420.646 218.175ZM432.784 223.176C432.011 223.176 431.319 223.056 430.71 222.815C430.101 222.569 429.585 222.232 429.163 221.805C428.747 221.377 428.428 220.885 428.205 220.328C427.988 219.771 427.88 219.183 427.88 218.562V218.228C427.88 217.53 427.977 216.886 428.17 216.294C428.363 215.696 428.65 215.175 429.031 214.729C429.412 214.284 429.89 213.938 430.464 213.692C431.038 213.44 431.706 213.314 432.468 213.314C433.142 213.314 433.745 213.423 434.278 213.64C434.812 213.856 435.263 214.167 435.632 214.571C436.007 214.976 436.291 215.465 436.484 216.039C436.684 216.613 436.783 217.258 436.783 217.973V219.177H429.014V217.322H433.892V217.094C433.897 216.777 433.842 216.508 433.725 216.285C433.613 216.062 433.449 215.893 433.232 215.775C433.016 215.658 432.752 215.6 432.441 215.6C432.119 215.6 431.853 215.67 431.642 215.811C431.437 215.951 431.275 216.145 431.158 216.391C431.047 216.631 430.968 216.909 430.921 217.226C430.874 217.542 430.851 217.876 430.851 218.228V218.562C430.851 218.913 430.897 219.232 430.991 219.52C431.091 219.807 431.231 220.053 431.413 220.258C431.601 220.457 431.823 220.612 432.081 220.724C432.345 220.835 432.644 220.891 432.978 220.891C433.382 220.891 433.78 220.814 434.173 220.662C434.565 220.51 434.902 220.258 435.184 219.906L436.528 221.506C436.335 221.781 436.06 222.048 435.702 222.306C435.351 222.563 434.929 222.774 434.437 222.938C433.944 223.097 433.394 223.176 432.784 223.176ZM443.217 218.983V210.203H446.293V218.983C446.293 219.839 446.097 220.58 445.704 221.207C445.317 221.834 444.79 222.32 444.122 222.666C443.46 223.006 442.716 223.176 441.89 223.176C441.034 223.176 440.272 223.032 439.604 222.745C438.942 222.458 438.421 222.016 438.04 221.418C437.665 220.82 437.478 220.059 437.478 219.133H440.571C440.571 219.566 440.621 219.906 440.721 220.152C440.82 220.393 440.967 220.562 441.16 220.662C441.359 220.756 441.603 220.803 441.89 220.803C442.171 220.803 442.408 220.732 442.602 220.592C442.801 220.445 442.953 220.237 443.059 219.968C443.164 219.692 443.217 219.364 443.217 218.983ZM454.845 219.599C454.845 219.399 454.815 219.221 454.757 219.062C454.698 218.898 454.59 218.746 454.432 218.605C454.273 218.465 454.045 218.324 453.746 218.184C453.453 218.037 453.066 217.885 452.586 217.727C452.023 217.539 451.481 217.328 450.96 217.094C450.438 216.854 449.973 216.575 449.562 216.259C449.152 215.937 448.827 215.562 448.587 215.134C448.347 214.7 448.227 214.196 448.227 213.622C448.227 213.071 448.35 212.576 448.596 212.137C448.842 211.691 449.185 211.313 449.624 211.003C450.069 210.687 450.591 210.446 451.188 210.282C451.786 210.112 452.439 210.027 453.148 210.027C454.086 210.027 454.912 210.191 455.627 210.52C456.348 210.842 456.91 211.302 457.314 211.899C457.725 212.491 457.93 213.191 457.93 214H454.862C454.862 213.678 454.795 213.394 454.66 213.147C454.531 212.901 454.335 212.708 454.071 212.567C453.808 212.427 453.477 212.356 453.078 212.356C452.691 212.356 452.366 212.415 452.103 212.532C451.839 212.649 451.64 212.808 451.505 213.007C451.37 213.2 451.303 213.414 451.303 213.648C451.303 213.842 451.355 214.018 451.461 214.176C451.572 214.328 451.728 214.472 451.927 214.606C452.132 214.741 452.378 214.87 452.665 214.993C452.958 215.116 453.286 215.236 453.649 215.354C454.329 215.57 454.933 215.813 455.46 216.083C455.993 216.347 456.441 216.648 456.805 216.988C457.174 217.322 457.452 217.703 457.64 218.131C457.833 218.559 457.93 219.042 457.93 219.581C457.93 220.155 457.818 220.665 457.596 221.11C457.373 221.556 457.054 221.934 456.638 222.244C456.222 222.549 455.724 222.78 455.144 222.938C454.563 223.097 453.916 223.176 453.201 223.176C452.545 223.176 451.897 223.094 451.259 222.93C450.626 222.76 450.052 222.502 449.536 222.156C449.021 221.805 448.607 221.356 448.297 220.812C447.992 220.261 447.84 219.607 447.84 218.852H450.934C450.934 219.227 450.983 219.543 451.083 219.801C451.183 220.059 451.329 220.267 451.522 220.425C451.716 220.577 451.953 220.688 452.234 220.759C452.516 220.823 452.838 220.855 453.201 220.855C453.594 220.855 453.91 220.8 454.15 220.688C454.391 220.571 454.566 220.419 454.678 220.231C454.789 220.038 454.845 219.827 454.845 219.599Z" fill="white"/>
<rect x="501" y="196" width="104" height="41" rx="3" fill="#424242"/>
<rect x="501" y="196" width="104" height="41" rx="3" stroke="#424242" stroke-width="4"/>
<path d="M532.812 220.627V223H526.343V220.627H532.812ZM527.441 210.203V223H524.356V210.203H527.441ZM538.911 220.609V216.689C538.911 216.42 538.873 216.188 538.797 215.995C538.721 215.802 538.601 215.652 538.437 215.547C538.272 215.436 538.053 215.38 537.777 215.38C537.555 215.38 537.364 215.418 537.206 215.494C537.048 215.57 536.928 215.685 536.846 215.837C536.764 215.989 536.723 216.183 536.723 216.417H533.761C533.761 215.978 533.857 215.57 534.051 215.195C534.25 214.814 534.531 214.483 534.895 214.202C535.264 213.921 535.703 213.704 536.213 213.552C536.729 213.394 537.303 213.314 537.936 213.314C538.691 213.314 539.365 213.44 539.957 213.692C540.555 213.944 541.026 214.322 541.372 214.826C541.718 215.324 541.891 215.951 541.891 216.707V220.601C541.891 221.222 541.926 221.693 541.996 222.016C542.066 222.332 542.166 222.61 542.295 222.851V223H539.324C539.184 222.707 539.078 222.35 539.008 221.928C538.943 221.5 538.911 221.061 538.911 220.609ZM539.271 217.19L539.289 218.772H537.979C537.704 218.772 537.47 218.811 537.276 218.887C537.089 218.963 536.937 219.068 536.819 219.203C536.708 219.332 536.626 219.479 536.573 219.643C536.526 219.807 536.503 219.979 536.503 220.161C536.503 220.337 536.544 220.495 536.626 220.636C536.714 220.771 536.831 220.876 536.978 220.952C537.124 221.028 537.288 221.066 537.47 221.066C537.798 221.066 538.076 221.005 538.305 220.882C538.539 220.753 538.718 220.598 538.841 220.416C538.964 220.234 539.025 220.064 539.025 219.906L539.676 221.119C539.559 221.354 539.424 221.591 539.271 221.831C539.125 222.071 538.94 222.294 538.718 222.499C538.501 222.698 538.234 222.862 537.918 222.991C537.602 223.114 537.218 223.176 536.767 223.176C536.181 223.176 535.642 223.056 535.149 222.815C534.663 222.575 534.273 222.241 533.98 221.813C533.688 221.38 533.541 220.882 533.541 220.319C533.541 219.827 533.629 219.388 533.805 219.001C533.986 218.614 534.259 218.286 534.622 218.017C534.985 217.747 535.448 217.542 536.011 217.401C536.573 217.261 537.235 217.19 537.997 217.19H539.271ZM546.522 215.846V223H543.561V213.49H546.329L546.522 215.846ZM549.335 213.42L549.282 216.171C549.165 216.159 549.007 216.145 548.808 216.127C548.608 216.109 548.441 216.101 548.307 216.101C547.961 216.101 547.662 216.142 547.41 216.224C547.164 216.3 546.959 216.417 546.795 216.575C546.637 216.728 546.52 216.921 546.443 217.155C546.373 217.39 546.341 217.662 546.347 217.973L545.811 217.621C545.811 216.982 545.872 216.402 545.995 215.881C546.124 215.354 546.306 214.899 546.54 214.519C546.774 214.132 547.059 213.836 547.393 213.631C547.727 213.42 548.102 213.314 548.518 213.314C548.664 213.314 548.808 213.323 548.948 213.341C549.095 213.358 549.224 213.385 549.335 213.42ZM555.03 220.609V216.689C555.03 216.42 554.992 216.188 554.916 215.995C554.84 215.802 554.72 215.652 554.556 215.547C554.392 215.436 554.172 215.38 553.896 215.38C553.674 215.38 553.483 215.418 553.325 215.494C553.167 215.57 553.047 215.685 552.965 215.837C552.883 215.989 552.842 216.183 552.842 216.417H549.88C549.88 215.978 549.977 215.57 550.17 215.195C550.369 214.814 550.65 214.483 551.014 214.202C551.383 213.921 551.822 213.704 552.332 213.552C552.848 213.394 553.422 213.314 554.055 213.314C554.811 213.314 555.484 213.44 556.076 213.692C556.674 213.944 557.146 214.322 557.491 214.826C557.837 215.324 558.01 215.951 558.01 216.707V220.601C558.01 221.222 558.045 221.693 558.115 222.016C558.186 222.332 558.285 222.61 558.414 222.851V223H555.443C555.303 222.707 555.197 222.35 555.127 221.928C555.062 221.5 555.03 221.061 555.03 220.609ZM555.391 217.19L555.408 218.772H554.099C553.823 218.772 553.589 218.811 553.396 218.887C553.208 218.963 553.056 219.068 552.938 219.203C552.827 219.332 552.745 219.479 552.692 219.643C552.646 219.807 552.622 219.979 552.622 220.161C552.622 220.337 552.663 220.495 552.745 220.636C552.833 220.771 552.95 220.876 553.097 220.952C553.243 221.028 553.407 221.066 553.589 221.066C553.917 221.066 554.195 221.005 554.424 220.882C554.658 220.753 554.837 220.598 554.96 220.416C555.083 220.234 555.145 220.064 555.145 219.906L555.795 221.119C555.678 221.354 555.543 221.591 555.391 221.831C555.244 222.071 555.06 222.294 554.837 222.499C554.62 222.698 554.354 222.862 554.037 222.991C553.721 223.114 553.337 223.176 552.886 223.176C552.3 223.176 551.761 223.056 551.269 222.815C550.782 222.575 550.393 222.241 550.1 221.813C549.807 221.38 549.66 220.882 549.66 220.319C549.66 219.827 549.748 219.388 549.924 219.001C550.105 218.614 550.378 218.286 550.741 218.017C551.104 217.747 551.567 217.542 552.13 217.401C552.692 217.261 553.354 217.19 554.116 217.19H555.391ZM562.94 220.97L564.812 213.49H567.933L564.821 223H562.976L562.94 220.97ZM561.833 213.49L563.679 220.97L563.661 223H561.807L558.704 213.49H561.833ZM573.294 223.176C572.521 223.176 571.829 223.056 571.22 222.815C570.61 222.569 570.095 222.232 569.673 221.805C569.257 221.377 568.938 220.885 568.715 220.328C568.498 219.771 568.39 219.183 568.39 218.562V218.228C568.39 217.53 568.486 216.886 568.68 216.294C568.873 215.696 569.16 215.175 569.541 214.729C569.922 214.284 570.399 213.938 570.974 213.692C571.548 213.44 572.216 213.314 572.978 213.314C573.651 213.314 574.255 213.423 574.788 213.64C575.321 213.856 575.772 214.167 576.142 214.571C576.517 214.976 576.801 215.465 576.994 216.039C577.193 216.613 577.293 217.258 577.293 217.973V219.177H569.523V217.322H574.401V217.094C574.407 216.777 574.352 216.508 574.234 216.285C574.123 216.062 573.959 215.893 573.742 215.775C573.525 215.658 573.262 215.6 572.951 215.6C572.629 215.6 572.362 215.67 572.151 215.811C571.946 215.951 571.785 216.145 571.668 216.391C571.557 216.631 571.478 216.909 571.431 217.226C571.384 217.542 571.36 217.876 571.36 218.228V218.562C571.36 218.913 571.407 219.232 571.501 219.52C571.601 219.807 571.741 220.053 571.923 220.258C572.11 220.457 572.333 220.612 572.591 220.724C572.854 220.835 573.153 220.891 573.487 220.891C573.892 220.891 574.29 220.814 574.683 220.662C575.075 220.51 575.412 220.258 575.693 219.906L577.038 221.506C576.845 221.781 576.569 222.048 576.212 222.306C575.86 222.563 575.438 222.774 574.946 222.938C574.454 223.097 573.903 223.176 573.294 223.176ZM581.626 209.5V223H578.655V209.5H581.626Z" fill="white"/>
<rect x="625" y="196" width="131" height="41" rx="3" fill="#424242"/>
<rect x="625" y="196" width="131" height="41" rx="3" stroke="#424242" stroke-width="4"/>
<path d="M654.359 210.203V223H651.274V210.203H654.359ZM658.209 210.203V212.585H647.513V210.203H658.209ZM661.575 221.884L664.036 213.49H667.218L663.395 224.415C663.312 224.655 663.204 224.913 663.069 225.188C662.935 225.47 662.75 225.736 662.516 225.988C662.281 226.24 661.979 226.445 661.61 226.604C661.247 226.762 660.796 226.841 660.257 226.841C659.97 226.841 659.759 226.826 659.624 226.797C659.495 226.773 659.296 226.729 659.026 226.665V224.547C659.103 224.547 659.167 224.547 659.22 224.547C659.278 224.547 659.343 224.547 659.413 224.547C659.729 224.547 659.981 224.515 660.169 224.45C660.362 224.386 660.509 224.292 660.608 224.169C660.714 224.046 660.796 223.896 660.854 223.721L661.575 221.884ZM660.951 213.49L662.823 220.144L663.148 223.281H661.162L657.778 213.49H660.951ZM670.979 215.318V226.656H668.018V213.49H670.777L670.979 215.318ZM676.815 218.131V218.315C676.815 219.007 676.736 219.648 676.578 220.24C676.42 220.832 676.186 221.348 675.875 221.787C675.564 222.227 675.178 222.569 674.715 222.815C674.258 223.056 673.728 223.176 673.124 223.176C672.556 223.176 672.066 223.05 671.656 222.798C671.246 222.546 670.903 222.197 670.628 221.752C670.353 221.307 670.13 220.797 669.96 220.223C669.79 219.648 669.655 219.042 669.556 218.403V218.166C669.655 217.48 669.79 216.845 669.96 216.259C670.13 215.667 670.353 215.151 670.628 214.712C670.903 214.272 671.243 213.93 671.647 213.684C672.058 213.438 672.547 213.314 673.115 213.314C673.719 213.314 674.249 213.429 674.706 213.657C675.169 213.886 675.556 214.214 675.866 214.642C676.183 215.063 676.42 215.57 676.578 216.162C676.736 216.754 676.815 217.41 676.815 218.131ZM673.854 218.315V218.131C673.854 217.762 673.827 217.425 673.774 217.12C673.722 216.81 673.637 216.54 673.52 216.312C673.408 216.083 673.259 215.907 673.071 215.784C672.884 215.661 672.652 215.6 672.377 215.6C672.061 215.6 671.794 215.649 671.577 215.749C671.366 215.843 671.196 215.989 671.067 216.188C670.944 216.382 670.856 216.625 670.804 216.918C670.757 217.205 670.736 217.542 670.742 217.929V218.649C670.73 219.095 670.774 219.487 670.874 219.827C670.974 220.161 671.146 220.422 671.393 220.609C671.639 220.797 671.973 220.891 672.395 220.891C672.676 220.891 672.91 220.826 673.098 220.697C673.285 220.562 673.435 220.378 673.546 220.144C673.657 219.903 673.736 219.628 673.783 219.317C673.83 219.007 673.854 218.673 673.854 218.315ZM682.739 223.176C681.966 223.176 681.274 223.056 680.665 222.815C680.056 222.569 679.54 222.232 679.118 221.805C678.702 221.377 678.383 220.885 678.16 220.328C677.943 219.771 677.835 219.183 677.835 218.562V218.228C677.835 217.53 677.932 216.886 678.125 216.294C678.318 215.696 678.605 215.175 678.986 214.729C679.367 214.284 679.845 213.938 680.419 213.692C680.993 213.44 681.661 213.314 682.423 213.314C683.097 213.314 683.7 213.423 684.233 213.64C684.767 213.856 685.218 214.167 685.587 214.571C685.962 214.976 686.246 215.465 686.439 216.039C686.639 216.613 686.738 217.258 686.738 217.973V219.177H678.969V217.322H683.847V217.094C683.853 216.777 683.797 216.508 683.68 216.285C683.568 216.062 683.404 215.893 683.188 215.775C682.971 215.658 682.707 215.6 682.396 215.6C682.074 215.6 681.808 215.67 681.597 215.811C681.392 215.951 681.23 216.145 681.113 216.391C681.002 216.631 680.923 216.909 680.876 217.226C680.829 217.542 680.806 217.876 680.806 218.228V218.562C680.806 218.913 680.853 219.232 680.946 219.52C681.046 219.807 681.187 220.053 681.368 220.258C681.556 220.457 681.778 220.612 682.036 220.724C682.3 220.835 682.599 220.891 682.933 220.891C683.337 220.891 683.735 220.814 684.128 220.662C684.521 220.51 684.857 220.258 685.139 219.906L686.483 221.506C686.29 221.781 686.015 222.048 685.657 222.306C685.306 222.563 684.884 222.774 684.392 222.938C683.899 223.097 683.349 223.176 682.739 223.176ZM692.926 220.328C692.926 220.164 692.87 220.023 692.759 219.906C692.653 219.783 692.466 219.672 692.196 219.572C691.927 219.467 691.549 219.361 691.062 219.256C690.6 219.156 690.163 219.024 689.753 218.86C689.349 218.696 688.994 218.497 688.689 218.263C688.385 218.028 688.145 217.75 687.969 217.428C687.799 217.105 687.714 216.736 687.714 216.32C687.714 215.916 687.799 215.535 687.969 215.178C688.145 214.814 688.399 214.495 688.733 214.22C689.073 213.938 689.486 213.719 689.973 213.561C690.459 213.396 691.013 213.314 691.634 213.314C692.489 213.314 693.228 213.446 693.849 213.71C694.47 213.968 694.947 214.331 695.281 214.8C695.621 215.263 695.791 215.799 695.791 216.408H692.829C692.829 216.168 692.788 215.963 692.706 215.793C692.63 215.623 692.504 215.494 692.328 215.406C692.152 215.312 691.918 215.266 691.625 215.266C691.42 215.266 691.232 215.304 691.062 215.38C690.898 215.456 690.767 215.562 690.667 215.696C690.567 215.831 690.518 215.989 690.518 216.171C690.518 216.3 690.547 216.417 690.605 216.522C690.67 216.622 690.767 216.716 690.896 216.804C691.024 216.886 691.188 216.962 691.388 217.032C691.587 217.097 691.827 217.155 692.108 217.208C692.747 217.325 693.345 217.492 693.901 217.709C694.458 217.926 694.909 218.233 695.255 218.632C695.606 219.03 695.782 219.566 695.782 220.24C695.782 220.662 695.686 221.052 695.492 221.409C695.299 221.761 695.021 222.071 694.657 222.341C694.294 222.604 693.857 222.81 693.348 222.956C692.838 223.103 692.264 223.176 691.625 223.176C690.717 223.176 689.949 223.015 689.322 222.692C688.695 222.364 688.221 221.954 687.898 221.462C687.582 220.964 687.424 220.46 687.424 219.95H690.184C690.195 220.243 690.266 220.483 690.395 220.671C690.529 220.858 690.708 220.996 690.931 221.084C691.153 221.172 691.411 221.216 691.704 221.216C691.974 221.216 692.196 221.178 692.372 221.102C692.554 221.025 692.691 220.923 692.785 220.794C692.879 220.659 692.926 220.504 692.926 220.328ZM701.188 220.891C701.463 220.891 701.697 220.841 701.891 220.741C702.09 220.636 702.239 220.489 702.339 220.302C702.444 220.108 702.494 219.877 702.488 219.607H705.274C705.28 220.322 705.104 220.949 704.747 221.488C704.396 222.021 703.915 222.438 703.306 222.736C702.702 223.029 702.02 223.176 701.258 223.176C700.514 223.176 699.863 223.056 699.307 222.815C698.75 222.569 698.284 222.229 697.909 221.796C697.54 221.356 697.262 220.844 697.074 220.258C696.893 219.672 696.802 219.036 696.802 218.351V218.148C696.802 217.463 696.893 216.827 697.074 216.241C697.262 215.649 697.54 215.137 697.909 214.703C698.284 214.264 698.747 213.924 699.298 213.684C699.854 213.438 700.502 213.314 701.24 213.314C702.031 213.314 702.729 213.464 703.332 213.763C703.941 214.062 704.419 214.495 704.765 215.063C705.11 215.632 705.28 216.32 705.274 217.129H702.488C702.494 216.842 702.45 216.584 702.356 216.355C702.263 216.127 702.116 215.945 701.917 215.811C701.724 215.67 701.475 215.6 701.17 215.6C700.865 215.6 700.619 215.667 700.432 215.802C700.244 215.937 700.101 216.124 700.001 216.364C699.907 216.599 699.843 216.868 699.808 217.173C699.778 217.478 699.764 217.803 699.764 218.148V218.351C699.764 218.702 699.778 219.033 699.808 219.344C699.843 219.648 699.91 219.918 700.01 220.152C700.109 220.381 700.253 220.562 700.44 220.697C700.628 220.826 700.877 220.891 701.188 220.891ZM709.528 215.846V223H706.566V213.49H709.335L709.528 215.846ZM712.341 213.42L712.288 216.171C712.171 216.159 712.013 216.145 711.813 216.127C711.614 216.109 711.447 216.101 711.312 216.101C710.967 216.101 710.668 216.142 710.416 216.224C710.17 216.3 709.965 216.417 709.801 216.575C709.643 216.728 709.525 216.921 709.449 217.155C709.379 217.39 709.347 217.662 709.353 217.973L708.816 217.621C708.816 216.982 708.878 216.402 709.001 215.881C709.13 215.354 709.312 214.899 709.546 214.519C709.78 214.132 710.064 213.836 710.398 213.631C710.732 213.42 711.107 213.314 711.523 213.314C711.67 213.314 711.813 213.323 711.954 213.341C712.101 213.358 712.229 213.385 712.341 213.42ZM716.489 213.49V223H713.519V213.49H716.489ZM713.343 211.038C713.343 210.616 713.495 210.271 713.8 210.001C714.104 209.731 714.5 209.597 714.986 209.597C715.473 209.597 715.868 209.731 716.173 210.001C716.478 210.271 716.63 210.616 716.63 211.038C716.63 211.46 716.478 211.806 716.173 212.075C715.868 212.345 715.473 212.479 714.986 212.479C714.5 212.479 714.104 212.345 713.8 212.075C713.495 211.806 713.343 211.46 713.343 211.038ZM721.306 215.318V226.656H718.344V213.49H721.104L721.306 215.318ZM727.142 218.131V218.315C727.142 219.007 727.062 219.648 726.904 220.24C726.746 220.832 726.512 221.348 726.201 221.787C725.891 222.227 725.504 222.569 725.041 222.815C724.584 223.056 724.054 223.176 723.45 223.176C722.882 223.176 722.393 223.05 721.982 222.798C721.572 222.546 721.229 222.197 720.954 221.752C720.679 221.307 720.456 220.797 720.286 220.223C720.116 219.648 719.981 219.042 719.882 218.403V218.166C719.981 217.48 720.116 216.845 720.286 216.259C720.456 215.667 720.679 215.151 720.954 214.712C721.229 214.272 721.569 213.93 721.974 213.684C722.384 213.438 722.873 213.314 723.441 213.314C724.045 213.314 724.575 213.429 725.032 213.657C725.495 213.886 725.882 214.214 726.192 214.642C726.509 215.063 726.746 215.57 726.904 216.162C727.062 216.754 727.142 217.41 727.142 218.131ZM724.18 218.315V218.131C724.18 217.762 724.153 217.425 724.101 217.12C724.048 216.81 723.963 216.54 723.846 216.312C723.734 216.083 723.585 215.907 723.397 215.784C723.21 215.661 722.979 215.6 722.703 215.6C722.387 215.6 722.12 215.649 721.903 215.749C721.692 215.843 721.522 215.989 721.394 216.188C721.271 216.382 721.183 216.625 721.13 216.918C721.083 217.205 721.062 217.542 721.068 217.929V218.649C721.057 219.095 721.101 219.487 721.2 219.827C721.3 220.161 721.473 220.422 721.719 220.609C721.965 220.797 722.299 220.891 722.721 220.891C723.002 220.891 723.236 220.826 723.424 220.697C723.611 220.562 723.761 220.378 723.872 220.144C723.983 219.903 724.062 219.628 724.109 219.317C724.156 219.007 724.18 218.673 724.18 218.315ZM733.47 213.49V215.547H727.739V213.49H733.47ZM728.943 211.126H731.905V219.897C731.905 220.149 731.935 220.346 731.993 220.486C732.052 220.621 732.151 220.718 732.292 220.776C732.438 220.829 732.632 220.855 732.872 220.855C733.042 220.855 733.183 220.853 733.294 220.847C733.405 220.835 733.511 220.82 733.61 220.803V222.921C733.358 223.003 733.095 223.064 732.819 223.105C732.544 223.152 732.251 223.176 731.94 223.176C731.308 223.176 730.766 223.076 730.314 222.877C729.869 222.678 729.529 222.364 729.295 221.937C729.061 221.509 728.943 220.952 728.943 220.267V211.126Z" fill="white"/>
<g clip-path="url(#clip0_3_61)">
<path d="M1066 0H1348C1356.28 0 1363 6.71573 1363 15V282C1363 290.284 1356.28 297 1348 297H1066V0Z" fill="#6C5CE7"/>
<path d="M1198.11 41.3596C1186.02 42.6067 1177.98 44.463 1168.53 48.1755C1155.01 53.4542 1144.05 60.7922 1133.58 71.5236C1119.22 86.2576 1110.38 103.138 1106.03 123.963C1101.3 146.789 1104 172.051 1113.45 192.905C1122.41 212.744 1137.12 229.363 1155.48 240.355C1174.13 251.551 1198.98 257.497 1219.89 255.814C1240.28 254.132 1258.53 247.49 1273.55 236.237C1279.18 232.002 1284.78 226.724 1285.12 225.273C1285.44 224.084 1284.6 222.721 1281.44 219.27C1276.6 213.962 1275.52 213.15 1273.9 213.585C1273.52 213.672 1271.81 214.948 1270.04 216.398C1256.99 227.333 1244.9 233.336 1230.02 236.266C1223.26 237.571 1213.77 238.238 1210.87 237.571L1210 237.368L1211.14 237.136C1212.9 236.788 1218.39 234.584 1222.04 232.756C1230.89 228.319 1238.23 222.866 1245.59 215.238C1252.15 208.451 1257.57 200.91 1261.57 193.021C1262.15 191.89 1263.66 189.744 1264.97 188.235C1269.69 182.725 1272.25 180.404 1278.13 176.083C1281.3 173.791 1284.08 171.558 1284.37 171.094C1284.63 170.659 1285.5 167.556 1286.26 164.249C1287.68 157.955 1289.45 151.4 1289.94 150.443C1290.23 149.95 1290.29 149.95 1290.93 150.356C1292.06 151.11 1293.25 150.936 1294.09 149.921C1294.99 148.848 1295.04 147.978 1294.23 146.963C1293.36 145.832 1282.6 139.219 1281.67 139.219C1281.18 139.219 1280.54 139.538 1280.02 140.06C1278.89 141.22 1278.89 142.467 1280.02 143.569L1280.89 144.352L1277.21 147.978C1275.18 149.95 1271.52 153.257 1269.11 155.287C1265.4 158.39 1264.65 159.144 1264.42 160.044C1264.13 161.175 1263.37 166.337 1263.08 169.238C1262.88 171.181 1261.69 177.881 1261.05 180.578C1259.31 187.974 1250.75 200.997 1241.62 210.162C1231.12 220.691 1217.55 228.841 1205.8 231.683C1202.55 232.495 1195.94 233.017 1192.31 232.785C1181.38 232.118 1165.08 224.925 1154.03 215.934C1152.61 214.774 1149.82 212.193 1147.88 210.22C1134.54 196.704 1126.73 180.897 1123.69 161.117C1122.82 155.316 1122.59 144.207 1123.25 138.03C1124.7 124.572 1128.5 112.448 1134.48 102.297C1144.02 86.0546 1157.13 74.134 1173.05 67.202C1186.51 61.3433 1201.65 59.11 1214.79 61.0532C1222.45 62.1844 1231.58 64.9977 1237.79 68.1302C1242.66 70.5955 1245.01 72.2487 1250.99 77.2954C1252.35 78.4556 1252.67 78.6006 1253.92 78.6006C1255.74 78.6006 1256.44 78.0785 1262.01 72.4518C1266.1 68.2752 1266.42 67.8981 1266.42 66.883C1266.42 65.3168 1265.81 64.3887 1263.46 62.3004C1257.8 57.3117 1252.79 53.9763 1246.03 50.6408C1236.77 46.0582 1228.04 43.4478 1216.82 41.9106C1213.63 41.4466 1200.78 41.0985 1198.11 41.3596ZM1275.06 165.699C1275.52 166.076 1275.5 167.498 1275 168.455C1274.77 168.89 1273.52 170.282 1272.22 171.558C1270.91 172.834 1269.2 174.836 1268.42 175.967C1267.64 177.127 1266.94 178.084 1266.85 178.084C1266.71 178.084 1267.81 175.648 1269.26 172.718C1269.9 171.442 1270.54 169.992 1270.65 169.528C1270.97 168.078 1272.28 165.873 1273.06 165.467C1273.78 165.09 1274.36 165.148 1275.06 165.699Z" fill="black"/>
<path d="M1321.96 70.0154C1321.18 70.3925 1320.22 71.0016 1319.87 71.3786C1319.29 72.0167 1314.04 79.9638 1298.47 103.689C1294.96 109.055 1289.56 117.205 1286.52 121.874C1280.92 130.315 1280.92 130.315 1280.92 131.939C1280.92 134.578 1281.21 134.868 1289.13 139.77C1295.45 143.656 1296.38 144.149 1297.48 144.149C1299.48 144.149 1300.38 143.395 1302.18 140.176C1309.2 127.588 1319.18 107.721 1329.73 85.2715L1332.66 79.0356L1332.69 76.7153C1332.69 74.6851 1332.57 74.221 1331.88 73.0318C1329.91 69.6674 1325.5 68.3332 1321.96 70.0154Z" fill="black"/>
<path d="M1196.37 111.085C1191.53 112.129 1185.32 116.161 1179.41 122.077C1175.4 126.08 1172.73 129.386 1167.6 136.753C1163.57 142.525 1162.09 144.439 1162.47 143.424C1162.58 143.105 1163.05 141.8 1163.51 140.524C1165.57 134.926 1168.21 124.253 1168.82 119.177C1169.11 116.857 1168.62 115.378 1166.99 113.695C1164.87 111.52 1162.09 111.114 1158.81 112.564C1156.26 113.695 1155.68 114.71 1156.23 117.263C1156.7 119.467 1156.23 123.644 1154.9 128.98C1154.37 131.185 1151.88 139.77 1149.39 148.065C1143.27 168.397 1141.38 175.01 1141.21 176.982C1140.83 180.868 1144.31 184.378 1149.1 184.929C1150 185.045 1151.04 184.987 1151.71 184.755C1153.82 184.059 1154.52 183.073 1156.96 177.562C1160.26 170.05 1166.32 158.332 1171.05 150.385C1175.14 143.453 1181.61 135.013 1186.25 130.489C1189.41 127.443 1191.12 126.283 1192.95 125.993C1194.02 125.819 1194.2 125.877 1194.66 126.602C1195.13 127.327 1195.13 127.501 1194.69 129.589C1194.4 130.808 1193.01 135.477 1191.59 139.944C1185.58 158.448 1180.54 177.852 1181.03 180.433C1181.46 182.667 1182.8 184.204 1184.83 184.755C1187.27 185.451 1190.95 184.465 1192.69 182.638C1193.15 182.116 1194.69 179.302 1196.08 176.344C1202.29 163.089 1206.76 154.852 1212.96 145.252C1217.02 138.987 1219.05 136.405 1223.49 131.939C1228.65 126.747 1231.58 124.949 1233.21 125.993C1235.32 127.385 1233.9 133.418 1227.61 149.95C1223.72 160.131 1222.27 165.96 1222.24 171.558C1222.24 174.429 1222.36 175.358 1222.88 176.924C1224.13 180.549 1226.25 183.015 1229.26 184.407C1231.38 185.393 1235.18 185.596 1238.05 184.929C1242.05 184.001 1246.93 180.926 1251.39 176.547C1256 171.993 1257.22 169.441 1255.6 167.817C1254.53 166.743 1253.54 166.83 1252.26 168.165C1248.7 171.877 1242.11 176.257 1239.36 176.779C1238.43 176.953 1238.2 176.866 1237.44 176.141C1236.83 175.532 1236.54 174.865 1236.37 173.878C1236.08 171.79 1236.43 167.846 1237.24 164.597C1238.02 161.465 1241.15 151.661 1244.17 142.844C1245.88 137.885 1248 130.75 1249.04 126.457C1249.25 125.587 1249.42 123.818 1249.42 122.542C1249.39 118.191 1247.97 115.291 1244.95 113.463C1242.95 112.274 1241.88 111.955 1239.15 111.752C1234.92 111.433 1231.79 112.564 1225.81 116.509C1219.78 120.54 1214.09 126.776 1206.41 137.827C1204.78 140.205 1203.39 142.119 1203.33 142.119C1203.3 142.119 1203.77 140.524 1204.41 138.552C1205.02 136.608 1206.06 132.983 1206.73 130.518C1207.86 126.312 1207.95 125.79 1207.95 122.106C1207.95 117.64 1207.48 115.9 1205.65 113.753C1203.71 111.491 1199.74 110.331 1196.37 111.085Z" fill="black"/>
</g>
<defs>
<clipPath id="clip0_3_61">
<path d="M1066 0H1348C1356.28 0 1363 6.71573 1363 15V282C1363 290.284 1356.28 297 1348 297H1066V0Z" fill="white"/>
</clipPath>
</defs>
</svg>
