<svg width="1363" height="163" viewBox="0 0 1363 163" fill="none" xmlns="http://www.w3.org/2000/svg">
<path d="M0 15C0 6.71573 6.71573 0 15 0H37V163H15C6.71573 163 0 156.284 0 148V15Z" fill="#424242"/>
<rect width="1097" height="163" transform="translate(37)" fill="#F0F0F0"/>
<path d="M104.414 55.3398H107.918C107.848 56.4883 107.531 57.5078 106.969 58.3984C106.414 59.2891 105.637 59.9844 104.637 60.4844C103.645 60.9844 102.449 61.2344 101.051 61.2344C99.957 61.2344 98.9766 61.0469 98.1094 60.6719C97.2422 60.2891 96.5 59.7422 95.8828 59.0312C95.2734 58.3203 94.8086 57.4609 94.4883 56.4531C94.168 55.4453 94.0078 54.3164 94.0078 53.0664V51.8828C94.0078 50.6328 94.1719 49.5039 94.5 48.4961C94.8359 47.4805 95.3125 46.6172 95.9297 45.9062C96.5547 45.1953 97.3008 44.6484 98.168 44.2656C99.0352 43.8828 100.004 43.6914 101.074 43.6914C102.496 43.6914 103.695 43.9492 104.672 44.4648C105.656 44.9805 106.418 45.6914 106.957 46.5977C107.504 47.5039 107.832 48.5352 107.941 49.6914H104.426C104.387 49.0039 104.25 48.4219 104.016 47.9453C103.781 47.4609 103.426 47.0977 102.949 46.8555C102.48 46.6055 101.855 46.4805 101.074 46.4805C100.488 46.4805 99.9766 46.5898 99.5391 46.8086C99.1016 47.0273 98.7344 47.3594 98.4375 47.8047C98.1406 48.25 97.918 48.8125 97.7695 49.4922C97.6289 50.1641 97.5586 50.9531 97.5586 51.8594V53.0664C97.5586 53.9492 97.625 54.7266 97.7578 55.3984C97.8906 56.0625 98.0938 56.625 98.3672 57.0859C98.6484 57.5391 99.0078 57.8828 99.4453 58.1172C99.8906 58.3438 100.426 58.457 101.051 58.457C101.785 58.457 102.391 58.3398 102.867 58.1055C103.344 57.8711 103.707 57.5234 103.957 57.0625C104.215 56.6016 104.367 56.0273 104.414 55.3398ZM109.477 54.7891V54.543C109.477 53.6133 109.609 52.7578 109.875 51.9766C110.141 51.1875 110.527 50.5039 111.035 49.9258C111.543 49.3477 112.168 48.8984 112.91 48.5781C113.652 48.25 114.504 48.0859 115.465 48.0859C116.426 48.0859 117.281 48.25 118.031 48.5781C118.781 48.8984 119.41 49.3477 119.918 49.9258C120.434 50.5039 120.824 51.1875 121.09 51.9766C121.355 52.7578 121.488 53.6133 121.488 54.543V54.7891C121.488 55.7109 121.355 56.5664 121.09 57.3555C120.824 58.1367 120.434 58.8203 119.918 59.4062C119.41 59.9844 118.785 60.4336 118.043 60.7539C117.301 61.0742 116.449 61.2344 115.488 61.2344C114.527 61.2344 113.672 61.0742 112.922 60.7539C112.18 60.4336 111.551 59.9844 111.035 59.4062C110.527 58.8203 110.141 58.1367 109.875 57.3555C109.609 56.5664 109.477 55.7109 109.477 54.7891ZM112.852 54.543V54.7891C112.852 55.3203 112.898 55.8164 112.992 56.2773C113.086 56.7383 113.234 57.1445 113.438 57.4961C113.648 57.8398 113.922 58.1094 114.258 58.3047C114.594 58.5 115.004 58.5977 115.488 58.5977C115.957 58.5977 116.359 58.5 116.695 58.3047C117.031 58.1094 117.301 57.8398 117.504 57.4961C117.707 57.1445 117.855 56.7383 117.949 56.2773C118.051 55.8164 118.102 55.3203 118.102 54.7891V54.543C118.102 54.0273 118.051 53.543 117.949 53.0898C117.855 52.6289 117.703 52.2227 117.492 51.8711C117.289 51.5117 117.02 51.2305 116.684 51.0273C116.348 50.8242 115.941 50.7227 115.465 50.7227C114.988 50.7227 114.582 50.8242 114.246 51.0273C113.918 51.2305 113.648 51.5117 113.438 51.8711C113.234 52.2227 113.086 52.6289 112.992 53.0898C112.898 53.543 112.852 54.0273 112.852 54.543ZM131.062 57.9648V48.3203H134.438V61H131.262L131.062 57.9648ZM131.438 55.3633L132.434 55.3398C132.434 56.1836 132.336 56.9688 132.141 57.6953C131.945 58.4141 131.652 59.0391 131.262 59.5703C130.871 60.0938 130.379 60.5039 129.785 60.8008C129.191 61.0898 128.492 61.2344 127.688 61.2344C127.07 61.2344 126.5 61.1484 125.977 60.9766C125.461 60.7969 125.016 60.5195 124.641 60.1445C124.273 59.7617 123.984 59.2734 123.773 58.6797C123.57 58.0781 123.469 57.3555 123.469 56.5117V48.3203H126.844V56.5352C126.844 56.9102 126.887 57.2266 126.973 57.4844C127.066 57.7422 127.195 57.9531 127.359 58.1172C127.523 58.2812 127.715 58.3984 127.934 58.4688C128.16 58.5391 128.41 58.5742 128.684 58.5742C129.379 58.5742 129.926 58.4336 130.324 58.1523C130.73 57.8711 131.016 57.4883 131.18 57.0039C131.352 56.5117 131.438 55.9648 131.438 55.3633ZM140.391 51.0859V61H137.016V48.3203H140.191L140.391 51.0859ZM144.211 48.2383L144.152 51.3672C143.988 51.3438 143.789 51.3242 143.555 51.3086C143.328 51.2852 143.121 51.2734 142.934 51.2734C142.457 51.2734 142.043 51.3359 141.691 51.4609C141.348 51.5781 141.059 51.7539 140.824 51.9883C140.598 52.2227 140.426 52.5078 140.309 52.8438C140.199 53.1797 140.137 53.5625 140.121 53.9922L139.441 53.7812C139.441 52.9609 139.523 52.207 139.688 51.5195C139.852 50.8242 140.09 50.2188 140.402 49.7031C140.723 49.1875 141.113 48.7891 141.574 48.5078C142.035 48.2266 142.562 48.0859 143.156 48.0859C143.344 48.0859 143.535 48.1016 143.73 48.1328C143.926 48.1562 144.086 48.1914 144.211 48.2383ZM152.66 57.4961C152.66 57.2539 152.59 57.0352 152.449 56.8398C152.309 56.6445 152.047 56.4648 151.664 56.3008C151.289 56.1289 150.746 55.9727 150.035 55.832C149.395 55.6914 148.797 55.5156 148.242 55.3047C147.695 55.0859 147.219 54.8242 146.812 54.5195C146.414 54.2148 146.102 53.8555 145.875 53.4414C145.648 53.0195 145.535 52.5391 145.535 52C145.535 51.4688 145.648 50.9688 145.875 50.5C146.109 50.0312 146.441 49.6172 146.871 49.2578C147.309 48.8906 147.84 48.6055 148.465 48.4023C149.098 48.1914 149.809 48.0859 150.598 48.0859C151.699 48.0859 152.645 48.2617 153.434 48.6133C154.23 48.9648 154.84 49.4492 155.262 50.0664C155.691 50.6758 155.906 51.3711 155.906 52.1523H152.531C152.531 51.8242 152.461 51.5312 152.32 51.2734C152.188 51.0078 151.977 50.8008 151.688 50.6523C151.406 50.4961 151.039 50.418 150.586 50.418C150.211 50.418 149.887 50.4844 149.613 50.6172C149.34 50.7422 149.129 50.9141 148.98 51.1328C148.84 51.3438 148.77 51.5781 148.77 51.8359C148.77 52.0312 148.809 52.207 148.887 52.3633C148.973 52.5117 149.109 52.6484 149.297 52.7734C149.484 52.8984 149.727 53.0156 150.023 53.125C150.328 53.2266 150.703 53.3203 151.148 53.4062C152.062 53.5938 152.879 53.8398 153.598 54.1445C154.316 54.4414 154.887 54.8477 155.309 55.3633C155.73 55.8711 155.941 56.5391 155.941 57.3672C155.941 57.9297 155.816 58.4453 155.566 58.9141C155.316 59.3828 154.957 59.793 154.488 60.1445C154.02 60.4883 153.457 60.7578 152.801 60.9531C152.152 61.1406 151.422 61.2344 150.609 61.2344C149.43 61.2344 148.43 61.0234 147.609 60.6016C146.797 60.1797 146.18 59.6445 145.758 58.9961C145.344 58.3398 145.137 57.668 145.137 56.9805H148.336C148.352 57.4414 148.469 57.8125 148.688 58.0938C148.914 58.375 149.199 58.5781 149.543 58.7031C149.895 58.8281 150.273 58.8906 150.68 58.8906C151.117 58.8906 151.48 58.832 151.77 58.7148C152.059 58.5898 152.277 58.4258 152.426 58.2227C152.582 58.0117 152.66 57.7695 152.66 57.4961ZM163.969 61.2344C162.984 61.2344 162.102 61.0781 161.32 60.7656C160.539 60.4453 159.875 60.0039 159.328 59.4414C158.789 58.8789 158.375 58.2266 158.086 57.4844C157.797 56.7344 157.652 55.9375 157.652 55.0938V54.625C157.652 53.6641 157.789 52.7852 158.062 51.9883C158.336 51.1914 158.727 50.5 159.234 49.9141C159.75 49.3281 160.375 48.8789 161.109 48.5664C161.844 48.2461 162.672 48.0859 163.594 48.0859C164.492 48.0859 165.289 48.2344 165.984 48.5312C166.68 48.8281 167.262 49.25 167.73 49.7969C168.207 50.3438 168.566 51 168.809 51.7656C169.051 52.5234 169.172 53.3672 169.172 54.2969V55.7031H159.094V53.4531H165.855V53.1953C165.855 52.7266 165.77 52.3086 165.598 51.9414C165.434 51.5664 165.184 51.2695 164.848 51.0508C164.512 50.832 164.082 50.7227 163.559 50.7227C163.113 50.7227 162.73 50.8203 162.41 51.0156C162.09 51.2109 161.828 51.4844 161.625 51.8359C161.43 52.1875 161.281 52.6016 161.18 53.0781C161.086 53.5469 161.039 54.0625 161.039 54.625V55.0938C161.039 55.6016 161.109 56.0703 161.25 56.5C161.398 56.9297 161.605 57.3008 161.871 57.6133C162.145 57.9258 162.473 58.168 162.855 58.3398C163.246 58.5117 163.688 58.5977 164.18 58.5977C164.789 58.5977 165.355 58.4805 165.879 58.2461C166.41 58.0039 166.867 57.6406 167.25 57.1562L168.891 58.9375C168.625 59.3203 168.262 59.6875 167.801 60.0391C167.348 60.3906 166.801 60.6797 166.16 60.9062C165.52 61.125 164.789 61.2344 163.969 61.2344ZM178.887 43.9375H181.863L186.246 56.4648L190.629 43.9375H193.605L187.441 61H185.051L178.887 43.9375ZM177.281 43.9375H180.246L180.785 56.1484V61H177.281V43.9375ZM192.246 43.9375H195.223V61H191.707V56.1484L192.246 43.9375ZM204.938 58.1406V52.4922C204.938 52.0859 204.871 51.7383 204.738 51.4492C204.605 51.1523 204.398 50.9219 204.117 50.7578C203.844 50.5938 203.488 50.5117 203.051 50.5117C202.676 50.5117 202.352 50.5781 202.078 50.7109C201.805 50.8359 201.594 51.0195 201.445 51.2617C201.297 51.4961 201.223 51.7734 201.223 52.0938H197.848C197.848 51.5547 197.973 51.043 198.223 50.5586C198.473 50.0742 198.836 49.6484 199.312 49.2812C199.789 48.9062 200.355 48.6133 201.012 48.4023C201.676 48.1914 202.418 48.0859 203.238 48.0859C204.223 48.0859 205.098 48.25 205.863 48.5781C206.629 48.9062 207.23 49.3984 207.668 50.0547C208.113 50.7109 208.336 51.5312 208.336 52.5156V57.9414C208.336 58.6367 208.379 59.207 208.465 59.6523C208.551 60.0898 208.676 60.4727 208.84 60.8008V61H205.43C205.266 60.6562 205.141 60.2266 205.055 59.7109C204.977 59.1875 204.938 58.6641 204.938 58.1406ZM205.383 53.2773L205.406 55.1875H203.52C203.074 55.1875 202.688 55.2383 202.359 55.3398C202.031 55.4414 201.762 55.5859 201.551 55.7734C201.34 55.9531 201.184 56.1641 201.082 56.4062C200.988 56.6484 200.941 56.9141 200.941 57.2031C200.941 57.4922 201.008 57.7539 201.141 57.9883C201.273 58.2148 201.465 58.3945 201.715 58.5273C201.965 58.6523 202.258 58.7148 202.594 58.7148C203.102 58.7148 203.543 58.6133 203.918 58.4102C204.293 58.207 204.582 57.957 204.785 57.6602C204.996 57.3633 205.105 57.082 205.113 56.8164L206.004 58.2461C205.879 58.5664 205.707 58.8984 205.488 59.2422C205.277 59.5859 205.008 59.9102 204.68 60.2148C204.352 60.5117 203.957 60.7578 203.496 60.9531C203.035 61.1406 202.488 61.2344 201.855 61.2344C201.051 61.2344 200.32 61.0742 199.664 60.7539C199.016 60.4258 198.5 59.9766 198.117 59.4062C197.742 58.8281 197.555 58.1719 197.555 57.4375C197.555 56.7734 197.68 56.1836 197.93 55.668C198.18 55.1523 198.547 54.7188 199.031 54.3672C199.523 54.0078 200.137 53.7383 200.871 53.5586C201.605 53.3711 202.457 53.2773 203.426 53.2773H205.383ZM217.793 57.4961C217.793 57.2539 217.723 57.0352 217.582 56.8398C217.441 56.6445 217.18 56.4648 216.797 56.3008C216.422 56.1289 215.879 55.9727 215.168 55.832C214.527 55.6914 213.93 55.5156 213.375 55.3047C212.828 55.0859 212.352 54.8242 211.945 54.5195C211.547 54.2148 211.234 53.8555 211.008 53.4414C210.781 53.0195 210.668 52.5391 210.668 52C210.668 51.4688 210.781 50.9688 211.008 50.5C211.242 50.0312 211.574 49.6172 212.004 49.2578C212.441 48.8906 212.973 48.6055 213.598 48.4023C214.23 48.1914 214.941 48.0859 215.73 48.0859C216.832 48.0859 217.777 48.2617 218.566 48.6133C219.363 48.9648 219.973 49.4492 220.395 50.0664C220.824 50.6758 221.039 51.3711 221.039 52.1523H217.664C217.664 51.8242 217.594 51.5312 217.453 51.2734C217.32 51.0078 217.109 50.8008 216.82 50.6523C216.539 50.4961 216.172 50.418 215.719 50.418C215.344 50.418 215.02 50.4844 214.746 50.6172C214.473 50.7422 214.262 50.9141 214.113 51.1328C213.973 51.3438 213.902 51.5781 213.902 51.8359C213.902 52.0312 213.941 52.207 214.02 52.3633C214.105 52.5117 214.242 52.6484 214.43 52.7734C214.617 52.8984 214.859 53.0156 215.156 53.125C215.461 53.2266 215.836 53.3203 216.281 53.4062C217.195 53.5938 218.012 53.8398 218.73 54.1445C219.449 54.4414 220.02 54.8477 220.441 55.3633C220.863 55.8711 221.074 56.5391 221.074 57.3672C221.074 57.9297 220.949 58.4453 220.699 58.9141C220.449 59.3828 220.09 59.793 219.621 60.1445C219.152 60.4883 218.59 60.7578 217.934 60.9531C217.285 61.1406 216.555 61.2344 215.742 61.2344C214.562 61.2344 213.562 61.0234 212.742 60.6016C211.93 60.1797 211.312 59.6445 210.891 58.9961C210.477 58.3398 210.27 57.668 210.27 56.9805H213.469C213.484 57.4414 213.602 57.8125 213.82 58.0938C214.047 58.375 214.332 58.5781 214.676 58.7031C215.027 58.8281 215.406 58.8906 215.812 58.8906C216.25 58.8906 216.613 58.832 216.902 58.7148C217.191 58.5898 217.41 58.4258 217.559 58.2227C217.715 58.0117 217.793 57.7695 217.793 57.4961ZM229.477 48.3203V50.7109H222.094V48.3203H229.477ZM223.922 45.1914H227.297V57.1797C227.297 57.5469 227.344 57.8281 227.438 58.0234C227.539 58.2188 227.688 58.3555 227.883 58.4336C228.078 58.5039 228.324 58.5391 228.621 58.5391C228.832 58.5391 229.02 58.5312 229.184 58.5156C229.355 58.4922 229.5 58.4688 229.617 58.4453L229.629 60.9297C229.34 61.0234 229.027 61.0977 228.691 61.1523C228.355 61.207 227.984 61.2344 227.578 61.2344C226.836 61.2344 226.188 61.1133 225.633 60.8711C225.086 60.6211 224.664 60.2227 224.367 59.6758C224.07 59.1289 223.922 58.4102 223.922 57.5195V45.1914ZM237.234 61.2344C236.25 61.2344 235.367 61.0781 234.586 60.7656C233.805 60.4453 233.141 60.0039 232.594 59.4414C232.055 58.8789 231.641 58.2266 231.352 57.4844C231.062 56.7344 230.918 55.9375 230.918 55.0938V54.625C230.918 53.6641 231.055 52.7852 231.328 51.9883C231.602 51.1914 231.992 50.5 232.5 49.9141C233.016 49.3281 233.641 48.8789 234.375 48.5664C235.109 48.2461 235.938 48.0859 236.859 48.0859C237.758 48.0859 238.555 48.2344 239.25 48.5312C239.945 48.8281 240.527 49.25 240.996 49.7969C241.473 50.3438 241.832 51 242.074 51.7656C242.316 52.5234 242.438 53.3672 242.438 54.2969V55.7031H232.359V53.4531H239.121V53.1953C239.121 52.7266 239.035 52.3086 238.863 51.9414C238.699 51.5664 238.449 51.2695 238.113 51.0508C237.777 50.832 237.348 50.7227 236.824 50.7227C236.379 50.7227 235.996 50.8203 235.676 51.0156C235.355 51.2109 235.094 51.4844 234.891 51.8359C234.695 52.1875 234.547 52.6016 234.445 53.0781C234.352 53.5469 234.305 54.0625 234.305 54.625V55.0938C234.305 55.6016 234.375 56.0703 234.516 56.5C234.664 56.9297 234.871 57.3008 235.137 57.6133C235.41 57.9258 235.738 58.168 236.121 58.3398C236.512 58.5117 236.953 58.5977 237.445 58.5977C238.055 58.5977 238.621 58.4805 239.145 58.2461C239.676 58.0039 240.133 57.6406 240.516 57.1562L242.156 58.9375C241.891 59.3203 241.527 59.6875 241.066 60.0391C240.613 60.3906 240.066 60.6797 239.426 60.9062C238.785 61.125 238.055 61.2344 237.234 61.2344ZM247.734 51.0859V61H244.359V48.3203H247.535L247.734 51.0859ZM251.555 48.2383L251.496 51.3672C251.332 51.3438 251.133 51.3242 250.898 51.3086C250.672 51.2852 250.465 51.2734 250.277 51.2734C249.801 51.2734 249.387 51.3359 249.035 51.4609C248.691 51.5781 248.402 51.7539 248.168 51.9883C247.941 52.2227 247.77 52.5078 247.652 52.8438C247.543 53.1797 247.48 53.5625 247.465 53.9922L246.785 53.7812C246.785 52.9609 246.867 52.207 247.031 51.5195C247.195 50.8242 247.434 50.2188 247.746 49.7031C248.066 49.1875 248.457 48.7891 248.918 48.5078C249.379 48.2266 249.906 48.0859 250.5 48.0859C250.688 48.0859 250.879 48.1016 251.074 48.1328C251.27 48.1562 251.43 48.1914 251.555 48.2383Z" fill="#888888"/>
<path d="M112.125 84.875V119H103.898V84.875H112.125ZM122.391 84.875V91.2266H93.8672V84.875H122.391ZM135.68 119.469C133.617 119.469 131.773 119.148 130.148 118.508C128.523 117.852 127.148 116.953 126.023 115.812C124.914 114.672 124.062 113.359 123.469 111.875C122.891 110.391 122.602 108.82 122.602 107.164V106.273C122.602 104.414 122.859 102.695 123.375 101.117C123.891 99.5234 124.656 98.1328 125.672 96.9453C126.688 95.7578 127.961 94.8359 129.492 94.1797C131.023 93.5078 132.805 93.1719 134.836 93.1719C136.633 93.1719 138.242 93.4609 139.664 94.0391C141.086 94.6172 142.289 95.4453 143.273 96.5234C144.273 97.6016 145.031 98.9062 145.547 100.438C146.078 101.969 146.344 103.688 146.344 105.594V108.805H125.625V103.859H138.633V103.25C138.648 102.406 138.5 101.688 138.188 101.094C137.891 100.5 137.453 100.047 136.875 99.7344C136.297 99.4219 135.594 99.2656 134.766 99.2656C133.906 99.2656 133.195 99.4531 132.633 99.8281C132.086 100.203 131.656 100.719 131.344 101.375C131.047 102.016 130.836 102.758 130.711 103.602C130.586 104.445 130.523 105.336 130.523 106.273V107.164C130.523 108.102 130.648 108.953 130.898 109.719C131.164 110.484 131.539 111.141 132.023 111.688C132.523 112.219 133.117 112.633 133.805 112.93C134.508 113.227 135.305 113.375 136.195 113.375C137.273 113.375 138.336 113.172 139.383 112.766C140.43 112.359 141.328 111.688 142.078 110.75L145.664 115.016C145.148 115.75 144.414 116.461 143.461 117.148C142.523 117.836 141.398 118.398 140.086 118.836C138.773 119.258 137.305 119.469 135.68 119.469ZM160.266 113.375C161 113.375 161.625 113.242 162.141 112.977C162.672 112.695 163.07 112.305 163.336 111.805C163.617 111.289 163.75 110.672 163.734 109.953H171.164C171.18 111.859 170.711 113.531 169.758 114.969C168.82 116.391 167.539 117.5 165.914 118.297C164.305 119.078 162.484 119.469 160.453 119.469C158.469 119.469 156.734 119.148 155.25 118.508C153.766 117.852 152.523 116.945 151.523 115.789C150.539 114.617 149.797 113.25 149.297 111.688C148.812 110.125 148.57 108.43 148.57 106.602V106.062C148.57 104.234 148.812 102.539 149.297 100.977C149.797 99.3984 150.539 98.0312 151.523 96.875C152.523 95.7031 153.758 94.7969 155.227 94.1562C156.711 93.5 158.438 93.1719 160.406 93.1719C162.516 93.1719 164.375 93.5703 165.984 94.3672C167.609 95.1641 168.883 96.3203 169.805 97.8359C170.727 99.3516 171.18 101.188 171.164 103.344H163.734C163.75 102.578 163.633 101.891 163.383 101.281C163.133 100.672 162.742 100.188 162.211 99.8281C161.695 99.4531 161.031 99.2656 160.219 99.2656C159.406 99.2656 158.75 99.4453 158.25 99.8047C157.75 100.164 157.367 100.664 157.102 101.305C156.852 101.93 156.68 102.648 156.586 103.461C156.508 104.273 156.469 105.141 156.469 106.062V106.602C156.469 107.539 156.508 108.422 156.586 109.25C156.68 110.062 156.859 110.781 157.125 111.406C157.391 112.016 157.773 112.5 158.273 112.859C158.773 113.203 159.438 113.375 160.266 113.375ZM182.273 83V119H174.375V83H182.273ZM181.336 105.453L179.484 105.5C179.484 103.719 179.703 102.078 180.141 100.578C180.578 99.0781 181.203 97.7734 182.016 96.6641C182.828 95.5547 183.805 94.6953 184.945 94.0859C186.086 93.4766 187.352 93.1719 188.742 93.1719C189.992 93.1719 191.133 93.3516 192.164 93.7109C193.211 94.0703 194.109 94.6484 194.859 95.4453C195.625 96.2422 196.211 97.2812 196.617 98.5625C197.039 99.8438 197.25 101.406 197.25 103.25V119H189.305V103.203C189.305 102.172 189.156 101.375 188.859 100.812C188.578 100.234 188.172 99.8359 187.641 99.6172C187.109 99.3828 186.461 99.2656 185.695 99.2656C184.773 99.2656 184.023 99.4219 183.445 99.7344C182.867 100.047 182.422 100.484 182.109 101.047C181.812 101.594 181.609 102.242 181.5 102.992C181.391 103.742 181.336 104.562 181.336 105.453ZM231.539 109.93C231.539 109.398 231.461 108.922 231.305 108.5C231.148 108.062 230.859 107.656 230.438 107.281C230.016 106.906 229.406 106.531 228.609 106.156C227.828 105.766 226.797 105.359 225.516 104.938C224.016 104.438 222.57 103.875 221.18 103.25C219.789 102.609 218.547 101.867 217.453 101.023C216.359 100.164 215.492 99.1641 214.852 98.0234C214.211 96.8672 213.891 95.5234 213.891 93.9922C213.891 92.5234 214.219 91.2031 214.875 90.0312C215.531 88.8438 216.445 87.8359 217.617 87.0078C218.805 86.1641 220.195 85.5234 221.789 85.0859C223.383 84.6328 225.125 84.4062 227.016 84.4062C229.516 84.4062 231.719 84.8438 233.625 85.7188C235.547 86.5781 237.047 87.8047 238.125 89.3984C239.219 90.9766 239.766 92.8438 239.766 95H231.586C231.586 94.1406 231.406 93.3828 231.047 92.7266C230.703 92.0703 230.18 91.5547 229.477 91.1797C228.773 90.8047 227.891 90.6172 226.828 90.6172C225.797 90.6172 224.93 90.7734 224.227 91.0859C223.523 91.3984 222.992 91.8203 222.633 92.3516C222.273 92.8672 222.094 93.4375 222.094 94.0625C222.094 94.5781 222.234 95.0469 222.516 95.4688C222.812 95.875 223.227 96.2578 223.758 96.6172C224.305 96.9766 224.961 97.3203 225.727 97.6484C226.508 97.9766 227.383 98.2969 228.352 98.6094C230.164 99.1875 231.773 99.8359 233.18 100.555C234.602 101.258 235.797 102.062 236.766 102.969C237.75 103.859 238.492 104.875 238.992 106.016C239.508 107.156 239.766 108.445 239.766 109.883C239.766 111.414 239.469 112.773 238.875 113.961C238.281 115.148 237.43 116.156 236.32 116.984C235.211 117.797 233.883 118.414 232.336 118.836C230.789 119.258 229.062 119.469 227.156 119.469C225.406 119.469 223.68 119.25 221.977 118.812C220.289 118.359 218.758 117.672 217.383 116.75C216.008 115.812 214.906 114.617 214.078 113.164C213.266 111.695 212.859 109.953 212.859 107.938H221.109C221.109 108.938 221.242 109.781 221.508 110.469C221.773 111.156 222.164 111.711 222.68 112.133C223.195 112.539 223.828 112.836 224.578 113.023C225.328 113.195 226.188 113.281 227.156 113.281C228.203 113.281 229.047 113.133 229.688 112.836C230.328 112.523 230.797 112.117 231.094 111.617C231.391 111.102 231.539 110.539 231.539 109.93ZM256.992 93.6406V99.125H241.711V93.6406H256.992ZM244.922 87.3359H252.82V110.727C252.82 111.398 252.898 111.922 253.055 112.297C253.211 112.656 253.477 112.914 253.852 113.07C254.242 113.211 254.758 113.281 255.398 113.281C255.852 113.281 256.227 113.273 256.523 113.258C256.82 113.227 257.102 113.188 257.367 113.141V118.789C256.695 119.008 255.992 119.172 255.258 119.281C254.523 119.406 253.742 119.469 252.914 119.469C251.227 119.469 249.781 119.203 248.578 118.672C247.391 118.141 246.484 117.305 245.859 116.164C245.234 115.023 244.922 113.539 244.922 111.711V87.3359ZM273.305 112.625V102.172C273.305 101.453 273.203 100.836 273 100.32C272.797 99.8047 272.477 99.4062 272.039 99.125C271.602 98.8281 271.016 98.6797 270.281 98.6797C269.688 98.6797 269.18 98.7812 268.758 98.9844C268.336 99.1875 268.016 99.4922 267.797 99.8984C267.578 100.305 267.469 100.82 267.469 101.445H259.57C259.57 100.273 259.828 99.1875 260.344 98.1875C260.875 97.1719 261.625 96.2891 262.594 95.5391C263.578 94.7891 264.75 94.2109 266.109 93.8047C267.484 93.3828 269.016 93.1719 270.703 93.1719C272.719 93.1719 274.516 93.5078 276.094 94.1797C277.688 94.8516 278.945 95.8594 279.867 97.2031C280.789 98.5312 281.25 100.203 281.25 102.219V112.602C281.25 114.258 281.344 115.516 281.531 116.375C281.719 117.219 281.984 117.961 282.328 118.602V119H274.406C274.031 118.219 273.75 117.266 273.562 116.141C273.391 115 273.305 113.828 273.305 112.625ZM274.266 103.508L274.312 107.727H270.82C270.086 107.727 269.461 107.828 268.945 108.031C268.445 108.234 268.039 108.516 267.727 108.875C267.43 109.219 267.211 109.609 267.07 110.047C266.945 110.484 266.883 110.945 266.883 111.43C266.883 111.898 266.992 112.32 267.211 112.695C267.445 113.055 267.758 113.336 268.148 113.539C268.539 113.742 268.977 113.844 269.461 113.844C270.336 113.844 271.078 113.68 271.688 113.352C272.312 113.008 272.789 112.594 273.117 112.109C273.445 111.625 273.609 111.172 273.609 110.75L275.344 113.984C275.031 114.609 274.672 115.242 274.266 115.883C273.875 116.523 273.383 117.117 272.789 117.664C272.211 118.195 271.5 118.633 270.656 118.977C269.812 119.305 268.789 119.469 267.586 119.469C266.023 119.469 264.586 119.148 263.273 118.508C261.977 117.867 260.938 116.977 260.156 115.836C259.375 114.68 258.984 113.352 258.984 111.852C258.984 110.539 259.219 109.367 259.688 108.336C260.172 107.305 260.898 106.43 261.867 105.711C262.836 104.992 264.07 104.445 265.57 104.07C267.07 103.695 268.836 103.508 270.867 103.508H274.266ZM296.344 113.375C297.078 113.375 297.703 113.242 298.219 112.977C298.75 112.695 299.148 112.305 299.414 111.805C299.695 111.289 299.828 110.672 299.812 109.953H307.242C307.258 111.859 306.789 113.531 305.836 114.969C304.898 116.391 303.617 117.5 301.992 118.297C300.383 119.078 298.562 119.469 296.531 119.469C294.547 119.469 292.812 119.148 291.328 118.508C289.844 117.852 288.602 116.945 287.602 115.789C286.617 114.617 285.875 113.25 285.375 111.688C284.891 110.125 284.648 108.43 284.648 106.602V106.062C284.648 104.234 284.891 102.539 285.375 100.977C285.875 99.3984 286.617 98.0312 287.602 96.875C288.602 95.7031 289.836 94.7969 291.305 94.1562C292.789 93.5 294.516 93.1719 296.484 93.1719C298.594 93.1719 300.453 93.5703 302.062 94.3672C303.688 95.1641 304.961 96.3203 305.883 97.8359C306.805 99.3516 307.258 101.188 307.242 103.344H299.812C299.828 102.578 299.711 101.891 299.461 101.281C299.211 100.672 298.82 100.188 298.289 99.8281C297.773 99.4531 297.109 99.2656 296.297 99.2656C295.484 99.2656 294.828 99.4453 294.328 99.8047C293.828 100.164 293.445 100.664 293.18 101.305C292.93 101.93 292.758 102.648 292.664 103.461C292.586 104.273 292.547 105.141 292.547 106.062V106.602C292.547 107.539 292.586 108.422 292.664 109.25C292.758 110.062 292.938 110.781 293.203 111.406C293.469 112.016 293.852 112.5 294.352 112.859C294.852 113.203 295.516 113.375 296.344 113.375ZM318.586 82.9766V119H310.688V82.9766H318.586ZM334.805 93.6406L323.789 106.555L318.023 112.32L314.578 107.305L319.383 101.047L325.336 93.6406H334.805ZM326.344 119L319.57 107.445L325.406 103.297L335.391 119H326.344ZM350.156 111.875C350.156 111.438 350.008 111.062 349.711 110.75C349.43 110.422 348.93 110.125 348.211 109.859C347.492 109.578 346.484 109.297 345.188 109.016C343.953 108.75 342.789 108.398 341.695 107.961C340.617 107.523 339.672 106.992 338.859 106.367C338.047 105.742 337.406 105 336.938 104.141C336.484 103.281 336.258 102.297 336.258 101.188C336.258 100.109 336.484 99.0938 336.938 98.1406C337.406 97.1719 338.086 96.3203 338.977 95.5859C339.883 94.8359 340.984 94.25 342.281 93.8281C343.578 93.3906 345.055 93.1719 346.711 93.1719C348.992 93.1719 350.961 93.5234 352.617 94.2266C354.273 94.9141 355.547 95.8828 356.438 97.1328C357.344 98.3672 357.797 99.7969 357.797 101.422H349.898C349.898 100.781 349.789 100.234 349.57 99.7812C349.367 99.3281 349.031 98.9844 348.562 98.75C348.094 98.5 347.469 98.375 346.688 98.375C346.141 98.375 345.641 98.4766 345.188 98.6797C344.75 98.8828 344.398 99.1641 344.133 99.5234C343.867 99.8828 343.734 100.305 343.734 100.789C343.734 101.133 343.812 101.445 343.969 101.727C344.141 101.992 344.398 102.242 344.742 102.477C345.086 102.695 345.523 102.898 346.055 103.086C346.586 103.258 347.227 103.414 347.977 103.555C349.68 103.867 351.273 104.312 352.758 104.891C354.242 105.469 355.445 106.289 356.367 107.352C357.305 108.414 357.773 109.844 357.773 111.641C357.773 112.766 357.516 113.805 357 114.758C356.484 115.695 355.742 116.523 354.773 117.242C353.805 117.945 352.641 118.492 351.281 118.883C349.922 119.273 348.391 119.469 346.688 119.469C344.266 119.469 342.219 119.039 340.547 118.18C338.875 117.305 337.609 116.211 336.75 114.898C335.906 113.57 335.484 112.227 335.484 110.867H342.844C342.875 111.648 343.062 112.289 343.406 112.789C343.766 113.289 344.242 113.656 344.836 113.891C345.43 114.125 346.117 114.242 346.898 114.242C347.617 114.242 348.211 114.141 348.68 113.938C349.164 113.734 349.531 113.461 349.781 113.117C350.031 112.758 350.156 112.344 350.156 111.875Z" fill="black"/>
<path d="M1134 0H1348C1356.28 0 1363 6.71573 1363 15V148C1363 156.284 1356.28 163 1348 163H1134V0Z" fill="#6C5CE7"/>
<path fill-rule="evenodd" clip-rule="evenodd" d="M1219.98 53C1219.85 53 1219.73 53.0527 1219.64 53.1464C1219.55 53.2402 1219.5 53.3674 1219.5 53.5V109.5C1219.5 109.633 1219.55 109.76 1219.64 109.854C1219.73 109.947 1219.85 110 1219.98 110H1277.02C1277.15 110 1277.27 109.947 1277.36 109.854C1277.45 109.76 1277.5 109.633 1277.5 109.5V64C1277.5 63.8674 1277.45 63.7402 1277.36 63.6464C1277.27 63.5527 1277.15 63.5 1277.02 63.5H1248.5C1247.65 63.5 1246.84 63.1045 1246.29 62.4206L1238.77 53H1219.98ZM1215.58 48.9038C1216.74 47.6848 1218.33 47 1219.98 47H1240.11C1240.97 47 1241.77 47.3955 1242.32 48.0794L1249.85 57.5H1277.02C1278.67 57.5 1280.26 58.1848 1281.42 59.4038C1282.59 60.6228 1283.25 62.2761 1283.25 64V109.5C1283.25 111.224 1282.59 112.877 1281.42 114.096C1280.26 115.315 1278.67 116 1277.02 116H1219.98C1218.33 116 1216.74 115.315 1215.58 114.096C1214.41 112.877 1213.75 111.224 1213.75 109.5V53.5C1213.75 51.7761 1214.41 50.1228 1215.58 48.9038Z" fill="white"/>
<path fill-rule="evenodd" clip-rule="evenodd" d="M1244.16 75.5251C1245.47 76.892 1245.47 79.108 1244.16 80.4749L1238.15 86.75L1244.16 93.0251C1245.47 94.392 1245.47 96.608 1244.16 97.9749C1242.85 99.3417 1240.73 99.3417 1239.42 97.9749L1231.03 89.2249C1229.72 87.858 1229.72 85.642 1231.03 84.2751L1239.42 75.5251C1240.73 74.1583 1242.85 74.1583 1244.16 75.5251Z" fill="white"/>
<path fill-rule="evenodd" clip-rule="evenodd" d="M1252.12 97.9749C1250.81 96.608 1250.81 94.392 1252.12 93.0251L1258.13 86.75L1252.12 80.4749C1250.81 79.108 1250.81 76.892 1252.12 75.5251C1253.43 74.1583 1255.55 74.1583 1256.86 75.5251L1265.25 84.2751C1266.56 85.642 1266.56 87.858 1265.25 89.2249L1256.86 97.9749C1255.55 99.3417 1253.43 99.3417 1252.12 97.9749Z" fill="white"/>
</svg>
