<svg width="1363" height="163" viewBox="0 0 1363 163" fill="none" xmlns="http://www.w3.org/2000/svg">
<path d="M0 15C0 6.71573 6.71573 0 15 0H37V163H15C6.71573 163 0 156.284 0 148V15Z" fill="#424242"/>
<rect width="1097" height="163" transform="translate(37)" fill="#F0F0F0"/>
<path d="M104.414 55.3398H107.918C107.848 56.4883 107.531 57.5078 106.969 58.3984C106.414 59.2891 105.637 59.9844 104.637 60.4844C103.645 60.9844 102.449 61.2344 101.051 61.2344C99.957 61.2344 98.9766 61.0469 98.1094 60.6719C97.2422 60.2891 96.5 59.7422 95.8828 59.0312C95.2734 58.3203 94.8086 57.4609 94.4883 56.4531C94.168 55.4453 94.0078 54.3164 94.0078 53.0664V51.8828C94.0078 50.6328 94.1719 49.5039 94.5 48.4961C94.8359 47.4805 95.3125 46.6172 95.9297 45.9062C96.5547 45.1953 97.3008 44.6484 98.168 44.2656C99.0352 43.8828 100.004 43.6914 101.074 43.6914C102.496 43.6914 103.695 43.9492 104.672 44.4648C105.656 44.9805 106.418 45.6914 106.957 46.5977C107.504 47.5039 107.832 48.5352 107.941 49.6914H104.426C104.387 49.0039 104.25 48.4219 104.016 47.9453C103.781 47.4609 103.426 47.0977 102.949 46.8555C102.48 46.6055 101.855 46.4805 101.074 46.4805C100.488 46.4805 99.9766 46.5898 99.5391 46.8086C99.1016 47.0273 98.7344 47.3594 98.4375 47.8047C98.1406 48.25 97.918 48.8125 97.7695 49.4922C97.6289 50.1641 97.5586 50.9531 97.5586 51.8594V53.0664C97.5586 53.9492 97.625 54.7266 97.7578 55.3984C97.8906 56.0625 98.0938 56.625 98.3672 57.0859C98.6484 57.5391 99.0078 57.8828 99.4453 58.1172C99.8906 58.3438 100.426 58.457 101.051 58.457C101.785 58.457 102.391 58.3398 102.867 58.1055C103.344 57.8711 103.707 57.5234 103.957 57.0625C104.215 56.6016 104.367 56.0273 104.414 55.3398ZM109.477 54.7891V54.543C109.477 53.6133 109.609 52.7578 109.875 51.9766C110.141 51.1875 110.527 50.5039 111.035 49.9258C111.543 49.3477 112.168 48.8984 112.91 48.5781C113.652 48.25 114.504 48.0859 115.465 48.0859C116.426 48.0859 117.281 48.25 118.031 48.5781C118.781 48.8984 119.41 49.3477 119.918 49.9258C120.434 50.5039 120.824 51.1875 121.09 51.9766C121.355 52.7578 121.488 53.6133 121.488 54.543V54.7891C121.488 55.7109 121.355 56.5664 121.09 57.3555C120.824 58.1367 120.434 58.8203 119.918 59.4062C119.41 59.9844 118.785 60.4336 118.043 60.7539C117.301 61.0742 116.449 61.2344 115.488 61.2344C114.527 61.2344 113.672 61.0742 112.922 60.7539C112.18 60.4336 111.551 59.9844 111.035 59.4062C110.527 58.8203 110.141 58.1367 109.875 57.3555C109.609 56.5664 109.477 55.7109 109.477 54.7891ZM112.852 54.543V54.7891C112.852 55.3203 112.898 55.8164 112.992 56.2773C113.086 56.7383 113.234 57.1445 113.438 57.4961C113.648 57.8398 113.922 58.1094 114.258 58.3047C114.594 58.5 115.004 58.5977 115.488 58.5977C115.957 58.5977 116.359 58.5 116.695 58.3047C117.031 58.1094 117.301 57.8398 117.504 57.4961C117.707 57.1445 117.855 56.7383 117.949 56.2773C118.051 55.8164 118.102 55.3203 118.102 54.7891V54.543C118.102 54.0273 118.051 53.543 117.949 53.0898C117.855 52.6289 117.703 52.2227 117.492 51.8711C117.289 51.5117 117.02 51.2305 116.684 51.0273C116.348 50.8242 115.941 50.7227 115.465 50.7227C114.988 50.7227 114.582 50.8242 114.246 51.0273C113.918 51.2305 113.648 51.5117 113.438 51.8711C113.234 52.2227 113.086 52.6289 112.992 53.0898C112.898 53.543 112.852 54.0273 112.852 54.543ZM131.062 57.9648V48.3203H134.438V61H131.262L131.062 57.9648ZM131.438 55.3633L132.434 55.3398C132.434 56.1836 132.336 56.9688 132.141 57.6953C131.945 58.4141 131.652 59.0391 131.262 59.5703C130.871 60.0938 130.379 60.5039 129.785 60.8008C129.191 61.0898 128.492 61.2344 127.688 61.2344C127.07 61.2344 126.5 61.1484 125.977 60.9766C125.461 60.7969 125.016 60.5195 124.641 60.1445C124.273 59.7617 123.984 59.2734 123.773 58.6797C123.57 58.0781 123.469 57.3555 123.469 56.5117V48.3203H126.844V56.5352C126.844 56.9102 126.887 57.2266 126.973 57.4844C127.066 57.7422 127.195 57.9531 127.359 58.1172C127.523 58.2812 127.715 58.3984 127.934 58.4688C128.16 58.5391 128.41 58.5742 128.684 58.5742C129.379 58.5742 129.926 58.4336 130.324 58.1523C130.73 57.8711 131.016 57.4883 131.18 57.0039C131.352 56.5117 131.438 55.9648 131.438 55.3633ZM140.391 51.0859V61H137.016V48.3203H140.191L140.391 51.0859ZM144.211 48.2383L144.152 51.3672C143.988 51.3438 143.789 51.3242 143.555 51.3086C143.328 51.2852 143.121 51.2734 142.934 51.2734C142.457 51.2734 142.043 51.3359 141.691 51.4609C141.348 51.5781 141.059 51.7539 140.824 51.9883C140.598 52.2227 140.426 52.5078 140.309 52.8438C140.199 53.1797 140.137 53.5625 140.121 53.9922L139.441 53.7812C139.441 52.9609 139.523 52.207 139.688 51.5195C139.852 50.8242 140.09 50.2188 140.402 49.7031C140.723 49.1875 141.113 48.7891 141.574 48.5078C142.035 48.2266 142.562 48.0859 143.156 48.0859C143.344 48.0859 143.535 48.1016 143.73 48.1328C143.926 48.1562 144.086 48.1914 144.211 48.2383ZM152.66 57.4961C152.66 57.2539 152.59 57.0352 152.449 56.8398C152.309 56.6445 152.047 56.4648 151.664 56.3008C151.289 56.1289 150.746 55.9727 150.035 55.832C149.395 55.6914 148.797 55.5156 148.242 55.3047C147.695 55.0859 147.219 54.8242 146.812 54.5195C146.414 54.2148 146.102 53.8555 145.875 53.4414C145.648 53.0195 145.535 52.5391 145.535 52C145.535 51.4688 145.648 50.9688 145.875 50.5C146.109 50.0312 146.441 49.6172 146.871 49.2578C147.309 48.8906 147.84 48.6055 148.465 48.4023C149.098 48.1914 149.809 48.0859 150.598 48.0859C151.699 48.0859 152.645 48.2617 153.434 48.6133C154.23 48.9648 154.84 49.4492 155.262 50.0664C155.691 50.6758 155.906 51.3711 155.906 52.1523H152.531C152.531 51.8242 152.461 51.5312 152.32 51.2734C152.188 51.0078 151.977 50.8008 151.688 50.6523C151.406 50.4961 151.039 50.418 150.586 50.418C150.211 50.418 149.887 50.4844 149.613 50.6172C149.34 50.7422 149.129 50.9141 148.98 51.1328C148.84 51.3438 148.77 51.5781 148.77 51.8359C148.77 52.0312 148.809 52.207 148.887 52.3633C148.973 52.5117 149.109 52.6484 149.297 52.7734C149.484 52.8984 149.727 53.0156 150.023 53.125C150.328 53.2266 150.703 53.3203 151.148 53.4062C152.062 53.5938 152.879 53.8398 153.598 54.1445C154.316 54.4414 154.887 54.8477 155.309 55.3633C155.73 55.8711 155.941 56.5391 155.941 57.3672C155.941 57.9297 155.816 58.4453 155.566 58.9141C155.316 59.3828 154.957 59.793 154.488 60.1445C154.02 60.4883 153.457 60.7578 152.801 60.9531C152.152 61.1406 151.422 61.2344 150.609 61.2344C149.43 61.2344 148.43 61.0234 147.609 60.6016C146.797 60.1797 146.18 59.6445 145.758 58.9961C145.344 58.3398 145.137 57.668 145.137 56.9805H148.336C148.352 57.4414 148.469 57.8125 148.688 58.0938C148.914 58.375 149.199 58.5781 149.543 58.7031C149.895 58.8281 150.273 58.8906 150.68 58.8906C151.117 58.8906 151.48 58.832 151.77 58.7148C152.059 58.5898 152.277 58.4258 152.426 58.2227C152.582 58.0117 152.66 57.7695 152.66 57.4961ZM163.969 61.2344C162.984 61.2344 162.102 61.0781 161.32 60.7656C160.539 60.4453 159.875 60.0039 159.328 59.4414C158.789 58.8789 158.375 58.2266 158.086 57.4844C157.797 56.7344 157.652 55.9375 157.652 55.0938V54.625C157.652 53.6641 157.789 52.7852 158.062 51.9883C158.336 51.1914 158.727 50.5 159.234 49.9141C159.75 49.3281 160.375 48.8789 161.109 48.5664C161.844 48.2461 162.672 48.0859 163.594 48.0859C164.492 48.0859 165.289 48.2344 165.984 48.5312C166.68 48.8281 167.262 49.25 167.73 49.7969C168.207 50.3438 168.566 51 168.809 51.7656C169.051 52.5234 169.172 53.3672 169.172 54.2969V55.7031H159.094V53.4531H165.855V53.1953C165.855 52.7266 165.77 52.3086 165.598 51.9414C165.434 51.5664 165.184 51.2695 164.848 51.0508C164.512 50.832 164.082 50.7227 163.559 50.7227C163.113 50.7227 162.73 50.8203 162.41 51.0156C162.09 51.2109 161.828 51.4844 161.625 51.8359C161.43 52.1875 161.281 52.6016 161.18 53.0781C161.086 53.5469 161.039 54.0625 161.039 54.625V55.0938C161.039 55.6016 161.109 56.0703 161.25 56.5C161.398 56.9297 161.605 57.3008 161.871 57.6133C162.145 57.9258 162.473 58.168 162.855 58.3398C163.246 58.5117 163.688 58.5977 164.18 58.5977C164.789 58.5977 165.355 58.4805 165.879 58.2461C166.41 58.0039 166.867 57.6406 167.25 57.1562L168.891 58.9375C168.625 59.3203 168.262 59.6875 167.801 60.0391C167.348 60.3906 166.801 60.6797 166.16 60.9062C165.52 61.125 164.789 61.2344 163.969 61.2344ZM178.887 43.9375H181.863L186.246 56.4648L190.629 43.9375H193.605L187.441 61H185.051L178.887 43.9375ZM177.281 43.9375H180.246L180.785 56.1484V61H177.281V43.9375ZM192.246 43.9375H195.223V61H191.707V56.1484L192.246 43.9375ZM204.938 58.1406V52.4922C204.938 52.0859 204.871 51.7383 204.738 51.4492C204.605 51.1523 204.398 50.9219 204.117 50.7578C203.844 50.5938 203.488 50.5117 203.051 50.5117C202.676 50.5117 202.352 50.5781 202.078 50.7109C201.805 50.8359 201.594 51.0195 201.445 51.2617C201.297 51.4961 201.223 51.7734 201.223 52.0938H197.848C197.848 51.5547 197.973 51.043 198.223 50.5586C198.473 50.0742 198.836 49.6484 199.312 49.2812C199.789 48.9062 200.355 48.6133 201.012 48.4023C201.676 48.1914 202.418 48.0859 203.238 48.0859C204.223 48.0859 205.098 48.25 205.863 48.5781C206.629 48.9062 207.23 49.3984 207.668 50.0547C208.113 50.7109 208.336 51.5312 208.336 52.5156V57.9414C208.336 58.6367 208.379 59.207 208.465 59.6523C208.551 60.0898 208.676 60.4727 208.84 60.8008V61H205.43C205.266 60.6562 205.141 60.2266 205.055 59.7109C204.977 59.1875 204.938 58.6641 204.938 58.1406ZM205.383 53.2773L205.406 55.1875H203.52C203.074 55.1875 202.688 55.2383 202.359 55.3398C202.031 55.4414 201.762 55.5859 201.551 55.7734C201.34 55.9531 201.184 56.1641 201.082 56.4062C200.988 56.6484 200.941 56.9141 200.941 57.2031C200.941 57.4922 201.008 57.7539 201.141 57.9883C201.273 58.2148 201.465 58.3945 201.715 58.5273C201.965 58.6523 202.258 58.7148 202.594 58.7148C203.102 58.7148 203.543 58.6133 203.918 58.4102C204.293 58.207 204.582 57.957 204.785 57.6602C204.996 57.3633 205.105 57.082 205.113 56.8164L206.004 58.2461C205.879 58.5664 205.707 58.8984 205.488 59.2422C205.277 59.5859 205.008 59.9102 204.68 60.2148C204.352 60.5117 203.957 60.7578 203.496 60.9531C203.035 61.1406 202.488 61.2344 201.855 61.2344C201.051 61.2344 200.32 61.0742 199.664 60.7539C199.016 60.4258 198.5 59.9766 198.117 59.4062C197.742 58.8281 197.555 58.1719 197.555 57.4375C197.555 56.7734 197.68 56.1836 197.93 55.668C198.18 55.1523 198.547 54.7188 199.031 54.3672C199.523 54.0078 200.137 53.7383 200.871 53.5586C201.605 53.3711 202.457 53.2773 203.426 53.2773H205.383ZM217.793 57.4961C217.793 57.2539 217.723 57.0352 217.582 56.8398C217.441 56.6445 217.18 56.4648 216.797 56.3008C216.422 56.1289 215.879 55.9727 215.168 55.832C214.527 55.6914 213.93 55.5156 213.375 55.3047C212.828 55.0859 212.352 54.8242 211.945 54.5195C211.547 54.2148 211.234 53.8555 211.008 53.4414C210.781 53.0195 210.668 52.5391 210.668 52C210.668 51.4688 210.781 50.9688 211.008 50.5C211.242 50.0312 211.574 49.6172 212.004 49.2578C212.441 48.8906 212.973 48.6055 213.598 48.4023C214.23 48.1914 214.941 48.0859 215.73 48.0859C216.832 48.0859 217.777 48.2617 218.566 48.6133C219.363 48.9648 219.973 49.4492 220.395 50.0664C220.824 50.6758 221.039 51.3711 221.039 52.1523H217.664C217.664 51.8242 217.594 51.5312 217.453 51.2734C217.32 51.0078 217.109 50.8008 216.82 50.6523C216.539 50.4961 216.172 50.418 215.719 50.418C215.344 50.418 215.02 50.4844 214.746 50.6172C214.473 50.7422 214.262 50.9141 214.113 51.1328C213.973 51.3438 213.902 51.5781 213.902 51.8359C213.902 52.0312 213.941 52.207 214.02 52.3633C214.105 52.5117 214.242 52.6484 214.43 52.7734C214.617 52.8984 214.859 53.0156 215.156 53.125C215.461 53.2266 215.836 53.3203 216.281 53.4062C217.195 53.5938 218.012 53.8398 218.73 54.1445C219.449 54.4414 220.02 54.8477 220.441 55.3633C220.863 55.8711 221.074 56.5391 221.074 57.3672C221.074 57.9297 220.949 58.4453 220.699 58.9141C220.449 59.3828 220.09 59.793 219.621 60.1445C219.152 60.4883 218.59 60.7578 217.934 60.9531C217.285 61.1406 216.555 61.2344 215.742 61.2344C214.562 61.2344 213.562 61.0234 212.742 60.6016C211.93 60.1797 211.312 59.6445 210.891 58.9961C210.477 58.3398 210.27 57.668 210.27 56.9805H213.469C213.484 57.4414 213.602 57.8125 213.82 58.0938C214.047 58.375 214.332 58.5781 214.676 58.7031C215.027 58.8281 215.406 58.8906 215.812 58.8906C216.25 58.8906 216.613 58.832 216.902 58.7148C217.191 58.5898 217.41 58.4258 217.559 58.2227C217.715 58.0117 217.793 57.7695 217.793 57.4961ZM229.477 48.3203V50.7109H222.094V48.3203H229.477ZM223.922 45.1914H227.297V57.1797C227.297 57.5469 227.344 57.8281 227.438 58.0234C227.539 58.2188 227.688 58.3555 227.883 58.4336C228.078 58.5039 228.324 58.5391 228.621 58.5391C228.832 58.5391 229.02 58.5312 229.184 58.5156C229.355 58.4922 229.5 58.4688 229.617 58.4453L229.629 60.9297C229.34 61.0234 229.027 61.0977 228.691 61.1523C228.355 61.207 227.984 61.2344 227.578 61.2344C226.836 61.2344 226.188 61.1133 225.633 60.8711C225.086 60.6211 224.664 60.2227 224.367 59.6758C224.07 59.1289 223.922 58.4102 223.922 57.5195V45.1914ZM237.234 61.2344C236.25 61.2344 235.367 61.0781 234.586 60.7656C233.805 60.4453 233.141 60.0039 232.594 59.4414C232.055 58.8789 231.641 58.2266 231.352 57.4844C231.062 56.7344 230.918 55.9375 230.918 55.0938V54.625C230.918 53.6641 231.055 52.7852 231.328 51.9883C231.602 51.1914 231.992 50.5 232.5 49.9141C233.016 49.3281 233.641 48.8789 234.375 48.5664C235.109 48.2461 235.938 48.0859 236.859 48.0859C237.758 48.0859 238.555 48.2344 239.25 48.5312C239.945 48.8281 240.527 49.25 240.996 49.7969C241.473 50.3438 241.832 51 242.074 51.7656C242.316 52.5234 242.438 53.3672 242.438 54.2969V55.7031H232.359V53.4531H239.121V53.1953C239.121 52.7266 239.035 52.3086 238.863 51.9414C238.699 51.5664 238.449 51.2695 238.113 51.0508C237.777 50.832 237.348 50.7227 236.824 50.7227C236.379 50.7227 235.996 50.8203 235.676 51.0156C235.355 51.2109 235.094 51.4844 234.891 51.8359C234.695 52.1875 234.547 52.6016 234.445 53.0781C234.352 53.5469 234.305 54.0625 234.305 54.625V55.0938C234.305 55.6016 234.375 56.0703 234.516 56.5C234.664 56.9297 234.871 57.3008 235.137 57.6133C235.41 57.9258 235.738 58.168 236.121 58.3398C236.512 58.5117 236.953 58.5977 237.445 58.5977C238.055 58.5977 238.621 58.4805 239.145 58.2461C239.676 58.0039 240.133 57.6406 240.516 57.1562L242.156 58.9375C241.891 59.3203 241.527 59.6875 241.066 60.0391C240.613 60.3906 240.066 60.6797 239.426 60.9062C238.785 61.125 238.055 61.2344 237.234 61.2344ZM247.734 51.0859V61H244.359V48.3203H247.535L247.734 51.0859ZM251.555 48.2383L251.496 51.3672C251.332 51.3438 251.133 51.3242 250.898 51.3086C250.672 51.2852 250.465 51.2734 250.277 51.2734C249.801 51.2734 249.387 51.3359 249.035 51.4609C248.691 51.5781 248.402 51.7539 248.168 51.9883C247.941 52.2227 247.77 52.5078 247.652 52.8438C247.543 53.1797 247.48 53.5625 247.465 53.9922L246.785 53.7812C246.785 52.9609 246.867 52.207 247.031 51.5195C247.195 50.8242 247.434 50.2188 247.746 49.7031C248.066 49.1875 248.457 48.7891 248.918 48.5078C249.379 48.2266 249.906 48.0859 250.5 48.0859C250.688 48.0859 250.879 48.1016 251.074 48.1328C251.27 48.1562 251.43 48.1914 251.555 48.2383Z" fill="#888888"/>
<path d="M114.117 84.875H122.344V107.164C122.344 109.82 121.789 112.07 120.68 113.914C119.57 115.742 118.016 117.125 116.016 118.062C114.016 119 111.664 119.469 108.961 119.469C106.289 119.469 103.938 119 101.906 118.062C99.8906 117.125 98.3125 115.742 97.1719 113.914C96.0469 112.07 95.4844 109.82 95.4844 107.164V84.875H103.734V107.164C103.734 108.57 103.938 109.719 104.344 110.609C104.75 111.484 105.344 112.125 106.125 112.531C106.906 112.938 107.852 113.141 108.961 113.141C110.086 113.141 111.031 112.938 111.797 112.531C112.562 112.125 113.141 111.484 113.531 110.609C113.922 109.719 114.117 108.57 114.117 107.164V84.875ZM134.906 99.0547V119H127.008V93.6406H134.414L134.906 99.0547ZM133.969 105.453L132.117 105.5C132.117 103.562 132.352 101.836 132.82 100.32C133.289 98.7891 133.953 97.4922 134.812 96.4297C135.672 95.3672 136.695 94.5625 137.883 94.0156C139.086 93.4531 140.422 93.1719 141.891 93.1719C143.062 93.1719 144.133 93.3438 145.102 93.6875C146.086 94.0312 146.93 94.5859 147.633 95.3516C148.352 96.1172 148.898 97.1328 149.273 98.3984C149.664 99.6484 149.859 101.195 149.859 103.039V119H141.914V103.016C141.914 102 141.773 101.227 141.492 100.695C141.211 100.148 140.805 99.7734 140.273 99.5703C139.742 99.3672 139.094 99.2656 138.328 99.2656C137.516 99.2656 136.828 99.4219 136.266 99.7344C135.703 100.047 135.25 100.484 134.906 101.047C134.578 101.594 134.336 102.242 134.18 102.992C134.039 103.742 133.969 104.562 133.969 105.453ZM162.586 93.6406V119H154.664V93.6406H162.586ZM154.195 87.1016C154.195 85.9766 154.602 85.0547 155.414 84.3359C156.227 83.6172 157.281 83.2578 158.578 83.2578C159.875 83.2578 160.93 83.6172 161.742 84.3359C162.555 85.0547 162.961 85.9766 162.961 87.1016C162.961 88.2266 162.555 89.1484 161.742 89.8672C160.93 90.5859 159.875 90.9453 158.578 90.9453C157.281 90.9453 156.227 90.5859 155.414 89.8672C154.602 89.1484 154.195 88.2266 154.195 87.1016ZM180.82 93.6406V99.125H165.539V93.6406H180.82ZM168.75 87.3359H176.648V110.727C176.648 111.398 176.727 111.922 176.883 112.297C177.039 112.656 177.305 112.914 177.68 113.07C178.07 113.211 178.586 113.281 179.227 113.281C179.68 113.281 180.055 113.273 180.352 113.258C180.648 113.227 180.93 113.188 181.195 113.141V118.789C180.523 119.008 179.82 119.172 179.086 119.281C178.352 119.406 177.57 119.469 176.742 119.469C175.055 119.469 173.609 119.203 172.406 118.672C171.219 118.141 170.312 117.305 169.688 116.164C169.062 115.023 168.75 113.539 168.75 111.711V87.3359ZM211.406 84.875V119H203.18V84.875H211.406ZM221.672 84.875V91.2266H193.148V84.875H221.672ZM234.961 119.469C232.898 119.469 231.055 119.148 229.43 118.508C227.805 117.852 226.43 116.953 225.305 115.812C224.195 114.672 223.344 113.359 222.75 111.875C222.172 110.391 221.883 108.82 221.883 107.164V106.273C221.883 104.414 222.141 102.695 222.656 101.117C223.172 99.5234 223.938 98.1328 224.953 96.9453C225.969 95.7578 227.242 94.8359 228.773 94.1797C230.305 93.5078 232.086 93.1719 234.117 93.1719C235.914 93.1719 237.523 93.4609 238.945 94.0391C240.367 94.6172 241.57 95.4453 242.555 96.5234C243.555 97.6016 244.312 98.9062 244.828 100.438C245.359 101.969 245.625 103.688 245.625 105.594V108.805H224.906V103.859H237.914V103.25C237.93 102.406 237.781 101.688 237.469 101.094C237.172 100.5 236.734 100.047 236.156 99.7344C235.578 99.4219 234.875 99.2656 234.047 99.2656C233.188 99.2656 232.477 99.4531 231.914 99.8281C231.367 100.203 230.938 100.719 230.625 101.375C230.328 102.016 230.117 102.758 229.992 103.602C229.867 104.445 229.805 105.336 229.805 106.273V107.164C229.805 108.102 229.93 108.953 230.18 109.719C230.445 110.484 230.82 111.141 231.305 111.688C231.805 112.219 232.398 112.633 233.086 112.93C233.789 113.227 234.586 113.375 235.477 113.375C236.555 113.375 237.617 113.172 238.664 112.766C239.711 112.359 240.609 111.688 241.359 110.75L244.945 115.016C244.43 115.75 243.695 116.461 242.742 117.148C241.805 117.836 240.68 118.398 239.367 118.836C238.055 119.258 236.586 119.469 234.961 119.469ZM262.125 111.875C262.125 111.438 261.977 111.062 261.68 110.75C261.398 110.422 260.898 110.125 260.18 109.859C259.461 109.578 258.453 109.297 257.156 109.016C255.922 108.75 254.758 108.398 253.664 107.961C252.586 107.523 251.641 106.992 250.828 106.367C250.016 105.742 249.375 105 248.906 104.141C248.453 103.281 248.227 102.297 248.227 101.188C248.227 100.109 248.453 99.0938 248.906 98.1406C249.375 97.1719 250.055 96.3203 250.945 95.5859C251.852 94.8359 252.953 94.25 254.25 93.8281C255.547 93.3906 257.023 93.1719 258.68 93.1719C260.961 93.1719 262.93 93.5234 264.586 94.2266C266.242 94.9141 267.516 95.8828 268.406 97.1328C269.312 98.3672 269.766 99.7969 269.766 101.422H261.867C261.867 100.781 261.758 100.234 261.539 99.7812C261.336 99.3281 261 98.9844 260.531 98.75C260.062 98.5 259.438 98.375 258.656 98.375C258.109 98.375 257.609 98.4766 257.156 98.6797C256.719 98.8828 256.367 99.1641 256.102 99.5234C255.836 99.8828 255.703 100.305 255.703 100.789C255.703 101.133 255.781 101.445 255.938 101.727C256.109 101.992 256.367 102.242 256.711 102.477C257.055 102.695 257.492 102.898 258.023 103.086C258.555 103.258 259.195 103.414 259.945 103.555C261.648 103.867 263.242 104.312 264.727 104.891C266.211 105.469 267.414 106.289 268.336 107.352C269.273 108.414 269.742 109.844 269.742 111.641C269.742 112.766 269.484 113.805 268.969 114.758C268.453 115.695 267.711 116.523 266.742 117.242C265.773 117.945 264.609 118.492 263.25 118.883C261.891 119.273 260.359 119.469 258.656 119.469C256.234 119.469 254.188 119.039 252.516 118.18C250.844 117.305 249.578 116.211 248.719 114.898C247.875 113.57 247.453 112.227 247.453 110.867H254.812C254.844 111.648 255.031 112.289 255.375 112.789C255.734 113.289 256.211 113.656 256.805 113.891C257.398 114.125 258.086 114.242 258.867 114.242C259.586 114.242 260.18 114.141 260.648 113.938C261.133 113.734 261.5 113.461 261.75 113.117C262 112.758 262.125 112.344 262.125 111.875ZM286.805 93.6406V99.125H271.523V93.6406H286.805ZM274.734 87.3359H282.633V110.727C282.633 111.398 282.711 111.922 282.867 112.297C283.023 112.656 283.289 112.914 283.664 113.07C284.055 113.211 284.57 113.281 285.211 113.281C285.664 113.281 286.039 113.273 286.336 113.258C286.633 113.227 286.914 113.188 287.18 113.141V118.789C286.508 119.008 285.805 119.172 285.07 119.281C284.336 119.406 283.555 119.469 282.727 119.469C281.039 119.469 279.594 119.203 278.391 118.672C277.203 118.141 276.297 117.305 275.672 116.164C275.047 115.023 274.734 113.539 274.734 111.711V87.3359ZM298.289 93.6406V119H290.367V93.6406H298.289ZM289.898 87.1016C289.898 85.9766 290.305 85.0547 291.117 84.3359C291.93 83.6172 292.984 83.2578 294.281 83.2578C295.578 83.2578 296.633 83.6172 297.445 84.3359C298.258 85.0547 298.664 85.9766 298.664 87.1016C298.664 88.2266 298.258 89.1484 297.445 89.8672C296.633 90.5859 295.578 90.9453 294.281 90.9453C292.984 90.9453 291.93 90.5859 291.117 89.8672C290.305 89.1484 289.898 88.2266 289.898 87.1016ZM310.922 99.0547V119H303.023V93.6406H310.43L310.922 99.0547ZM309.984 105.453L308.133 105.5C308.133 103.562 308.367 101.836 308.836 100.32C309.305 98.7891 309.969 97.4922 310.828 96.4297C311.688 95.3672 312.711 94.5625 313.898 94.0156C315.102 93.4531 316.438 93.1719 317.906 93.1719C319.078 93.1719 320.148 93.3438 321.117 93.6875C322.102 94.0312 322.945 94.5859 323.648 95.3516C324.367 96.1172 324.914 97.1328 325.289 98.3984C325.68 99.6484 325.875 101.195 325.875 103.039V119H317.93V103.016C317.93 102 317.789 101.227 317.508 100.695C317.227 100.148 316.82 99.7734 316.289 99.5703C315.758 99.3672 315.109 99.2656 314.344 99.2656C313.531 99.2656 312.844 99.4219 312.281 99.7344C311.719 100.047 311.266 100.484 310.922 101.047C310.594 101.594 310.352 102.242 310.195 102.992C310.055 103.742 309.984 104.562 309.984 105.453ZM346.195 93.6406H353.367V118.016C353.367 120.359 352.828 122.344 351.75 123.969C350.672 125.609 349.164 126.852 347.227 127.695C345.305 128.555 343.055 128.984 340.477 128.984C339.336 128.984 338.172 128.836 336.984 128.539C335.797 128.258 334.688 127.836 333.656 127.273C332.625 126.711 331.758 126.016 331.055 125.188L334.359 120.547C335 121.266 335.805 121.875 336.773 122.375C337.742 122.891 338.883 123.148 340.195 123.148C341.336 123.148 342.289 122.945 343.055 122.539C343.836 122.133 344.43 121.539 344.836 120.758C345.242 119.992 345.445 119.062 345.445 117.969V99.6406L346.195 93.6406ZM329.344 106.625V106.133C329.344 104.211 329.578 102.461 330.047 100.883C330.531 99.2891 331.219 97.9219 332.109 96.7812C333.016 95.625 334.109 94.7344 335.391 94.1094C336.672 93.4844 338.117 93.1719 339.727 93.1719C341.461 93.1719 342.883 93.5078 343.992 94.1797C345.117 94.8359 346.016 95.7578 346.688 96.9453C347.375 98.1328 347.906 99.5234 348.281 101.117C348.672 102.695 349 104.398 349.266 106.227V106.812C349 108.531 348.633 110.156 348.164 111.688C347.711 113.203 347.117 114.547 346.383 115.719C345.648 116.891 344.727 117.812 343.617 118.484C342.523 119.141 341.211 119.469 339.68 119.469C338.086 119.469 336.648 119.148 335.367 118.508C334.102 117.867 333.016 116.969 332.109 115.812C331.219 114.656 330.531 113.297 330.047 111.734C329.578 110.172 329.344 108.469 329.344 106.625ZM337.242 106.133V106.625C337.242 107.578 337.328 108.461 337.5 109.273C337.688 110.086 337.969 110.805 338.344 111.43C338.719 112.039 339.18 112.516 339.727 112.859C340.289 113.203 340.945 113.375 341.695 113.375C342.836 113.375 343.758 113.133 344.461 112.648C345.164 112.164 345.672 111.477 345.984 110.586C346.297 109.695 346.43 108.648 346.383 107.445V105.594C346.414 104.562 346.344 103.656 346.172 102.875C346 102.078 345.727 101.414 345.352 100.883C344.992 100.352 344.508 99.9531 343.898 99.6875C343.305 99.4062 342.586 99.2656 341.742 99.2656C341.008 99.2656 340.359 99.4375 339.797 99.7812C339.234 100.125 338.766 100.609 338.391 101.234C338.016 101.844 337.727 102.57 337.523 103.414C337.336 104.242 337.242 105.148 337.242 106.133Z" fill="black"/>
<path d="M1134 0H1348C1356.28 0 1363 6.71573 1363 15V148C1363 156.284 1356.28 163 1348 163H1134V0Z" fill="#6C5CE7"/>
<path d="M1210.62 43.625H1286.38V119.375H1210.62V43.625Z" fill="white" fill-opacity="0.01"/>
<path d="M1276.91 72.0312V105.172C1276.91 107.787 1274.79 109.906 1272.17 109.906H1224.83C1222.21 109.906 1220.09 107.787 1220.09 105.172V57.8281C1220.09 55.2134 1222.21 53.0938 1224.83 53.0938H1261.12" stroke="white" stroke-width="7.24" stroke-linecap="round" stroke-linejoin="round"/>
<path d="M1232.72 75.1875L1248.5 87.8125L1276.91 53.0938" stroke="white" stroke-width="7.24" stroke-linecap="round" stroke-linejoin="round"/>
</svg>
