<svg width="1363" height="163" viewBox="0 0 1363 163" fill="none" xmlns="http://www.w3.org/2000/svg">
<path d="M0 15C0 6.71573 6.71573 0 15 0H37V163H15C6.71573 163 0 156.284 0 148V15Z" fill="#424242"/>
<rect width="1097" height="163" transform="translate(37)" fill="#F0F0F0"/>
<path d="M104.414 55.3398H107.918C107.848 56.4883 107.531 57.5078 106.969 58.3984C106.414 59.2891 105.637 59.9844 104.637 60.4844C103.645 60.9844 102.449 61.2344 101.051 61.2344C99.957 61.2344 98.9766 61.0469 98.1094 60.6719C97.2422 60.2891 96.5 59.7422 95.8828 59.0312C95.2734 58.3203 94.8086 57.4609 94.4883 56.4531C94.168 55.4453 94.0078 54.3164 94.0078 53.0664V51.8828C94.0078 50.6328 94.1719 49.5039 94.5 48.4961C94.8359 47.4805 95.3125 46.6172 95.9297 45.9062C96.5547 45.1953 97.3008 44.6484 98.168 44.2656C99.0352 43.8828 100.004 43.6914 101.074 43.6914C102.496 43.6914 103.695 43.9492 104.672 44.4648C105.656 44.9805 106.418 45.6914 106.957 46.5977C107.504 47.5039 107.832 48.5352 107.941 49.6914H104.426C104.387 49.0039 104.25 48.4219 104.016 47.9453C103.781 47.4609 103.426 47.0977 102.949 46.8555C102.48 46.6055 101.855 46.4805 101.074 46.4805C100.488 46.4805 99.9766 46.5898 99.5391 46.8086C99.1016 47.0273 98.7344 47.3594 98.4375 47.8047C98.1406 48.25 97.918 48.8125 97.7695 49.4922C97.6289 50.1641 97.5586 50.9531 97.5586 51.8594V53.0664C97.5586 53.9492 97.625 54.7266 97.7578 55.3984C97.8906 56.0625 98.0938 56.625 98.3672 57.0859C98.6484 57.5391 99.0078 57.8828 99.4453 58.1172C99.8906 58.3438 100.426 58.457 101.051 58.457C101.785 58.457 102.391 58.3398 102.867 58.1055C103.344 57.8711 103.707 57.5234 103.957 57.0625C104.215 56.6016 104.367 56.0273 104.414 55.3398ZM109.477 54.7891V54.543C109.477 53.6133 109.609 52.7578 109.875 51.9766C110.141 51.1875 110.527 50.5039 111.035 49.9258C111.543 49.3477 112.168 48.8984 112.91 48.5781C113.652 48.25 114.504 48.0859 115.465 48.0859C116.426 48.0859 117.281 48.25 118.031 48.5781C118.781 48.8984 119.41 49.3477 119.918 49.9258C120.434 50.5039 120.824 51.1875 121.09 51.9766C121.355 52.7578 121.488 53.6133 121.488 54.543V54.7891C121.488 55.7109 121.355 56.5664 121.09 57.3555C120.824 58.1367 120.434 58.8203 119.918 59.4062C119.41 59.9844 118.785 60.4336 118.043 60.7539C117.301 61.0742 116.449 61.2344 115.488 61.2344C114.527 61.2344 113.672 61.0742 112.922 60.7539C112.18 60.4336 111.551 59.9844 111.035 59.4062C110.527 58.8203 110.141 58.1367 109.875 57.3555C109.609 56.5664 109.477 55.7109 109.477 54.7891ZM112.852 54.543V54.7891C112.852 55.3203 112.898 55.8164 112.992 56.2773C113.086 56.7383 113.234 57.1445 113.438 57.4961C113.648 57.8398 113.922 58.1094 114.258 58.3047C114.594 58.5 115.004 58.5977 115.488 58.5977C115.957 58.5977 116.359 58.5 116.695 58.3047C117.031 58.1094 117.301 57.8398 117.504 57.4961C117.707 57.1445 117.855 56.7383 117.949 56.2773C118.051 55.8164 118.102 55.3203 118.102 54.7891V54.543C118.102 54.0273 118.051 53.543 117.949 53.0898C117.855 52.6289 117.703 52.2227 117.492 51.8711C117.289 51.5117 117.02 51.2305 116.684 51.0273C116.348 50.8242 115.941 50.7227 115.465 50.7227C114.988 50.7227 114.582 50.8242 114.246 51.0273C113.918 51.2305 113.648 51.5117 113.438 51.8711C113.234 52.2227 113.086 52.6289 112.992 53.0898C112.898 53.543 112.852 54.0273 112.852 54.543ZM131.062 57.9648V48.3203H134.438V61H131.262L131.062 57.9648ZM131.438 55.3633L132.434 55.3398C132.434 56.1836 132.336 56.9688 132.141 57.6953C131.945 58.4141 131.652 59.0391 131.262 59.5703C130.871 60.0938 130.379 60.5039 129.785 60.8008C129.191 61.0898 128.492 61.2344 127.688 61.2344C127.07 61.2344 126.5 61.1484 125.977 60.9766C125.461 60.7969 125.016 60.5195 124.641 60.1445C124.273 59.7617 123.984 59.2734 123.773 58.6797C123.57 58.0781 123.469 57.3555 123.469 56.5117V48.3203H126.844V56.5352C126.844 56.9102 126.887 57.2266 126.973 57.4844C127.066 57.7422 127.195 57.9531 127.359 58.1172C127.523 58.2812 127.715 58.3984 127.934 58.4688C128.16 58.5391 128.41 58.5742 128.684 58.5742C129.379 58.5742 129.926 58.4336 130.324 58.1523C130.73 57.8711 131.016 57.4883 131.18 57.0039C131.352 56.5117 131.438 55.9648 131.438 55.3633ZM140.391 51.0859V61H137.016V48.3203H140.191L140.391 51.0859ZM144.211 48.2383L144.152 51.3672C143.988 51.3438 143.789 51.3242 143.555 51.3086C143.328 51.2852 143.121 51.2734 142.934 51.2734C142.457 51.2734 142.043 51.3359 141.691 51.4609C141.348 51.5781 141.059 51.7539 140.824 51.9883C140.598 52.2227 140.426 52.5078 140.309 52.8438C140.199 53.1797 140.137 53.5625 140.121 53.9922L139.441 53.7812C139.441 52.9609 139.523 52.207 139.688 51.5195C139.852 50.8242 140.09 50.2188 140.402 49.7031C140.723 49.1875 141.113 48.7891 141.574 48.5078C142.035 48.2266 142.562 48.0859 143.156 48.0859C143.344 48.0859 143.535 48.1016 143.73 48.1328C143.926 48.1562 144.086 48.1914 144.211 48.2383ZM152.66 57.4961C152.66 57.2539 152.59 57.0352 152.449 56.8398C152.309 56.6445 152.047 56.4648 151.664 56.3008C151.289 56.1289 150.746 55.9727 150.035 55.832C149.395 55.6914 148.797 55.5156 148.242 55.3047C147.695 55.0859 147.219 54.8242 146.812 54.5195C146.414 54.2148 146.102 53.8555 145.875 53.4414C145.648 53.0195 145.535 52.5391 145.535 52C145.535 51.4688 145.648 50.9688 145.875 50.5C146.109 50.0312 146.441 49.6172 146.871 49.2578C147.309 48.8906 147.84 48.6055 148.465 48.4023C149.098 48.1914 149.809 48.0859 150.598 48.0859C151.699 48.0859 152.645 48.2617 153.434 48.6133C154.23 48.9648 154.84 49.4492 155.262 50.0664C155.691 50.6758 155.906 51.3711 155.906 52.1523H152.531C152.531 51.8242 152.461 51.5312 152.32 51.2734C152.188 51.0078 151.977 50.8008 151.688 50.6523C151.406 50.4961 151.039 50.418 150.586 50.418C150.211 50.418 149.887 50.4844 149.613 50.6172C149.34 50.7422 149.129 50.9141 148.98 51.1328C148.84 51.3438 148.77 51.5781 148.77 51.8359C148.77 52.0312 148.809 52.207 148.887 52.3633C148.973 52.5117 149.109 52.6484 149.297 52.7734C149.484 52.8984 149.727 53.0156 150.023 53.125C150.328 53.2266 150.703 53.3203 151.148 53.4062C152.062 53.5938 152.879 53.8398 153.598 54.1445C154.316 54.4414 154.887 54.8477 155.309 55.3633C155.73 55.8711 155.941 56.5391 155.941 57.3672C155.941 57.9297 155.816 58.4453 155.566 58.9141C155.316 59.3828 154.957 59.793 154.488 60.1445C154.02 60.4883 153.457 60.7578 152.801 60.9531C152.152 61.1406 151.422 61.2344 150.609 61.2344C149.43 61.2344 148.43 61.0234 147.609 60.6016C146.797 60.1797 146.18 59.6445 145.758 58.9961C145.344 58.3398 145.137 57.668 145.137 56.9805H148.336C148.352 57.4414 148.469 57.8125 148.688 58.0938C148.914 58.375 149.199 58.5781 149.543 58.7031C149.895 58.8281 150.273 58.8906 150.68 58.8906C151.117 58.8906 151.48 58.832 151.77 58.7148C152.059 58.5898 152.277 58.4258 152.426 58.2227C152.582 58.0117 152.66 57.7695 152.66 57.4961ZM163.969 61.2344C162.984 61.2344 162.102 61.0781 161.32 60.7656C160.539 60.4453 159.875 60.0039 159.328 59.4414C158.789 58.8789 158.375 58.2266 158.086 57.4844C157.797 56.7344 157.652 55.9375 157.652 55.0938V54.625C157.652 53.6641 157.789 52.7852 158.062 51.9883C158.336 51.1914 158.727 50.5 159.234 49.9141C159.75 49.3281 160.375 48.8789 161.109 48.5664C161.844 48.2461 162.672 48.0859 163.594 48.0859C164.492 48.0859 165.289 48.2344 165.984 48.5312C166.68 48.8281 167.262 49.25 167.73 49.7969C168.207 50.3438 168.566 51 168.809 51.7656C169.051 52.5234 169.172 53.3672 169.172 54.2969V55.7031H159.094V53.4531H165.855V53.1953C165.855 52.7266 165.77 52.3086 165.598 51.9414C165.434 51.5664 165.184 51.2695 164.848 51.0508C164.512 50.832 164.082 50.7227 163.559 50.7227C163.113 50.7227 162.73 50.8203 162.41 51.0156C162.09 51.2109 161.828 51.4844 161.625 51.8359C161.43 52.1875 161.281 52.6016 161.18 53.0781C161.086 53.5469 161.039 54.0625 161.039 54.625V55.0938C161.039 55.6016 161.109 56.0703 161.25 56.5C161.398 56.9297 161.605 57.3008 161.871 57.6133C162.145 57.9258 162.473 58.168 162.855 58.3398C163.246 58.5117 163.688 58.5977 164.18 58.5977C164.789 58.5977 165.355 58.4805 165.879 58.2461C166.41 58.0039 166.867 57.6406 167.25 57.1562L168.891 58.9375C168.625 59.3203 168.262 59.6875 167.801 60.0391C167.348 60.3906 166.801 60.6797 166.16 60.9062C165.52 61.125 164.789 61.2344 163.969 61.2344ZM178.887 43.9375H181.863L186.246 56.4648L190.629 43.9375H193.605L187.441 61H185.051L178.887 43.9375ZM177.281 43.9375H180.246L180.785 56.1484V61H177.281V43.9375ZM192.246 43.9375H195.223V61H191.707V56.1484L192.246 43.9375ZM204.938 58.1406V52.4922C204.938 52.0859 204.871 51.7383 204.738 51.4492C204.605 51.1523 204.398 50.9219 204.117 50.7578C203.844 50.5938 203.488 50.5117 203.051 50.5117C202.676 50.5117 202.352 50.5781 202.078 50.7109C201.805 50.8359 201.594 51.0195 201.445 51.2617C201.297 51.4961 201.223 51.7734 201.223 52.0938H197.848C197.848 51.5547 197.973 51.043 198.223 50.5586C198.473 50.0742 198.836 49.6484 199.312 49.2812C199.789 48.9062 200.355 48.6133 201.012 48.4023C201.676 48.1914 202.418 48.0859 203.238 48.0859C204.223 48.0859 205.098 48.25 205.863 48.5781C206.629 48.9062 207.23 49.3984 207.668 50.0547C208.113 50.7109 208.336 51.5312 208.336 52.5156V57.9414C208.336 58.6367 208.379 59.207 208.465 59.6523C208.551 60.0898 208.676 60.4727 208.84 60.8008V61H205.43C205.266 60.6562 205.141 60.2266 205.055 59.7109C204.977 59.1875 204.938 58.6641 204.938 58.1406ZM205.383 53.2773L205.406 55.1875H203.52C203.074 55.1875 202.688 55.2383 202.359 55.3398C202.031 55.4414 201.762 55.5859 201.551 55.7734C201.34 55.9531 201.184 56.1641 201.082 56.4062C200.988 56.6484 200.941 56.9141 200.941 57.2031C200.941 57.4922 201.008 57.7539 201.141 57.9883C201.273 58.2148 201.465 58.3945 201.715 58.5273C201.965 58.6523 202.258 58.7148 202.594 58.7148C203.102 58.7148 203.543 58.6133 203.918 58.4102C204.293 58.207 204.582 57.957 204.785 57.6602C204.996 57.3633 205.105 57.082 205.113 56.8164L206.004 58.2461C205.879 58.5664 205.707 58.8984 205.488 59.2422C205.277 59.5859 205.008 59.9102 204.68 60.2148C204.352 60.5117 203.957 60.7578 203.496 60.9531C203.035 61.1406 202.488 61.2344 201.855 61.2344C201.051 61.2344 200.32 61.0742 199.664 60.7539C199.016 60.4258 198.5 59.9766 198.117 59.4062C197.742 58.8281 197.555 58.1719 197.555 57.4375C197.555 56.7734 197.68 56.1836 197.93 55.668C198.18 55.1523 198.547 54.7188 199.031 54.3672C199.523 54.0078 200.137 53.7383 200.871 53.5586C201.605 53.3711 202.457 53.2773 203.426 53.2773H205.383ZM217.793 57.4961C217.793 57.2539 217.723 57.0352 217.582 56.8398C217.441 56.6445 217.18 56.4648 216.797 56.3008C216.422 56.1289 215.879 55.9727 215.168 55.832C214.527 55.6914 213.93 55.5156 213.375 55.3047C212.828 55.0859 212.352 54.8242 211.945 54.5195C211.547 54.2148 211.234 53.8555 211.008 53.4414C210.781 53.0195 210.668 52.5391 210.668 52C210.668 51.4688 210.781 50.9688 211.008 50.5C211.242 50.0312 211.574 49.6172 212.004 49.2578C212.441 48.8906 212.973 48.6055 213.598 48.4023C214.23 48.1914 214.941 48.0859 215.73 48.0859C216.832 48.0859 217.777 48.2617 218.566 48.6133C219.363 48.9648 219.973 49.4492 220.395 50.0664C220.824 50.6758 221.039 51.3711 221.039 52.1523H217.664C217.664 51.8242 217.594 51.5312 217.453 51.2734C217.32 51.0078 217.109 50.8008 216.82 50.6523C216.539 50.4961 216.172 50.418 215.719 50.418C215.344 50.418 215.02 50.4844 214.746 50.6172C214.473 50.7422 214.262 50.9141 214.113 51.1328C213.973 51.3438 213.902 51.5781 213.902 51.8359C213.902 52.0312 213.941 52.207 214.02 52.3633C214.105 52.5117 214.242 52.6484 214.43 52.7734C214.617 52.8984 214.859 53.0156 215.156 53.125C215.461 53.2266 215.836 53.3203 216.281 53.4062C217.195 53.5938 218.012 53.8398 218.73 54.1445C219.449 54.4414 220.02 54.8477 220.441 55.3633C220.863 55.8711 221.074 56.5391 221.074 57.3672C221.074 57.9297 220.949 58.4453 220.699 58.9141C220.449 59.3828 220.09 59.793 219.621 60.1445C219.152 60.4883 218.59 60.7578 217.934 60.9531C217.285 61.1406 216.555 61.2344 215.742 61.2344C214.562 61.2344 213.562 61.0234 212.742 60.6016C211.93 60.1797 211.312 59.6445 210.891 58.9961C210.477 58.3398 210.27 57.668 210.27 56.9805H213.469C213.484 57.4414 213.602 57.8125 213.82 58.0938C214.047 58.375 214.332 58.5781 214.676 58.7031C215.027 58.8281 215.406 58.8906 215.812 58.8906C216.25 58.8906 216.613 58.832 216.902 58.7148C217.191 58.5898 217.41 58.4258 217.559 58.2227C217.715 58.0117 217.793 57.7695 217.793 57.4961ZM229.477 48.3203V50.7109H222.094V48.3203H229.477ZM223.922 45.1914H227.297V57.1797C227.297 57.5469 227.344 57.8281 227.438 58.0234C227.539 58.2188 227.688 58.3555 227.883 58.4336C228.078 58.5039 228.324 58.5391 228.621 58.5391C228.832 58.5391 229.02 58.5312 229.184 58.5156C229.355 58.4922 229.5 58.4688 229.617 58.4453L229.629 60.9297C229.34 61.0234 229.027 61.0977 228.691 61.1523C228.355 61.207 227.984 61.2344 227.578 61.2344C226.836 61.2344 226.188 61.1133 225.633 60.8711C225.086 60.6211 224.664 60.2227 224.367 59.6758C224.07 59.1289 223.922 58.4102 223.922 57.5195V45.1914ZM237.234 61.2344C236.25 61.2344 235.367 61.0781 234.586 60.7656C233.805 60.4453 233.141 60.0039 232.594 59.4414C232.055 58.8789 231.641 58.2266 231.352 57.4844C231.062 56.7344 230.918 55.9375 230.918 55.0938V54.625C230.918 53.6641 231.055 52.7852 231.328 51.9883C231.602 51.1914 231.992 50.5 232.5 49.9141C233.016 49.3281 233.641 48.8789 234.375 48.5664C235.109 48.2461 235.938 48.0859 236.859 48.0859C237.758 48.0859 238.555 48.2344 239.25 48.5312C239.945 48.8281 240.527 49.25 240.996 49.7969C241.473 50.3438 241.832 51 242.074 51.7656C242.316 52.5234 242.438 53.3672 242.438 54.2969V55.7031H232.359V53.4531H239.121V53.1953C239.121 52.7266 239.035 52.3086 238.863 51.9414C238.699 51.5664 238.449 51.2695 238.113 51.0508C237.777 50.832 237.348 50.7227 236.824 50.7227C236.379 50.7227 235.996 50.8203 235.676 51.0156C235.355 51.2109 235.094 51.4844 234.891 51.8359C234.695 52.1875 234.547 52.6016 234.445 53.0781C234.352 53.5469 234.305 54.0625 234.305 54.625V55.0938C234.305 55.6016 234.375 56.0703 234.516 56.5C234.664 56.9297 234.871 57.3008 235.137 57.6133C235.41 57.9258 235.738 58.168 236.121 58.3398C236.512 58.5117 236.953 58.5977 237.445 58.5977C238.055 58.5977 238.621 58.4805 239.145 58.2461C239.676 58.0039 240.133 57.6406 240.516 57.1562L242.156 58.9375C241.891 59.3203 241.527 59.6875 241.066 60.0391C240.613 60.3906 240.066 60.6797 239.426 60.9062C238.785 61.125 238.055 61.2344 237.234 61.2344ZM247.734 51.0859V61H244.359V48.3203H247.535L247.734 51.0859ZM251.555 48.2383L251.496 51.3672C251.332 51.3438 251.133 51.3242 250.898 51.3086C250.672 51.2852 250.465 51.2734 250.277 51.2734C249.801 51.2734 249.387 51.3359 249.035 51.4609C248.691 51.5781 248.402 51.7539 248.168 51.9883C247.941 52.2227 247.77 52.5078 247.652 52.8438C247.543 53.1797 247.48 53.5625 247.465 53.9922L246.785 53.7812C246.785 52.9609 246.867 52.207 247.031 51.5195C247.195 50.8242 247.434 50.2188 247.746 49.7031C248.066 49.1875 248.457 48.7891 248.918 48.5078C249.379 48.2266 249.906 48.0859 250.5 48.0859C250.688 48.0859 250.879 48.1016 251.074 48.1328C251.27 48.1562 251.43 48.1914 251.555 48.2383Z" fill="#888888"/>
<path d="M110.062 92.0469L101.742 119H92.9062L105.445 84.875H111.047L110.062 92.0469ZM116.953 119L108.609 92.0469L107.531 84.875H113.203L125.812 119H116.953ZM116.625 106.273V112.625H99.1172V106.273H116.625ZM135.258 115.906L142.055 84.875H146.109L148.312 87.5234L141.07 119H136.594L135.258 115.906ZM133.453 84.875L139.195 116.141L137.719 119H132.539L125.297 84.875H133.453ZM152.039 115.977L157.734 84.875H165.867L158.625 119H153.469L152.039 115.977ZM149.039 84.875L156 116.094L154.594 119H150.117L142.711 87.4766L145.008 84.875H149.039ZM186.68 109.93C186.68 109.398 186.602 108.922 186.445 108.5C186.289 108.062 186 107.656 185.578 107.281C185.156 106.906 184.547 106.531 183.75 106.156C182.969 105.766 181.938 105.359 180.656 104.938C179.156 104.438 177.711 103.875 176.32 103.25C174.93 102.609 173.688 101.867 172.594 101.023C171.5 100.164 170.633 99.1641 169.992 98.0234C169.352 96.8672 169.031 95.5234 169.031 93.9922C169.031 92.5234 169.359 91.2031 170.016 90.0312C170.672 88.8438 171.586 87.8359 172.758 87.0078C173.945 86.1641 175.336 85.5234 176.93 85.0859C178.523 84.6328 180.266 84.4062 182.156 84.4062C184.656 84.4062 186.859 84.8438 188.766 85.7188C190.688 86.5781 192.188 87.8047 193.266 89.3984C194.359 90.9766 194.906 92.8438 194.906 95H186.727C186.727 94.1406 186.547 93.3828 186.188 92.7266C185.844 92.0703 185.32 91.5547 184.617 91.1797C183.914 90.8047 183.031 90.6172 181.969 90.6172C180.938 90.6172 180.07 90.7734 179.367 91.0859C178.664 91.3984 178.133 91.8203 177.773 92.3516C177.414 92.8672 177.234 93.4375 177.234 94.0625C177.234 94.5781 177.375 95.0469 177.656 95.4688C177.953 95.875 178.367 96.2578 178.898 96.6172C179.445 96.9766 180.102 97.3203 180.867 97.6484C181.648 97.9766 182.523 98.2969 183.492 98.6094C185.305 99.1875 186.914 99.8359 188.32 100.555C189.742 101.258 190.938 102.062 191.906 102.969C192.891 103.859 193.633 104.875 194.133 106.016C194.648 107.156 194.906 108.445 194.906 109.883C194.906 111.414 194.609 112.773 194.016 113.961C193.422 115.148 192.57 116.156 191.461 116.984C190.352 117.797 189.023 118.414 187.477 118.836C185.93 119.258 184.203 119.469 182.297 119.469C180.547 119.469 178.82 119.25 177.117 118.812C175.43 118.359 173.898 117.672 172.523 116.75C171.148 115.812 170.047 114.617 169.219 113.164C168.406 111.695 168 109.953 168 107.938H176.25C176.25 108.938 176.383 109.781 176.648 110.469C176.914 111.156 177.305 111.711 177.82 112.133C178.336 112.539 178.969 112.836 179.719 113.023C180.469 113.195 181.328 113.281 182.297 113.281C183.344 113.281 184.188 113.133 184.828 112.836C185.469 112.523 185.938 112.117 186.234 111.617C186.531 111.102 186.68 110.539 186.68 109.93ZM222.188 119H214.617L214.664 112.672H222.188C223.75 112.672 225.07 112.297 226.148 111.547C227.242 110.797 228.07 109.68 228.633 108.195C229.211 106.695 229.5 104.852 229.5 102.664V101.188C229.5 99.5469 229.336 98.1094 229.008 96.875C228.695 95.625 228.227 94.5859 227.602 93.7578C226.977 92.9141 226.195 92.2812 225.258 91.8594C224.336 91.4375 223.273 91.2266 222.07 91.2266H214.477V84.875H222.07C224.383 84.875 226.5 85.2734 228.422 86.0703C230.359 86.8516 232.031 87.9766 233.438 89.4453C234.859 90.8984 235.953 92.625 236.719 94.625C237.5 96.6094 237.891 98.8125 237.891 101.234V102.664C237.891 105.07 237.5 107.273 236.719 109.273C235.953 111.273 234.867 113 233.461 114.453C232.055 115.906 230.391 117.031 228.469 117.828C226.562 118.609 224.469 119 222.188 119ZM219.328 84.875V119H211.102V84.875H219.328ZM254.086 119.469C252.023 119.469 250.18 119.148 248.555 118.508C246.93 117.852 245.555 116.953 244.43 115.812C243.32 114.672 242.469 113.359 241.875 111.875C241.297 110.391 241.008 108.82 241.008 107.164V106.273C241.008 104.414 241.266 102.695 241.781 101.117C242.297 99.5234 243.062 98.1328 244.078 96.9453C245.094 95.7578 246.367 94.8359 247.898 94.1797C249.43 93.5078 251.211 93.1719 253.242 93.1719C255.039 93.1719 256.648 93.4609 258.07 94.0391C259.492 94.6172 260.695 95.4453 261.68 96.5234C262.68 97.6016 263.438 98.9062 263.953 100.438C264.484 101.969 264.75 103.688 264.75 105.594V108.805H244.031V103.859H257.039V103.25C257.055 102.406 256.906 101.688 256.594 101.094C256.297 100.5 255.859 100.047 255.281 99.7344C254.703 99.4219 254 99.2656 253.172 99.2656C252.312 99.2656 251.602 99.4531 251.039 99.8281C250.492 100.203 250.062 100.719 249.75 101.375C249.453 102.016 249.242 102.758 249.117 103.602C248.992 104.445 248.93 105.336 248.93 106.273V107.164C248.93 108.102 249.055 108.953 249.305 109.719C249.57 110.484 249.945 111.141 250.43 111.688C250.93 112.219 251.523 112.633 252.211 112.93C252.914 113.227 253.711 113.375 254.602 113.375C255.68 113.375 256.742 113.172 257.789 112.766C258.836 112.359 259.734 111.688 260.484 110.75L264.07 115.016C263.555 115.75 262.82 116.461 261.867 117.148C260.93 117.836 259.805 118.398 258.492 118.836C257.18 119.258 255.711 119.469 254.086 119.469ZM275.93 98.5156V128.75H268.031V93.6406H275.391L275.93 98.5156ZM291.492 106.016V106.508C291.492 108.352 291.281 110.062 290.859 111.641C290.438 113.219 289.812 114.594 288.984 115.766C288.156 116.938 287.125 117.852 285.891 118.508C284.672 119.148 283.258 119.469 281.648 119.469C280.133 119.469 278.828 119.133 277.734 118.461C276.641 117.789 275.727 116.859 274.992 115.672C274.258 114.484 273.664 113.125 273.211 111.594C272.758 110.062 272.398 108.445 272.133 106.742V106.109C272.398 104.281 272.758 102.586 273.211 101.023C273.664 99.4453 274.258 98.0703 274.992 96.8984C275.727 95.7266 276.633 94.8125 277.711 94.1562C278.805 93.5 280.109 93.1719 281.625 93.1719C283.234 93.1719 284.648 93.4766 285.867 94.0859C287.102 94.6953 288.133 95.5703 288.961 96.7109C289.805 97.8359 290.438 99.1875 290.859 100.766C291.281 102.344 291.492 104.094 291.492 106.016ZM283.594 106.508V106.016C283.594 105.031 283.523 104.133 283.383 103.32C283.242 102.492 283.016 101.773 282.703 101.164C282.406 100.555 282.008 100.086 281.508 99.7578C281.008 99.4297 280.391 99.2656 279.656 99.2656C278.812 99.2656 278.102 99.3984 277.523 99.6641C276.961 99.9141 276.508 100.305 276.164 100.836C275.836 101.352 275.602 102 275.461 102.781C275.336 103.547 275.281 104.445 275.297 105.477V107.398C275.266 108.586 275.383 109.633 275.648 110.539C275.914 111.43 276.375 112.125 277.031 112.625C277.688 113.125 278.578 113.375 279.703 113.375C280.453 113.375 281.078 113.203 281.578 112.859C282.078 112.5 282.477 112.008 282.773 111.383C283.07 110.742 283.281 110.008 283.406 109.18C283.531 108.352 283.594 107.461 283.594 106.508ZM303.352 83V119H295.43V83H303.352ZM307.242 106.578V106.086C307.242 104.227 307.508 102.516 308.039 100.953C308.57 99.375 309.352 98.0078 310.383 96.8516C311.414 95.6953 312.688 94.7969 314.203 94.1562C315.719 93.5 317.469 93.1719 319.453 93.1719C321.453 93.1719 323.211 93.5 324.727 94.1562C326.258 94.7969 327.539 95.6953 328.57 96.8516C329.602 98.0078 330.383 99.375 330.914 100.953C331.445 102.516 331.711 104.227 331.711 106.086V106.578C331.711 108.422 331.445 110.133 330.914 111.711C330.383 113.273 329.602 114.641 328.57 115.812C327.539 116.969 326.266 117.867 324.75 118.508C323.234 119.148 321.484 119.469 319.5 119.469C317.516 119.469 315.758 119.148 314.227 118.508C312.695 117.867 311.414 116.969 310.383 115.812C309.352 114.641 308.57 113.273 308.039 111.711C307.508 110.133 307.242 108.422 307.242 106.578ZM315.141 106.086V106.578C315.141 107.531 315.211 108.422 315.352 109.25C315.492 110.078 315.727 110.805 316.055 111.43C316.383 112.039 316.828 112.516 317.391 112.859C317.953 113.203 318.656 113.375 319.5 113.375C320.328 113.375 321.016 113.203 321.562 112.859C322.125 112.516 322.57 112.039 322.898 111.43C323.227 110.805 323.461 110.078 323.602 109.25C323.742 108.422 323.812 107.531 323.812 106.578V106.086C323.812 105.164 323.742 104.297 323.602 103.484C323.461 102.656 323.227 101.93 322.898 101.305C322.57 100.664 322.125 100.164 321.562 99.8047C321 99.4453 320.297 99.2656 319.453 99.2656C318.625 99.2656 317.93 99.4453 317.367 99.8047C316.82 100.164 316.383 100.664 316.055 101.305C315.727 101.93 315.492 102.656 315.352 103.484C315.211 104.297 315.141 105.164 315.141 106.086ZM342.633 116.023L349.195 93.6406H357.68L347.484 122.773C347.266 123.414 346.977 124.102 346.617 124.836C346.258 125.586 345.766 126.297 345.141 126.969C344.516 127.641 343.711 128.188 342.727 128.609C341.758 129.031 340.555 129.242 339.117 129.242C338.352 129.242 337.789 129.203 337.43 129.125C337.086 129.062 336.555 128.945 335.836 128.773V123.125C336.039 123.125 336.211 123.125 336.352 123.125C336.508 123.125 336.68 123.125 336.867 123.125C337.711 123.125 338.383 123.039 338.883 122.867C339.398 122.695 339.789 122.445 340.055 122.117C340.336 121.789 340.555 121.391 340.711 120.922L342.633 116.023ZM340.969 93.6406L345.961 111.383L346.828 119.75H341.531L332.508 93.6406H340.969ZM367.711 99.0078V119H359.812V93.6406H367.219L367.711 99.0078ZM366.75 105.453L364.945 105.5C364.945 103.719 365.156 102.078 365.578 100.578C366 99.0781 366.625 97.7734 367.453 96.6641C368.281 95.5547 369.297 94.6953 370.5 94.0859C371.719 93.4766 373.125 93.1719 374.719 93.1719C375.828 93.1719 376.836 93.3438 377.742 93.6875C378.648 94.0156 379.43 94.5391 380.086 95.2578C380.742 95.9609 381.242 96.8828 381.586 98.0234C381.945 99.1484 382.125 100.5 382.125 102.078V119H374.227V103.086C374.227 102.008 374.102 101.195 373.852 100.648C373.617 100.102 373.273 99.7344 372.82 99.5469C372.367 99.3594 371.812 99.2656 371.156 99.2656C370.469 99.2656 369.852 99.4219 369.305 99.7344C368.758 100.047 368.289 100.484 367.898 101.047C367.523 101.594 367.234 102.242 367.031 102.992C366.844 103.742 366.75 104.562 366.75 105.453ZM381.234 105.453L379.031 105.5C379.031 103.719 379.227 102.078 379.617 100.578C380.023 99.0781 380.625 97.7734 381.422 96.6641C382.234 95.5547 383.242 94.6953 384.445 94.0859C385.648 93.4766 387.047 93.1719 388.641 93.1719C389.797 93.1719 390.859 93.3438 391.828 93.6875C392.797 94.0312 393.633 94.5859 394.336 95.3516C395.039 96.1172 395.586 97.1328 395.977 98.3984C396.367 99.6484 396.562 101.195 396.562 103.039V119H388.641V103.039C388.641 101.992 388.516 101.203 388.266 100.672C388.031 100.125 387.688 99.7578 387.234 99.5703C386.781 99.3672 386.242 99.2656 385.617 99.2656C384.867 99.2656 384.219 99.4219 383.672 99.7344C383.125 100.047 382.664 100.484 382.289 101.047C381.93 101.594 381.664 102.242 381.492 102.992C381.32 103.742 381.234 104.562 381.234 105.453ZM413.367 119.469C411.305 119.469 409.461 119.148 407.836 118.508C406.211 117.852 404.836 116.953 403.711 115.812C402.602 114.672 401.75 113.359 401.156 111.875C400.578 110.391 400.289 108.82 400.289 107.164V106.273C400.289 104.414 400.547 102.695 401.062 101.117C401.578 99.5234 402.344 98.1328 403.359 96.9453C404.375 95.7578 405.648 94.8359 407.18 94.1797C408.711 93.5078 410.492 93.1719 412.523 93.1719C414.32 93.1719 415.93 93.4609 417.352 94.0391C418.773 94.6172 419.977 95.4453 420.961 96.5234C421.961 97.6016 422.719 98.9062 423.234 100.438C423.766 101.969 424.031 103.688 424.031 105.594V108.805H403.312V103.859H416.32V103.25C416.336 102.406 416.188 101.688 415.875 101.094C415.578 100.5 415.141 100.047 414.562 99.7344C413.984 99.4219 413.281 99.2656 412.453 99.2656C411.594 99.2656 410.883 99.4531 410.32 99.8281C409.773 100.203 409.344 100.719 409.031 101.375C408.734 102.016 408.523 102.758 408.398 103.602C408.273 104.445 408.211 105.336 408.211 106.273V107.164C408.211 108.102 408.336 108.953 408.586 109.719C408.852 110.484 409.227 111.141 409.711 111.688C410.211 112.219 410.805 112.633 411.492 112.93C412.195 113.227 412.992 113.375 413.883 113.375C414.961 113.375 416.023 113.172 417.07 112.766C418.117 112.359 419.016 111.688 419.766 110.75L423.352 115.016C422.836 115.75 422.102 116.461 421.148 117.148C420.211 117.836 419.086 118.398 417.773 118.836C416.461 119.258 414.992 119.469 413.367 119.469ZM435 99.0547V119H427.102V93.6406H434.508L435 99.0547ZM434.062 105.453L432.211 105.5C432.211 103.562 432.445 101.836 432.914 100.32C433.383 98.7891 434.047 97.4922 434.906 96.4297C435.766 95.3672 436.789 94.5625 437.977 94.0156C439.18 93.4531 440.516 93.1719 441.984 93.1719C443.156 93.1719 444.227 93.3438 445.195 93.6875C446.18 94.0312 447.023 94.5859 447.727 95.3516C448.445 96.1172 448.992 97.1328 449.367 98.3984C449.758 99.6484 449.953 101.195 449.953 103.039V119H442.008V103.016C442.008 102 441.867 101.227 441.586 100.695C441.305 100.148 440.898 99.7734 440.367 99.5703C439.836 99.3672 439.188 99.2656 438.422 99.2656C437.609 99.2656 436.922 99.4219 436.359 99.7344C435.797 100.047 435.344 100.484 435 101.047C434.672 101.594 434.43 102.242 434.273 102.992C434.133 103.742 434.062 104.562 434.062 105.453ZM467.695 93.6406V99.125H452.414V93.6406H467.695ZM455.625 87.3359H463.523V110.727C463.523 111.398 463.602 111.922 463.758 112.297C463.914 112.656 464.18 112.914 464.555 113.07C464.945 113.211 465.461 113.281 466.102 113.281C466.555 113.281 466.93 113.273 467.227 113.258C467.523 113.227 467.805 113.188 468.07 113.141V118.789C467.398 119.008 466.695 119.172 465.961 119.281C465.227 119.406 464.445 119.469 463.617 119.469C461.93 119.469 460.484 119.203 459.281 118.672C458.094 118.141 457.188 117.305 456.562 116.164C455.938 115.023 455.625 113.539 455.625 111.711V87.3359Z" fill="black"/>
<path d="M1134 0H1348C1356.28 0 1363 6.71573 1363 15V148C1363 156.284 1356.28 163 1348 163H1134V0Z" fill="#6C5CE7"/>
<path d="M1212.5 117.5L1212.5 45.5L1284.5 45.5L1284.5 117.5L1212.5 117.5Z" fill="white" fill-opacity="0.01"/>
<path d="M1221.5 81.5125L1221.5 108.5L1275.5 108.5L1275.5 81.5" stroke="white" stroke-width="7.24" stroke-linecap="round" stroke-linejoin="round"/>
<path d="M1262 68L1248.5 54.5L1235 68" stroke="white" stroke-width="7.24" stroke-linecap="round" stroke-linejoin="round"/>
<path d="M1248.49 93.5L1248.49 54.5" stroke="white" stroke-width="7.24" stroke-linecap="round" stroke-linejoin="round"/>
</svg>
