<svg width="1363" height="163" viewBox="0 0 1363 163" fill="none" xmlns="http://www.w3.org/2000/svg">
<path d="M0 15C0 6.71573 6.71573 0 15 0H37V163H15C6.71573 163 0 156.284 0 148V15Z" fill="#424242"/>
<rect width="1097" height="163" transform="translate(37)" fill="#F0F0F0"/>
<path d="M104.414 55.3398H107.918C107.848 56.4883 107.531 57.5078 106.969 58.3984C106.414 59.2891 105.637 59.9844 104.637 60.4844C103.645 60.9844 102.449 61.2344 101.051 61.2344C99.957 61.2344 98.9766 61.0469 98.1094 60.6719C97.2422 60.2891 96.5 59.7422 95.8828 59.0312C95.2734 58.3203 94.8086 57.4609 94.4883 56.4531C94.168 55.4453 94.0078 54.3164 94.0078 53.0664V51.8828C94.0078 50.6328 94.1719 49.5039 94.5 48.4961C94.8359 47.4805 95.3125 46.6172 95.9297 45.9062C96.5547 45.1953 97.3008 44.6484 98.168 44.2656C99.0352 43.8828 100.004 43.6914 101.074 43.6914C102.496 43.6914 103.695 43.9492 104.672 44.4648C105.656 44.9805 106.418 45.6914 106.957 46.5977C107.504 47.5039 107.832 48.5352 107.941 49.6914H104.426C104.387 49.0039 104.25 48.4219 104.016 47.9453C103.781 47.4609 103.426 47.0977 102.949 46.8555C102.48 46.6055 101.855 46.4805 101.074 46.4805C100.488 46.4805 99.9766 46.5898 99.5391 46.8086C99.1016 47.0273 98.7344 47.3594 98.4375 47.8047C98.1406 48.25 97.918 48.8125 97.7695 49.4922C97.6289 50.1641 97.5586 50.9531 97.5586 51.8594V53.0664C97.5586 53.9492 97.625 54.7266 97.7578 55.3984C97.8906 56.0625 98.0938 56.625 98.3672 57.0859C98.6484 57.5391 99.0078 57.8828 99.4453 58.1172C99.8906 58.3438 100.426 58.457 101.051 58.457C101.785 58.457 102.391 58.3398 102.867 58.1055C103.344 57.8711 103.707 57.5234 103.957 57.0625C104.215 56.6016 104.367 56.0273 104.414 55.3398ZM109.477 54.7891V54.543C109.477 53.6133 109.609 52.7578 109.875 51.9766C110.141 51.1875 110.527 50.5039 111.035 49.9258C111.543 49.3477 112.168 48.8984 112.91 48.5781C113.652 48.25 114.504 48.0859 115.465 48.0859C116.426 48.0859 117.281 48.25 118.031 48.5781C118.781 48.8984 119.41 49.3477 119.918 49.9258C120.434 50.5039 120.824 51.1875 121.09 51.9766C121.355 52.7578 121.488 53.6133 121.488 54.543V54.7891C121.488 55.7109 121.355 56.5664 121.09 57.3555C120.824 58.1367 120.434 58.8203 119.918 59.4062C119.41 59.9844 118.785 60.4336 118.043 60.7539C117.301 61.0742 116.449 61.2344 115.488 61.2344C114.527 61.2344 113.672 61.0742 112.922 60.7539C112.18 60.4336 111.551 59.9844 111.035 59.4062C110.527 58.8203 110.141 58.1367 109.875 57.3555C109.609 56.5664 109.477 55.7109 109.477 54.7891ZM112.852 54.543V54.7891C112.852 55.3203 112.898 55.8164 112.992 56.2773C113.086 56.7383 113.234 57.1445 113.438 57.4961C113.648 57.8398 113.922 58.1094 114.258 58.3047C114.594 58.5 115.004 58.5977 115.488 58.5977C115.957 58.5977 116.359 58.5 116.695 58.3047C117.031 58.1094 117.301 57.8398 117.504 57.4961C117.707 57.1445 117.855 56.7383 117.949 56.2773C118.051 55.8164 118.102 55.3203 118.102 54.7891V54.543C118.102 54.0273 118.051 53.543 117.949 53.0898C117.855 52.6289 117.703 52.2227 117.492 51.8711C117.289 51.5117 117.02 51.2305 116.684 51.0273C116.348 50.8242 115.941 50.7227 115.465 50.7227C114.988 50.7227 114.582 50.8242 114.246 51.0273C113.918 51.2305 113.648 51.5117 113.438 51.8711C113.234 52.2227 113.086 52.6289 112.992 53.0898C112.898 53.543 112.852 54.0273 112.852 54.543ZM131.062 57.9648V48.3203H134.438V61H131.262L131.062 57.9648ZM131.438 55.3633L132.434 55.3398C132.434 56.1836 132.336 56.9688 132.141 57.6953C131.945 58.4141 131.652 59.0391 131.262 59.5703C130.871 60.0938 130.379 60.5039 129.785 60.8008C129.191 61.0898 128.492 61.2344 127.688 61.2344C127.07 61.2344 126.5 61.1484 125.977 60.9766C125.461 60.7969 125.016 60.5195 124.641 60.1445C124.273 59.7617 123.984 59.2734 123.773 58.6797C123.57 58.0781 123.469 57.3555 123.469 56.5117V48.3203H126.844V56.5352C126.844 56.9102 126.887 57.2266 126.973 57.4844C127.066 57.7422 127.195 57.9531 127.359 58.1172C127.523 58.2812 127.715 58.3984 127.934 58.4688C128.16 58.5391 128.41 58.5742 128.684 58.5742C129.379 58.5742 129.926 58.4336 130.324 58.1523C130.73 57.8711 131.016 57.4883 131.18 57.0039C131.352 56.5117 131.438 55.9648 131.438 55.3633ZM140.391 51.0859V61H137.016V48.3203H140.191L140.391 51.0859ZM144.211 48.2383L144.152 51.3672C143.988 51.3438 143.789 51.3242 143.555 51.3086C143.328 51.2852 143.121 51.2734 142.934 51.2734C142.457 51.2734 142.043 51.3359 141.691 51.4609C141.348 51.5781 141.059 51.7539 140.824 51.9883C140.598 52.2227 140.426 52.5078 140.309 52.8438C140.199 53.1797 140.137 53.5625 140.121 53.9922L139.441 53.7812C139.441 52.9609 139.523 52.207 139.688 51.5195C139.852 50.8242 140.09 50.2188 140.402 49.7031C140.723 49.1875 141.113 48.7891 141.574 48.5078C142.035 48.2266 142.562 48.0859 143.156 48.0859C143.344 48.0859 143.535 48.1016 143.73 48.1328C143.926 48.1562 144.086 48.1914 144.211 48.2383ZM152.66 57.4961C152.66 57.2539 152.59 57.0352 152.449 56.8398C152.309 56.6445 152.047 56.4648 151.664 56.3008C151.289 56.1289 150.746 55.9727 150.035 55.832C149.395 55.6914 148.797 55.5156 148.242 55.3047C147.695 55.0859 147.219 54.8242 146.812 54.5195C146.414 54.2148 146.102 53.8555 145.875 53.4414C145.648 53.0195 145.535 52.5391 145.535 52C145.535 51.4688 145.648 50.9688 145.875 50.5C146.109 50.0312 146.441 49.6172 146.871 49.2578C147.309 48.8906 147.84 48.6055 148.465 48.4023C149.098 48.1914 149.809 48.0859 150.598 48.0859C151.699 48.0859 152.645 48.2617 153.434 48.6133C154.23 48.9648 154.84 49.4492 155.262 50.0664C155.691 50.6758 155.906 51.3711 155.906 52.1523H152.531C152.531 51.8242 152.461 51.5312 152.32 51.2734C152.188 51.0078 151.977 50.8008 151.688 50.6523C151.406 50.4961 151.039 50.418 150.586 50.418C150.211 50.418 149.887 50.4844 149.613 50.6172C149.34 50.7422 149.129 50.9141 148.98 51.1328C148.84 51.3438 148.77 51.5781 148.77 51.8359C148.77 52.0312 148.809 52.207 148.887 52.3633C148.973 52.5117 149.109 52.6484 149.297 52.7734C149.484 52.8984 149.727 53.0156 150.023 53.125C150.328 53.2266 150.703 53.3203 151.148 53.4062C152.062 53.5938 152.879 53.8398 153.598 54.1445C154.316 54.4414 154.887 54.8477 155.309 55.3633C155.73 55.8711 155.941 56.5391 155.941 57.3672C155.941 57.9297 155.816 58.4453 155.566 58.9141C155.316 59.3828 154.957 59.793 154.488 60.1445C154.02 60.4883 153.457 60.7578 152.801 60.9531C152.152 61.1406 151.422 61.2344 150.609 61.2344C149.43 61.2344 148.43 61.0234 147.609 60.6016C146.797 60.1797 146.18 59.6445 145.758 58.9961C145.344 58.3398 145.137 57.668 145.137 56.9805H148.336C148.352 57.4414 148.469 57.8125 148.688 58.0938C148.914 58.375 149.199 58.5781 149.543 58.7031C149.895 58.8281 150.273 58.8906 150.68 58.8906C151.117 58.8906 151.48 58.832 151.77 58.7148C152.059 58.5898 152.277 58.4258 152.426 58.2227C152.582 58.0117 152.66 57.7695 152.66 57.4961ZM163.969 61.2344C162.984 61.2344 162.102 61.0781 161.32 60.7656C160.539 60.4453 159.875 60.0039 159.328 59.4414C158.789 58.8789 158.375 58.2266 158.086 57.4844C157.797 56.7344 157.652 55.9375 157.652 55.0938V54.625C157.652 53.6641 157.789 52.7852 158.062 51.9883C158.336 51.1914 158.727 50.5 159.234 49.9141C159.75 49.3281 160.375 48.8789 161.109 48.5664C161.844 48.2461 162.672 48.0859 163.594 48.0859C164.492 48.0859 165.289 48.2344 165.984 48.5312C166.68 48.8281 167.262 49.25 167.73 49.7969C168.207 50.3438 168.566 51 168.809 51.7656C169.051 52.5234 169.172 53.3672 169.172 54.2969V55.7031H159.094V53.4531H165.855V53.1953C165.855 52.7266 165.77 52.3086 165.598 51.9414C165.434 51.5664 165.184 51.2695 164.848 51.0508C164.512 50.832 164.082 50.7227 163.559 50.7227C163.113 50.7227 162.73 50.8203 162.41 51.0156C162.09 51.2109 161.828 51.4844 161.625 51.8359C161.43 52.1875 161.281 52.6016 161.18 53.0781C161.086 53.5469 161.039 54.0625 161.039 54.625V55.0938C161.039 55.6016 161.109 56.0703 161.25 56.5C161.398 56.9297 161.605 57.3008 161.871 57.6133C162.145 57.9258 162.473 58.168 162.855 58.3398C163.246 58.5117 163.688 58.5977 164.18 58.5977C164.789 58.5977 165.355 58.4805 165.879 58.2461C166.41 58.0039 166.867 57.6406 167.25 57.1562L168.891 58.9375C168.625 59.3203 168.262 59.6875 167.801 60.0391C167.348 60.3906 166.801 60.6797 166.16 60.9062C165.52 61.125 164.789 61.2344 163.969 61.2344ZM178.887 43.9375H181.863L186.246 56.4648L190.629 43.9375H193.605L187.441 61H185.051L178.887 43.9375ZM177.281 43.9375H180.246L180.785 56.1484V61H177.281V43.9375ZM192.246 43.9375H195.223V61H191.707V56.1484L192.246 43.9375ZM204.938 58.1406V52.4922C204.938 52.0859 204.871 51.7383 204.738 51.4492C204.605 51.1523 204.398 50.9219 204.117 50.7578C203.844 50.5938 203.488 50.5117 203.051 50.5117C202.676 50.5117 202.352 50.5781 202.078 50.7109C201.805 50.8359 201.594 51.0195 201.445 51.2617C201.297 51.4961 201.223 51.7734 201.223 52.0938H197.848C197.848 51.5547 197.973 51.043 198.223 50.5586C198.473 50.0742 198.836 49.6484 199.312 49.2812C199.789 48.9062 200.355 48.6133 201.012 48.4023C201.676 48.1914 202.418 48.0859 203.238 48.0859C204.223 48.0859 205.098 48.25 205.863 48.5781C206.629 48.9062 207.23 49.3984 207.668 50.0547C208.113 50.7109 208.336 51.5312 208.336 52.5156V57.9414C208.336 58.6367 208.379 59.207 208.465 59.6523C208.551 60.0898 208.676 60.4727 208.84 60.8008V61H205.43C205.266 60.6562 205.141 60.2266 205.055 59.7109C204.977 59.1875 204.938 58.6641 204.938 58.1406ZM205.383 53.2773L205.406 55.1875H203.52C203.074 55.1875 202.688 55.2383 202.359 55.3398C202.031 55.4414 201.762 55.5859 201.551 55.7734C201.34 55.9531 201.184 56.1641 201.082 56.4062C200.988 56.6484 200.941 56.9141 200.941 57.2031C200.941 57.4922 201.008 57.7539 201.141 57.9883C201.273 58.2148 201.465 58.3945 201.715 58.5273C201.965 58.6523 202.258 58.7148 202.594 58.7148C203.102 58.7148 203.543 58.6133 203.918 58.4102C204.293 58.207 204.582 57.957 204.785 57.6602C204.996 57.3633 205.105 57.082 205.113 56.8164L206.004 58.2461C205.879 58.5664 205.707 58.8984 205.488 59.2422C205.277 59.5859 205.008 59.9102 204.68 60.2148C204.352 60.5117 203.957 60.7578 203.496 60.9531C203.035 61.1406 202.488 61.2344 201.855 61.2344C201.051 61.2344 200.32 61.0742 199.664 60.7539C199.016 60.4258 198.5 59.9766 198.117 59.4062C197.742 58.8281 197.555 58.1719 197.555 57.4375C197.555 56.7734 197.68 56.1836 197.93 55.668C198.18 55.1523 198.547 54.7188 199.031 54.3672C199.523 54.0078 200.137 53.7383 200.871 53.5586C201.605 53.3711 202.457 53.2773 203.426 53.2773H205.383ZM217.793 57.4961C217.793 57.2539 217.723 57.0352 217.582 56.8398C217.441 56.6445 217.18 56.4648 216.797 56.3008C216.422 56.1289 215.879 55.9727 215.168 55.832C214.527 55.6914 213.93 55.5156 213.375 55.3047C212.828 55.0859 212.352 54.8242 211.945 54.5195C211.547 54.2148 211.234 53.8555 211.008 53.4414C210.781 53.0195 210.668 52.5391 210.668 52C210.668 51.4688 210.781 50.9688 211.008 50.5C211.242 50.0312 211.574 49.6172 212.004 49.2578C212.441 48.8906 212.973 48.6055 213.598 48.4023C214.23 48.1914 214.941 48.0859 215.73 48.0859C216.832 48.0859 217.777 48.2617 218.566 48.6133C219.363 48.9648 219.973 49.4492 220.395 50.0664C220.824 50.6758 221.039 51.3711 221.039 52.1523H217.664C217.664 51.8242 217.594 51.5312 217.453 51.2734C217.32 51.0078 217.109 50.8008 216.82 50.6523C216.539 50.4961 216.172 50.418 215.719 50.418C215.344 50.418 215.02 50.4844 214.746 50.6172C214.473 50.7422 214.262 50.9141 214.113 51.1328C213.973 51.3438 213.902 51.5781 213.902 51.8359C213.902 52.0312 213.941 52.207 214.02 52.3633C214.105 52.5117 214.242 52.6484 214.43 52.7734C214.617 52.8984 214.859 53.0156 215.156 53.125C215.461 53.2266 215.836 53.3203 216.281 53.4062C217.195 53.5938 218.012 53.8398 218.73 54.1445C219.449 54.4414 220.02 54.8477 220.441 55.3633C220.863 55.8711 221.074 56.5391 221.074 57.3672C221.074 57.9297 220.949 58.4453 220.699 58.9141C220.449 59.3828 220.09 59.793 219.621 60.1445C219.152 60.4883 218.59 60.7578 217.934 60.9531C217.285 61.1406 216.555 61.2344 215.742 61.2344C214.562 61.2344 213.562 61.0234 212.742 60.6016C211.93 60.1797 211.312 59.6445 210.891 58.9961C210.477 58.3398 210.27 57.668 210.27 56.9805H213.469C213.484 57.4414 213.602 57.8125 213.82 58.0938C214.047 58.375 214.332 58.5781 214.676 58.7031C215.027 58.8281 215.406 58.8906 215.812 58.8906C216.25 58.8906 216.613 58.832 216.902 58.7148C217.191 58.5898 217.41 58.4258 217.559 58.2227C217.715 58.0117 217.793 57.7695 217.793 57.4961ZM229.477 48.3203V50.7109H222.094V48.3203H229.477ZM223.922 45.1914H227.297V57.1797C227.297 57.5469 227.344 57.8281 227.438 58.0234C227.539 58.2188 227.688 58.3555 227.883 58.4336C228.078 58.5039 228.324 58.5391 228.621 58.5391C228.832 58.5391 229.02 58.5312 229.184 58.5156C229.355 58.4922 229.5 58.4688 229.617 58.4453L229.629 60.9297C229.34 61.0234 229.027 61.0977 228.691 61.1523C228.355 61.207 227.984 61.2344 227.578 61.2344C226.836 61.2344 226.188 61.1133 225.633 60.8711C225.086 60.6211 224.664 60.2227 224.367 59.6758C224.07 59.1289 223.922 58.4102 223.922 57.5195V45.1914ZM237.234 61.2344C236.25 61.2344 235.367 61.0781 234.586 60.7656C233.805 60.4453 233.141 60.0039 232.594 59.4414C232.055 58.8789 231.641 58.2266 231.352 57.4844C231.062 56.7344 230.918 55.9375 230.918 55.0938V54.625C230.918 53.6641 231.055 52.7852 231.328 51.9883C231.602 51.1914 231.992 50.5 232.5 49.9141C233.016 49.3281 233.641 48.8789 234.375 48.5664C235.109 48.2461 235.938 48.0859 236.859 48.0859C237.758 48.0859 238.555 48.2344 239.25 48.5312C239.945 48.8281 240.527 49.25 240.996 49.7969C241.473 50.3438 241.832 51 242.074 51.7656C242.316 52.5234 242.438 53.3672 242.438 54.2969V55.7031H232.359V53.4531H239.121V53.1953C239.121 52.7266 239.035 52.3086 238.863 51.9414C238.699 51.5664 238.449 51.2695 238.113 51.0508C237.777 50.832 237.348 50.7227 236.824 50.7227C236.379 50.7227 235.996 50.8203 235.676 51.0156C235.355 51.2109 235.094 51.4844 234.891 51.8359C234.695 52.1875 234.547 52.6016 234.445 53.0781C234.352 53.5469 234.305 54.0625 234.305 54.625V55.0938C234.305 55.6016 234.375 56.0703 234.516 56.5C234.664 56.9297 234.871 57.3008 235.137 57.6133C235.41 57.9258 235.738 58.168 236.121 58.3398C236.512 58.5117 236.953 58.5977 237.445 58.5977C238.055 58.5977 238.621 58.4805 239.145 58.2461C239.676 58.0039 240.133 57.6406 240.516 57.1562L242.156 58.9375C241.891 59.3203 241.527 59.6875 241.066 60.0391C240.613 60.3906 240.066 60.6797 239.426 60.9062C238.785 61.125 238.055 61.2344 237.234 61.2344ZM247.734 51.0859V61H244.359V48.3203H247.535L247.734 51.0859ZM251.555 48.2383L251.496 51.3672C251.332 51.3438 251.133 51.3242 250.898 51.3086C250.672 51.2852 250.465 51.2734 250.277 51.2734C249.801 51.2734 249.387 51.3359 249.035 51.4609C248.691 51.5781 248.402 51.7539 248.168 51.9883C247.941 52.2227 247.77 52.5078 247.652 52.8438C247.543 53.1797 247.48 53.5625 247.465 53.9922L246.785 53.7812C246.785 52.9609 246.867 52.207 247.031 51.5195C247.195 50.8242 247.434 50.2188 247.746 49.7031C248.066 49.1875 248.457 48.7891 248.918 48.5078C249.379 48.2266 249.906 48.0859 250.5 48.0859C250.688 48.0859 250.879 48.1016 251.074 48.1328C251.27 48.1562 251.43 48.1914 251.555 48.2383Z" fill="#888888"/>
<path d="M106.688 119H99.1172L99.1641 112.672H106.688C108.25 112.672 109.57 112.297 110.648 111.547C111.742 110.797 112.57 109.68 113.133 108.195C113.711 106.695 114 104.852 114 102.664V101.188C114 99.5469 113.836 98.1094 113.508 96.875C113.195 95.625 112.727 94.5859 112.102 93.7578C111.477 92.9141 110.695 92.2812 109.758 91.8594C108.836 91.4375 107.773 91.2266 106.57 91.2266H98.9766V84.875H106.57C108.883 84.875 111 85.2734 112.922 86.0703C114.859 86.8516 116.531 87.9766 117.938 89.4453C119.359 90.8984 120.453 92.625 121.219 94.625C122 96.6094 122.391 98.8125 122.391 101.234V102.664C122.391 105.07 122 107.273 121.219 109.273C120.453 111.273 119.367 113 117.961 114.453C116.555 115.906 114.891 117.031 112.969 117.828C111.062 118.609 108.969 119 106.688 119ZM103.828 84.875V119H95.6016V84.875H103.828ZM139.477 112.625V102.172C139.477 101.453 139.375 100.836 139.172 100.32C138.969 99.8047 138.648 99.4062 138.211 99.125C137.773 98.8281 137.188 98.6797 136.453 98.6797C135.859 98.6797 135.352 98.7812 134.93 98.9844C134.508 99.1875 134.188 99.4922 133.969 99.8984C133.75 100.305 133.641 100.82 133.641 101.445H125.742C125.742 100.273 126 99.1875 126.516 98.1875C127.047 97.1719 127.797 96.2891 128.766 95.5391C129.75 94.7891 130.922 94.2109 132.281 93.8047C133.656 93.3828 135.188 93.1719 136.875 93.1719C138.891 93.1719 140.688 93.5078 142.266 94.1797C143.859 94.8516 145.117 95.8594 146.039 97.2031C146.961 98.5312 147.422 100.203 147.422 102.219V112.602C147.422 114.258 147.516 115.516 147.703 116.375C147.891 117.219 148.156 117.961 148.5 118.602V119H140.578C140.203 118.219 139.922 117.266 139.734 116.141C139.562 115 139.477 113.828 139.477 112.625ZM140.438 103.508L140.484 107.727H136.992C136.258 107.727 135.633 107.828 135.117 108.031C134.617 108.234 134.211 108.516 133.898 108.875C133.602 109.219 133.383 109.609 133.242 110.047C133.117 110.484 133.055 110.945 133.055 111.43C133.055 111.898 133.164 112.32 133.383 112.695C133.617 113.055 133.93 113.336 134.32 113.539C134.711 113.742 135.148 113.844 135.633 113.844C136.508 113.844 137.25 113.68 137.859 113.352C138.484 113.008 138.961 112.594 139.289 112.109C139.617 111.625 139.781 111.172 139.781 110.75L141.516 113.984C141.203 114.609 140.844 115.242 140.438 115.883C140.047 116.523 139.555 117.117 138.961 117.664C138.383 118.195 137.672 118.633 136.828 118.977C135.984 119.305 134.961 119.469 133.758 119.469C132.195 119.469 130.758 119.148 129.445 118.508C128.148 117.867 127.109 116.977 126.328 115.836C125.547 114.68 125.156 113.352 125.156 111.852C125.156 110.539 125.391 109.367 125.859 108.336C126.344 107.305 127.07 106.43 128.039 105.711C129.008 104.992 130.242 104.445 131.742 104.07C133.242 103.695 135.008 103.508 137.039 103.508H140.438ZM165.164 93.6406V99.125H149.883V93.6406H165.164ZM153.094 87.3359H160.992V110.727C160.992 111.398 161.07 111.922 161.227 112.297C161.383 112.656 161.648 112.914 162.023 113.07C162.414 113.211 162.93 113.281 163.57 113.281C164.023 113.281 164.398 113.273 164.695 113.258C164.992 113.227 165.273 113.188 165.539 113.141V118.789C164.867 119.008 164.164 119.172 163.43 119.281C162.695 119.406 161.914 119.469 161.086 119.469C159.398 119.469 157.953 119.203 156.75 118.672C155.562 118.141 154.656 117.305 154.031 116.164C153.406 115.023 153.094 113.539 153.094 111.711V87.3359ZM181.477 112.625V102.172C181.477 101.453 181.375 100.836 181.172 100.32C180.969 99.8047 180.648 99.4062 180.211 99.125C179.773 98.8281 179.188 98.6797 178.453 98.6797C177.859 98.6797 177.352 98.7812 176.93 98.9844C176.508 99.1875 176.188 99.4922 175.969 99.8984C175.75 100.305 175.641 100.82 175.641 101.445H167.742C167.742 100.273 168 99.1875 168.516 98.1875C169.047 97.1719 169.797 96.2891 170.766 95.5391C171.75 94.7891 172.922 94.2109 174.281 93.8047C175.656 93.3828 177.188 93.1719 178.875 93.1719C180.891 93.1719 182.688 93.5078 184.266 94.1797C185.859 94.8516 187.117 95.8594 188.039 97.2031C188.961 98.5312 189.422 100.203 189.422 102.219V112.602C189.422 114.258 189.516 115.516 189.703 116.375C189.891 117.219 190.156 117.961 190.5 118.602V119H182.578C182.203 118.219 181.922 117.266 181.734 116.141C181.562 115 181.477 113.828 181.477 112.625ZM182.438 103.508L182.484 107.727H178.992C178.258 107.727 177.633 107.828 177.117 108.031C176.617 108.234 176.211 108.516 175.898 108.875C175.602 109.219 175.383 109.609 175.242 110.047C175.117 110.484 175.055 110.945 175.055 111.43C175.055 111.898 175.164 112.32 175.383 112.695C175.617 113.055 175.93 113.336 176.32 113.539C176.711 113.742 177.148 113.844 177.633 113.844C178.508 113.844 179.25 113.68 179.859 113.352C180.484 113.008 180.961 112.594 181.289 112.109C181.617 111.625 181.781 111.172 181.781 110.75L183.516 113.984C183.203 114.609 182.844 115.242 182.438 115.883C182.047 116.523 181.555 117.117 180.961 117.664C180.383 118.195 179.672 118.633 178.828 118.977C177.984 119.305 176.961 119.469 175.758 119.469C174.195 119.469 172.758 119.148 171.445 118.508C170.148 117.867 169.109 116.977 168.328 115.836C167.547 114.68 167.156 113.352 167.156 111.852C167.156 110.539 167.391 109.367 167.859 108.336C168.344 107.305 169.07 106.43 170.039 105.711C171.008 104.992 172.242 104.445 173.742 104.07C175.242 103.695 177.008 103.508 179.039 103.508H182.438ZM193.875 83H201.773V112.766L200.953 119H193.875V83ZM217.336 106.039V106.531C217.336 108.453 217.141 110.203 216.75 111.781C216.359 113.359 215.758 114.727 214.945 115.883C214.133 117.023 213.109 117.906 211.875 118.531C210.641 119.156 209.18 119.469 207.492 119.469C205.961 119.469 204.648 119.141 203.555 118.484C202.461 117.812 201.547 116.891 200.812 115.719C200.078 114.531 199.484 113.164 199.031 111.617C198.578 110.055 198.219 108.383 197.953 106.602V106.016C198.219 104.25 198.578 102.594 199.031 101.047C199.484 99.4844 200.078 98.1172 200.812 96.9453C201.547 95.7578 202.453 94.8359 203.531 94.1797C204.625 93.5078 205.93 93.1719 207.445 93.1719C209.148 93.1719 210.617 93.4922 211.852 94.1328C213.102 94.7734 214.133 95.6719 214.945 96.8281C215.758 97.9844 216.359 99.3438 216.75 100.906C217.141 102.469 217.336 104.18 217.336 106.039ZM209.438 106.531V106.039C209.438 105.117 209.383 104.25 209.273 103.438C209.164 102.625 208.969 101.906 208.688 101.281C208.406 100.656 208.008 100.164 207.492 99.8047C206.977 99.4453 206.305 99.2656 205.477 99.2656C204.633 99.2656 203.922 99.4062 203.344 99.6875C202.781 99.9688 202.328 100.375 201.984 100.906C201.656 101.422 201.422 102.062 201.281 102.828C201.141 103.578 201.078 104.43 201.094 105.383V107.234C201.062 108.531 201.18 109.641 201.445 110.562C201.711 111.484 202.172 112.188 202.828 112.672C203.484 113.156 204.383 113.398 205.523 113.398C206.367 113.398 207.047 113.234 207.562 112.906C208.094 112.578 208.492 112.109 208.758 111.5C209.023 110.891 209.203 110.164 209.297 109.32C209.391 108.477 209.438 107.547 209.438 106.531ZM234.023 112.625V102.172C234.023 101.453 233.922 100.836 233.719 100.32C233.516 99.8047 233.195 99.4062 232.758 99.125C232.32 98.8281 231.734 98.6797 231 98.6797C230.406 98.6797 229.898 98.7812 229.477 98.9844C229.055 99.1875 228.734 99.4922 228.516 99.8984C228.297 100.305 228.188 100.82 228.188 101.445H220.289C220.289 100.273 220.547 99.1875 221.062 98.1875C221.594 97.1719 222.344 96.2891 223.312 95.5391C224.297 94.7891 225.469 94.2109 226.828 93.8047C228.203 93.3828 229.734 93.1719 231.422 93.1719C233.438 93.1719 235.234 93.5078 236.812 94.1797C238.406 94.8516 239.664 95.8594 240.586 97.2031C241.508 98.5312 241.969 100.203 241.969 102.219V112.602C241.969 114.258 242.062 115.516 242.25 116.375C242.438 117.219 242.703 117.961 243.047 118.602V119H235.125C234.75 118.219 234.469 117.266 234.281 116.141C234.109 115 234.023 113.828 234.023 112.625ZM234.984 103.508L235.031 107.727H231.539C230.805 107.727 230.18 107.828 229.664 108.031C229.164 108.234 228.758 108.516 228.445 108.875C228.148 109.219 227.93 109.609 227.789 110.047C227.664 110.484 227.602 110.945 227.602 111.43C227.602 111.898 227.711 112.32 227.93 112.695C228.164 113.055 228.477 113.336 228.867 113.539C229.258 113.742 229.695 113.844 230.18 113.844C231.055 113.844 231.797 113.68 232.406 113.352C233.031 113.008 233.508 112.594 233.836 112.109C234.164 111.625 234.328 111.172 234.328 110.75L236.062 113.984C235.75 114.609 235.391 115.242 234.984 115.883C234.594 116.523 234.102 117.117 233.508 117.664C232.93 118.195 232.219 118.633 231.375 118.977C230.531 119.305 229.508 119.469 228.305 119.469C226.742 119.469 225.305 119.148 223.992 118.508C222.695 117.867 221.656 116.977 220.875 115.836C220.094 114.68 219.703 113.352 219.703 111.852C219.703 110.539 219.938 109.367 220.406 108.336C220.891 107.305 221.617 106.43 222.586 105.711C223.555 104.992 224.789 104.445 226.289 104.07C227.789 103.695 229.555 103.508 231.586 103.508H234.984ZM259.641 111.875C259.641 111.438 259.492 111.062 259.195 110.75C258.914 110.422 258.414 110.125 257.695 109.859C256.977 109.578 255.969 109.297 254.672 109.016C253.438 108.75 252.273 108.398 251.18 107.961C250.102 107.523 249.156 106.992 248.344 106.367C247.531 105.742 246.891 105 246.422 104.141C245.969 103.281 245.742 102.297 245.742 101.188C245.742 100.109 245.969 99.0938 246.422 98.1406C246.891 97.1719 247.57 96.3203 248.461 95.5859C249.367 94.8359 250.469 94.25 251.766 93.8281C253.062 93.3906 254.539 93.1719 256.195 93.1719C258.477 93.1719 260.445 93.5234 262.102 94.2266C263.758 94.9141 265.031 95.8828 265.922 97.1328C266.828 98.3672 267.281 99.7969 267.281 101.422H259.383C259.383 100.781 259.273 100.234 259.055 99.7812C258.852 99.3281 258.516 98.9844 258.047 98.75C257.578 98.5 256.953 98.375 256.172 98.375C255.625 98.375 255.125 98.4766 254.672 98.6797C254.234 98.8828 253.883 99.1641 253.617 99.5234C253.352 99.8828 253.219 100.305 253.219 100.789C253.219 101.133 253.297 101.445 253.453 101.727C253.625 101.992 253.883 102.242 254.227 102.477C254.57 102.695 255.008 102.898 255.539 103.086C256.07 103.258 256.711 103.414 257.461 103.555C259.164 103.867 260.758 104.312 262.242 104.891C263.727 105.469 264.93 106.289 265.852 107.352C266.789 108.414 267.258 109.844 267.258 111.641C267.258 112.766 267 113.805 266.484 114.758C265.969 115.695 265.227 116.523 264.258 117.242C263.289 117.945 262.125 118.492 260.766 118.883C259.406 119.273 257.875 119.469 256.172 119.469C253.75 119.469 251.703 119.039 250.031 118.18C248.359 117.305 247.094 116.211 246.234 114.898C245.391 113.57 244.969 112.227 244.969 110.867H252.328C252.359 111.648 252.547 112.289 252.891 112.789C253.25 113.289 253.727 113.656 254.32 113.891C254.914 114.125 255.602 114.242 256.383 114.242C257.102 114.242 257.695 114.141 258.164 113.938C258.648 113.734 259.016 113.461 259.266 113.117C259.516 112.758 259.641 112.344 259.641 111.875ZM283.242 119.469C281.18 119.469 279.336 119.148 277.711 118.508C276.086 117.852 274.711 116.953 273.586 115.812C272.477 114.672 271.625 113.359 271.031 111.875C270.453 110.391 270.164 108.82 270.164 107.164V106.273C270.164 104.414 270.422 102.695 270.938 101.117C271.453 99.5234 272.219 98.1328 273.234 96.9453C274.25 95.7578 275.523 94.8359 277.055 94.1797C278.586 93.5078 280.367 93.1719 282.398 93.1719C284.195 93.1719 285.805 93.4609 287.227 94.0391C288.648 94.6172 289.852 95.4453 290.836 96.5234C291.836 97.6016 292.594 98.9062 293.109 100.438C293.641 101.969 293.906 103.688 293.906 105.594V108.805H273.188V103.859H286.195V103.25C286.211 102.406 286.062 101.688 285.75 101.094C285.453 100.5 285.016 100.047 284.438 99.7344C283.859 99.4219 283.156 99.2656 282.328 99.2656C281.469 99.2656 280.758 99.4531 280.195 99.8281C279.648 100.203 279.219 100.719 278.906 101.375C278.609 102.016 278.398 102.758 278.273 103.602C278.148 104.445 278.086 105.336 278.086 106.273V107.164C278.086 108.102 278.211 108.953 278.461 109.719C278.727 110.484 279.102 111.141 279.586 111.688C280.086 112.219 280.68 112.633 281.367 112.93C282.07 113.227 282.867 113.375 283.758 113.375C284.836 113.375 285.898 113.172 286.945 112.766C287.992 112.359 288.891 111.688 289.641 110.75L293.227 115.016C292.711 115.75 291.977 116.461 291.023 117.148C290.086 117.836 288.961 118.398 287.648 118.836C286.336 119.258 284.867 119.469 283.242 119.469ZM320.531 119H312.961L313.008 112.672H320.531C322.094 112.672 323.414 112.297 324.492 111.547C325.586 110.797 326.414 109.68 326.977 108.195C327.555 106.695 327.844 104.852 327.844 102.664V101.188C327.844 99.5469 327.68 98.1094 327.352 96.875C327.039 95.625 326.57 94.5859 325.945 93.7578C325.32 92.9141 324.539 92.2812 323.602 91.8594C322.68 91.4375 321.617 91.2266 320.414 91.2266H312.82V84.875H320.414C322.727 84.875 324.844 85.2734 326.766 86.0703C328.703 86.8516 330.375 87.9766 331.781 89.4453C333.203 90.8984 334.297 92.625 335.062 94.625C335.844 96.6094 336.234 98.8125 336.234 101.234V102.664C336.234 105.07 335.844 107.273 335.062 109.273C334.297 111.273 333.211 113 331.805 114.453C330.398 115.906 328.734 117.031 326.812 117.828C324.906 118.609 322.812 119 320.531 119ZM317.672 84.875V119H309.445V84.875H317.672ZM352.43 119.469C350.367 119.469 348.523 119.148 346.898 118.508C345.273 117.852 343.898 116.953 342.773 115.812C341.664 114.672 340.812 113.359 340.219 111.875C339.641 110.391 339.352 108.82 339.352 107.164V106.273C339.352 104.414 339.609 102.695 340.125 101.117C340.641 99.5234 341.406 98.1328 342.422 96.9453C343.438 95.7578 344.711 94.8359 346.242 94.1797C347.773 93.5078 349.555 93.1719 351.586 93.1719C353.383 93.1719 354.992 93.4609 356.414 94.0391C357.836 94.6172 359.039 95.4453 360.023 96.5234C361.023 97.6016 361.781 98.9062 362.297 100.438C362.828 101.969 363.094 103.688 363.094 105.594V108.805H342.375V103.859H355.383V103.25C355.398 102.406 355.25 101.688 354.938 101.094C354.641 100.5 354.203 100.047 353.625 99.7344C353.047 99.4219 352.344 99.2656 351.516 99.2656C350.656 99.2656 349.945 99.4531 349.383 99.8281C348.836 100.203 348.406 100.719 348.094 101.375C347.797 102.016 347.586 102.758 347.461 103.602C347.336 104.445 347.273 105.336 347.273 106.273V107.164C347.273 108.102 347.398 108.953 347.648 109.719C347.914 110.484 348.289 111.141 348.773 111.688C349.273 112.219 349.867 112.633 350.555 112.93C351.258 113.227 352.055 113.375 352.945 113.375C354.023 113.375 355.086 113.172 356.133 112.766C357.18 112.359 358.078 111.688 358.828 110.75L362.414 115.016C361.898 115.75 361.164 116.461 360.211 117.148C359.273 117.836 358.148 118.398 356.836 118.836C355.523 119.258 354.055 119.469 352.43 119.469ZM379.594 111.875C379.594 111.438 379.445 111.062 379.148 110.75C378.867 110.422 378.367 110.125 377.648 109.859C376.93 109.578 375.922 109.297 374.625 109.016C373.391 108.75 372.227 108.398 371.133 107.961C370.055 107.523 369.109 106.992 368.297 106.367C367.484 105.742 366.844 105 366.375 104.141C365.922 103.281 365.695 102.297 365.695 101.188C365.695 100.109 365.922 99.0938 366.375 98.1406C366.844 97.1719 367.523 96.3203 368.414 95.5859C369.32 94.8359 370.422 94.25 371.719 93.8281C373.016 93.3906 374.492 93.1719 376.148 93.1719C378.43 93.1719 380.398 93.5234 382.055 94.2266C383.711 94.9141 384.984 95.8828 385.875 97.1328C386.781 98.3672 387.234 99.7969 387.234 101.422H379.336C379.336 100.781 379.227 100.234 379.008 99.7812C378.805 99.3281 378.469 98.9844 378 98.75C377.531 98.5 376.906 98.375 376.125 98.375C375.578 98.375 375.078 98.4766 374.625 98.6797C374.188 98.8828 373.836 99.1641 373.57 99.5234C373.305 99.8828 373.172 100.305 373.172 100.789C373.172 101.133 373.25 101.445 373.406 101.727C373.578 101.992 373.836 102.242 374.18 102.477C374.523 102.695 374.961 102.898 375.492 103.086C376.023 103.258 376.664 103.414 377.414 103.555C379.117 103.867 380.711 104.312 382.195 104.891C383.68 105.469 384.883 106.289 385.805 107.352C386.742 108.414 387.211 109.844 387.211 111.641C387.211 112.766 386.953 113.805 386.438 114.758C385.922 115.695 385.18 116.523 384.211 117.242C383.242 117.945 382.078 118.492 380.719 118.883C379.359 119.273 377.828 119.469 376.125 119.469C373.703 119.469 371.656 119.039 369.984 118.18C368.312 117.305 367.047 116.211 366.188 114.898C365.344 113.57 364.922 112.227 364.922 110.867H372.281C372.312 111.648 372.5 112.289 372.844 112.789C373.203 113.289 373.68 113.656 374.273 113.891C374.867 114.125 375.555 114.242 376.336 114.242C377.055 114.242 377.648 114.141 378.117 113.938C378.602 113.734 378.969 113.461 379.219 113.117C379.469 112.758 379.594 112.344 379.594 111.875ZM399.258 93.6406V119H391.336V93.6406H399.258ZM390.867 87.1016C390.867 85.9766 391.273 85.0547 392.086 84.3359C392.898 83.6172 393.953 83.2578 395.25 83.2578C396.547 83.2578 397.602 83.6172 398.414 84.3359C399.227 85.0547 399.633 85.9766 399.633 87.1016C399.633 88.2266 399.227 89.1484 398.414 89.8672C397.602 90.5859 396.547 90.9453 395.25 90.9453C393.953 90.9453 392.898 90.5859 392.086 89.8672C391.273 89.1484 390.867 88.2266 390.867 87.1016ZM420.07 93.6406H427.242V118.016C427.242 120.359 426.703 122.344 425.625 123.969C424.547 125.609 423.039 126.852 421.102 127.695C419.18 128.555 416.93 128.984 414.352 128.984C413.211 128.984 412.047 128.836 410.859 128.539C409.672 128.258 408.562 127.836 407.531 127.273C406.5 126.711 405.633 126.016 404.93 125.188L408.234 120.547C408.875 121.266 409.68 121.875 410.648 122.375C411.617 122.891 412.758 123.148 414.07 123.148C415.211 123.148 416.164 122.945 416.93 122.539C417.711 122.133 418.305 121.539 418.711 120.758C419.117 119.992 419.32 119.062 419.32 117.969V99.6406L420.07 93.6406ZM403.219 106.625V106.133C403.219 104.211 403.453 102.461 403.922 100.883C404.406 99.2891 405.094 97.9219 405.984 96.7812C406.891 95.625 407.984 94.7344 409.266 94.1094C410.547 93.4844 411.992 93.1719 413.602 93.1719C415.336 93.1719 416.758 93.5078 417.867 94.1797C418.992 94.8359 419.891 95.7578 420.562 96.9453C421.25 98.1328 421.781 99.5234 422.156 101.117C422.547 102.695 422.875 104.398 423.141 106.227V106.812C422.875 108.531 422.508 110.156 422.039 111.688C421.586 113.203 420.992 114.547 420.258 115.719C419.523 116.891 418.602 117.812 417.492 118.484C416.398 119.141 415.086 119.469 413.555 119.469C411.961 119.469 410.523 119.148 409.242 118.508C407.977 117.867 406.891 116.969 405.984 115.812C405.094 114.656 404.406 113.297 403.922 111.734C403.453 110.172 403.219 108.469 403.219 106.625ZM411.117 106.133V106.625C411.117 107.578 411.203 108.461 411.375 109.273C411.562 110.086 411.844 110.805 412.219 111.43C412.594 112.039 413.055 112.516 413.602 112.859C414.164 113.203 414.82 113.375 415.57 113.375C416.711 113.375 417.633 113.133 418.336 112.648C419.039 112.164 419.547 111.477 419.859 110.586C420.172 109.695 420.305 108.648 420.258 107.445V105.594C420.289 104.562 420.219 103.656 420.047 102.875C419.875 102.078 419.602 101.414 419.227 100.883C418.867 100.352 418.383 99.9531 417.773 99.6875C417.18 99.4062 416.461 99.2656 415.617 99.2656C414.883 99.2656 414.234 99.4375 413.672 99.7812C413.109 100.125 412.641 100.609 412.266 101.234C411.891 101.844 411.602 102.57 411.398 103.414C411.211 104.242 411.117 105.148 411.117 106.133ZM439.547 99.0547V119H431.648V93.6406H439.055L439.547 99.0547ZM438.609 105.453L436.758 105.5C436.758 103.562 436.992 101.836 437.461 100.32C437.93 98.7891 438.594 97.4922 439.453 96.4297C440.312 95.3672 441.336 94.5625 442.523 94.0156C443.727 93.4531 445.062 93.1719 446.531 93.1719C447.703 93.1719 448.773 93.3438 449.742 93.6875C450.727 94.0312 451.57 94.5859 452.273 95.3516C452.992 96.1172 453.539 97.1328 453.914 98.3984C454.305 99.6484 454.5 101.195 454.5 103.039V119H446.555V103.016C446.555 102 446.414 101.227 446.133 100.695C445.852 100.148 445.445 99.7734 444.914 99.5703C444.383 99.3672 443.734 99.2656 442.969 99.2656C442.156 99.2656 441.469 99.4219 440.906 99.7344C440.344 100.047 439.891 100.484 439.547 101.047C439.219 101.594 438.977 102.242 438.82 102.992C438.68 103.742 438.609 104.562 438.609 105.453Z" fill="black"/>
<path d="M1134 0H1348C1356.28 0 1363 6.71573 1363 15V148C1363 156.284 1356.28 163 1348 163H1134V0Z" fill="#6C5CE7"/>
<path d="M1248.5 51.6667C1257.07 51.6667 1264.74 52.9907 1270.29 55.1784C1273.06 56.2717 1275.33 57.5901 1276.91 59.0895C1278.49 60.591 1279.42 62.3052 1279.42 64.1667C1279.42 66.0281 1278.49 67.7423 1276.91 69.2438C1275.33 70.7432 1273.06 72.0616 1270.29 73.1549C1264.74 75.3426 1257.07 76.6666 1248.5 76.6667C1239.93 76.6667 1232.26 75.3427 1226.71 73.1549C1223.94 72.0616 1221.67 70.7432 1220.09 69.2438C1218.51 67.7423 1217.58 66.0281 1217.58 64.1667C1217.58 62.3052 1218.51 60.591 1220.09 59.0895C1221.67 57.5901 1223.94 56.2717 1226.71 55.1784C1232.26 52.9906 1239.93 51.6667 1248.5 51.6667ZM1248.5 55.3336C1242.07 55.3336 1235.28 56.2867 1230.11 57.9147C1227.52 58.7295 1225.37 59.7039 1223.88 60.7917C1222.37 61.8873 1221.63 63.0283 1221.63 64.1667C1221.63 65.305 1222.37 66.446 1223.88 67.5417C1225.37 68.6294 1227.52 69.6038 1230.11 70.4186C1235.28 72.0466 1242.07 72.9997 1248.5 72.9997C1254.93 72.9996 1261.72 72.0466 1266.89 70.4186C1269.48 69.6037 1271.63 68.6296 1273.12 67.5417C1274.63 66.446 1275.38 65.305 1275.38 64.1667C1275.38 63.0283 1274.63 61.8873 1273.12 60.7917C1271.63 59.7037 1269.48 58.7296 1266.89 57.9147C1261.72 56.2868 1254.93 55.3337 1248.5 55.3336Z" fill="white" stroke="white"/>
<path d="M1277.4 62.3333C1277.91 62.3333 1278.42 62.5126 1278.8 62.848L1278.94 62.9808C1279.24 63.304 1279.42 63.7212 1279.42 64.1664V74.8333C1279.42 76.6948 1278.49 78.409 1276.91 79.9105C1275.33 81.4099 1273.06 82.7283 1270.29 83.8216C1264.74 86.0093 1257.07 87.3333 1248.5 87.3333C1239.93 87.3333 1232.26 86.0094 1226.71 83.8216C1223.94 82.7283 1221.67 81.4099 1220.09 79.9105C1218.51 78.409 1217.58 76.6948 1217.58 74.8333V64.1664C1217.58 63.6574 1217.81 63.1851 1218.2 62.848L1218.35 62.7298C1218.71 62.4708 1219.15 62.3334 1219.6 62.3333C1220.12 62.3333 1220.63 62.5126 1221.01 62.848C1221.39 63.1851 1221.63 63.6574 1221.63 64.1664V74.8333C1221.63 75.9717 1222.37 77.1127 1223.88 78.2083C1225.37 79.2961 1227.52 80.2705 1230.11 81.0853C1235.28 82.7133 1242.07 83.6664 1248.5 83.6664C1254.93 83.6663 1261.72 82.7132 1266.89 81.0853C1269.48 80.2704 1271.63 79.2963 1273.12 78.2083C1274.63 77.1127 1275.38 75.9717 1275.38 74.8333V64.1664C1275.38 63.6575 1275.61 63.1851 1275.99 62.848L1276.14 62.7298C1276.5 62.4708 1276.94 62.3333 1277.4 62.3333Z" fill="white" stroke="white"/>
<path d="M1277.4 73C1277.91 73 1278.42 73.1793 1278.8 73.5146L1278.94 73.6475C1279.24 73.9707 1279.42 74.3878 1279.42 74.833V86.833C1279.42 88.6945 1278.49 90.4086 1276.91 91.9102C1275.33 93.4096 1273.06 94.7289 1270.29 95.8223C1264.74 98.0099 1257.07 99.333 1248.5 99.333C1239.93 99.333 1232.26 98.01 1226.71 95.8223C1223.94 94.7289 1221.67 93.4096 1220.09 91.9102C1218.51 90.4087 1217.58 88.6944 1217.58 86.833V74.833L1217.59 74.6445C1217.64 74.2084 1217.86 73.8097 1218.2 73.5146L1218.35 73.3965C1218.71 73.1375 1219.15 73.0001 1219.6 73C1220.12 73 1220.63 73.1793 1221.01 73.5146L1221.15 73.6475C1221.45 73.9707 1221.63 74.3877 1221.63 74.833V86.833C1221.63 87.9713 1222.37 89.1123 1223.88 90.208C1225.37 91.2959 1227.52 92.2711 1230.11 93.0859C1235.28 94.7139 1242.07 95.667 1248.5 95.667C1254.93 95.667 1261.72 94.7139 1266.89 93.0859C1269.48 92.2711 1271.63 91.296 1273.12 90.208C1274.63 89.1124 1275.38 87.9713 1275.38 86.833V74.833C1275.38 74.3242 1275.61 73.8518 1275.99 73.5146L1276.14 73.3965C1276.5 73.1375 1276.94 73 1277.4 73Z" fill="white" stroke="white"/>
<path d="M1277.4 85C1277.91 85 1278.42 85.1793 1278.8 85.5146L1278.94 85.6475C1279.24 85.9707 1279.42 86.3878 1279.42 86.833V98.833C1279.42 100.694 1278.49 102.409 1276.91 103.91C1275.33 105.41 1273.06 106.729 1270.29 107.822C1264.74 110.01 1257.07 111.333 1248.5 111.333C1239.93 111.333 1232.26 110.01 1226.71 107.822C1223.94 106.729 1221.67 105.41 1220.09 103.91C1218.51 102.409 1217.58 100.694 1217.58 98.833V86.833L1217.59 86.6445C1217.64 86.2084 1217.86 85.8097 1218.2 85.5146L1218.35 85.3965C1218.71 85.1375 1219.15 85.0001 1219.6 85C1220.12 85 1220.63 85.1793 1221.01 85.5146L1221.15 85.6475C1221.45 85.9707 1221.63 86.3877 1221.63 86.833V98.833C1221.63 99.9713 1222.37 101.112 1223.88 102.208C1225.37 103.296 1227.52 104.271 1230.11 105.086C1235.28 106.714 1242.07 107.667 1248.5 107.667C1254.93 107.667 1261.72 106.714 1266.89 105.086C1269.48 104.271 1271.63 103.296 1273.12 102.208C1274.63 101.112 1275.38 99.9713 1275.38 98.833V86.833C1275.38 86.3242 1275.61 85.8518 1275.99 85.5146L1276.14 85.3965C1276.5 85.1375 1276.94 85 1277.4 85Z" fill="white" stroke="white"/>
</svg>
